/* XPM */
static char *result[] = {
/* columns rows colors chars-per-pixel */
"64 64 89 1 ",
"  c #010101",
". c gray8",
"X c #1B1813",
"o c #2D1506",
"O c #5C3C00",
"+ c #7D4D05",
"@ c #4B4B4B",
"# c #57595C",
"$ c #823E10",
"% c #864B06",
"& c #884B07",
"* c #84470B",
"= c #864A08",
"- c #894D09",
"; c #845602",
": c #885902",
"> c #8D510B",
", c #9C5B07",
"< c #9E540C",
"1 c #9A4913",
"2 c #8F5410",
"3 c #905511",
"4 c #A3560E",
"5 c #AA5A0E",
"6 c #9D621F",
"7 c #A36107",
"8 c #AA6507",
"9 c #BA7902",
"0 c #9F6522",
"q c #987638",
"w c #A06522",
"e c #A76C2A",
"r c #A96E2C",
"t c #B26922",
"y c #AC712F",
"u c #C47C06",
"i c #C46314",
"p c #CE6716",
"a c #C56910",
"s c #D46816",
"d c #C17C14",
"f c #DD7215",
"g c #EA6F1D",
"h c #EB701D",
"j c #F6761E",
"k c #FC771F",
"l c #FC791E",
"z c #D97F33",
"x c #FC7720",
"c c #FC7921",
"v c #D18405",
"b c #D78905",
"n c #DD9103",
"m c #E69C04",
"M c #EF9B04",
"N c #F39E03",
"B c #FC9F07",
"V c #FC940E",
"C c #FC9B0A",
"Z c #F18413",
"A c #FC8616",
"S c #FC8C13",
"D c #FC8319",
"F c #FB9211",
"G c #FCA503",
"H c #FBAC03",
"J c #F9A40C",
"K c #F9AD0A",
"L c #F9B503",
"P c #F8BB03",
"I c #F9B008",
"U c #F48533",
"Y c #F48939",
"T c #FCB22A",
"R c #F1B038",
"E c #BF8645",
"W c #C78E4D",
"Q c #CB9252",
"! c #D39B5B",
"~ c #E59D59",
"^ c #FCBC45",
"/ c #DDA566",
"( c #E1A96A",
") c #FAD796",
"_ c #FAD99B",
"` c #D1CEC9",
"' c #CFCFD0",
"] c #FCFCFC",
"[ c None",
/* pixels */
"[[[[[[[[[[[[[[[[[[[[[[[[[[[[[[[[kkSGGDcAGGDxx[[[[[[[[[[[[[[[[[[[",
"[[[[[[[[[[[[[[[[[[[[[[[[[[[[[[[[kcSGGlxAGGSxk[[[[[[[[[[[[[[[[[[[",
"[[[[[[[[[[[[[[[[[[[[[[[[[[[[[[[[AASCVSASVCSkk[[[[[[[[[[[[[[[[[[[",
"[[[[[[[[[[[[[[[[[[[[[[[[[[[[[[llBGVkkCGCkc[[[[[[[[[[[[[[[[[[[[[[",
"[[[[[[[[[[[[[[[[[[[[[[[[[[[[[[klBGVkkCGVll[[[[[[[[[[[[[[[[[[[[[[",
"[[[[[[[[[[[[[[[[[[[[[[[[[[[ccSVVSASCCSAD[[[[[[[[[[[[[[[[[[[[[[[[",
"[[[[[[[[[[[[[[[[[[[[[[[[[[[lkSGGlxAGGDkk[[[[[[[[[[[[[[[[[[[[[[[[",
"[[[[[[[[[[[[[[[[[[[[[[[[[[[kkSBCADSCCDkk[[[[[[[[[[[[[[[[[[[[[[[[",
"[[[[[[[[[[[[[[[[[[[[[[[[[[[kklllBGVkk[[[[[[[[[[[[[[[[[[[[[[[[[[[",
"[[[[[[[[[[[[[[[[[[[[[[[[[[[klkkkBGVkk[[[[[[[[[[[[[[[[[[[[[[[[[[[",
"[[[[[[[[[[[[[[[[[[[[[[[[[[[kkSVVSSAkkkllkckk[[[[[[[[[[[[[[[[[[[[",
"[[[[[[[[[[[[[[[[[[[[[[[[[[[kcSGGlxxkkkklklklk[[[[[[[[[[[[[[[[[[[",
"[[[[[[[[[[[[[[[[[[[[[[[[[[[kkSGCADlDlDlDDDlDl[[[[[[[[[[[[[[[[[[[",
"[[[[[[[[[[[[[[[[[[[[[[[[[[[kkkkDCGBGGGBGBGGGClk[[[[[[[[[[[[[[[[[",
"[[[[[[[[[[[[[[[[[[[[[[[[[[[kkkckBGGGGGGGGGGGBkk[[[[[[[[[[[[[[[[[",
"[[[[[[[[[[[[[[[[[[[[[[[[[[[lkDFSSSSVSSSVSSVSSk[[[[[[[[[[[[[[[[[[",
"[[[[[[[[[[[[[[[[[[[[[[[[[[[cxSGGDckkkkkckkkkk[[[[[[[[[[[[[[[[[[[",
"[[[[[[[[[[[[[[[[[[[[[[[[[[[DlSGBDklkkkklkkkkk[[[[[[[[[[[[[[[[[[[",
"[[[[[[[[[[[[[[[[[[[[[[[[[klCGSlD[[[[[[[[[[[[[[[[[[[[[[[[[[[[[[[[",
"[[[[[[[[[[[[[[[[[[[[[[[[kklGGVkl[[[[[[[[[[[[[[[[[[[[[[[[[[[[[[[[",
"[[[[[[[[[[[[[[[[[[[[[[[[ASSVFSkc[[[[[[[[[[[[[[[[[[[[[[[[[[[[[[[[",
"[[[[[[[[[[[[[[[[[[[[[[kkFGBlkk[[[[[[[[[[[[[[[[[[[[[[[[[[[[[[[[[[",
"[[[[[[[[[[[[[[[[[[[[[[llVGBlk[[[[[[[[[[[[[[[[[[[[[[[[[[[[[[[[[[[",
"[[[[[[[[[[[[[[[[[[[ckDKIFDD[[[[[[[[[[[[[[[[[[[[[[[[[[[[[[[[[[[[[",
"[[[[[[[[[[[[[[[[[[[kcDPPFcc[[[[[[[[[[[[[[[[[[[[[[[[[[[[[[[[[[[[[",
"[[[[[[[[[[[[[[[[[[[kcAPPCAD[[[[[[[[[[[[[[[[[[[[[[[[[[[[[[[[[[[[[",
"[[[[[[[[[[[[[[[[[[[klDLPHGJlkl[[&--&-[[[[[[[[[[[[[[[[[[[[[[[[[[[",
"[[[[[[[[[[[[[[[[[[[lcAPPHGGllk[[--->-[[[[[[[[[[[[[[[[[[[[[[[[[[[",
"[[[[[[[[[[[[[[[[[kkFCJPPLGBlkp-2WQWWW3--[[[[[[[[[[[[[[[[[[[[[[[[",
"[[[[[[[[[[[[[[[[[lkVGGPPHGBlki-3!((((0--[[[[[[[[[[[[[[[[[[[[[[[[",
"[[[[[[[[[[[[[[[[[lcCHHLLHGGAAa&>EQ!(/0&-[[[[[[[[[[[[[[[[[[[[[[[[",
"[[[[[[[[[[[[[[[[[kkJPLGGGGGGGu&&&=y//0&-[[[[[[[[[[[[[[[[[[[[[[[[",
"[[[[[[[[[[[[[[[[[kcJPLGGGGGGGu&&-%y(/6%%[[[[[[[[[[[[[[[[[[[[[[[[",
"[[[[[[[[[[[[[[[[[kkCLHLLHGGLLmvvvvdrr2%4jl[[[[[[[[[[[[[[[[[[[[[[",
"[[[[[[[[[[[[[[[[[kkVGGPPHGHLPLGGGGv%%%%5ll[[[[[[[[[[[[[[[[[[[[[[",
"[[[[[[[[[[[[[[[[[kkCGLLLHHHIIHGGGGb,,>%5lD[[[[[[[[[[[[[[[[[[[[[[",
"[[[[[[[[[[[[[[[[[lkJPLHGLLLDlFGGGGGNM7%8BGDkk[[[[[[[[[[[[[[[[[[[",
"[[[[[[[[[[[[[[[[[kkJPLGGLLIDxSGGGGGGG4%8GGAkk[[[[[[[[[[[[[[[[[[[",
"[[[[[[[[[[[[[[[[[klJLHGGJVFFVCGGHLHGGb9bGGCFSlk[[[[[[[[[[[[[[[[[",
"[[[[[[[[[[[[[[[[[kkVGGGGSklJGGGGLPLGGGGGGGGGBlk[[[[[[[[[[[[[[[[[",
"[[[[[[[[[[[[[[[[[kkCGGGBSkDBGGGGLLLGGGHGGGGGCll[[[[[[[[[[[[[[[[[",
"[[[[[[[[[[[[[[[[[kkVGBDkFGGGGGGGGHHPPPLLGGGGClk[[[[[[[[[[[[[[[[[",
"[[[[[[[[[[[[[[[[[lcVGBkcFGGGGGGGGGHPPPPLGGGGClk[[[[[[[[[[[[[[[[[",
"[[[[[[[[[[[[[[[[[kkCGBkkVGGGGGGGGGHPPPPLLHHLHSSA[[[[[[[[[[[[[[[[",
"[[[[[[[[[[[[[[[[[kxCGBkkVGGGGGGGGGHPPPPPPPPPLHGSkk[[[[[[[[[[[[[[",
"[[[[[[[[[[[[[[[[[jjVGCkkVGGGGGGGGGHPPPPPPPPPLGGSkk[[[[[[[[[[[[[[",
"[[[[[[[[[[[[[[&&-44fDDlkVGGGGGGGGGHGHPPPPPPPLGGSkk[[[[[[[[[[[[[[",
"[[[[[[[[[[[[[[&&%%%skklkVGGGGGGGGGGGGLPPPPPPLGGSkk[[[[[[[[[[[[[[",
"[[[[[[[[[[[[[[&&3eeUYUcxFGGGGGGGGGGGGLLLPPPPLGGSkk[[[[[[[[[[[[[[",
"[[[[[[[[[[[[[[&&w/(//!ccFGGGGGGGGGGGGGGGPPPPLHGSkk[[[[[[[[[[[[[[",
"[[[[[[[[[[[[[[&-w////~DcFGGGGGGGGGGGGGGLPPPPLGGScl[[[[[[[[[[[[[[",
"[[[[[[[[[[[[[[[[[w000tccFGGGGGGGGGGGGGGGGLLPLGGSkk[[[[[[[[[[[[[[",
"[[[[[[[[[[[[[[[[[&&&%<jlFGGGGGGGGGGGGGGGGGLPLGGSkk[[[[[[[[[[[[[[",
"[[[[[[[[[[[[[[[[[&&-%5jkFGGGGn9uR^TGGGGGGGLPLGGSkk[[[[[[[[[[[[[[",
"[[[[[[[[[[[[[[[[[[[[[[kkFHGGH: X`])GGGGGGGLPLGGSkk[[[[[[[[[[[[[[",
"[[[[[[[[[[[[[[[[[[[[[[clFGGGG; .'])GGGGGGGLPLGGSkk[[[[[[[[[[[[[[",
"[[[[[[[[[[[[[[[[[[[[[[kkDAAAA*  @#qGGGGGGGHHHGGSkk[[[[[[[[[[[[[[",
"[[[[[[[[[[[[[[[[[[[[[[kklllxc*    OGGGGGGGGGGGGSkl[[[[[[[[[[[[[[",
"[[[[[[[[[[[[[[[[[[[[[[kklkllc1oooo+GGGGGGGGBBBBSkl[[[[[[[[[[[[[[",
"[[[[[[[[[[[[[[[[[[[[[[[[[[[lcxhhhgZGGGGGGGAkkkl[[[[[[[[[[[[[[[[[",
"[[[[[[[[[[[[[[[[[[[[[[[[[[[klklclkSGGGGGGGAxlkk[[[[[[[[[[[[[[[[[",
"[[[[[[[[[[[[[[[[[[[[[[[[[[[[[[[[kllSSSSSFSDxckl[[[[[[[[[[[[[[[[[",
"[[[[[[[[[[[[[[[[[[[[[[[[[[[[[[[[kllkkkkkkkkckkk[[[[[[[[[[[[[[[[[",
"[[[[[[[[[[[[[[[[[[[[[[[[[[[[[[[[kkklklkllkklklc[[[[[[[[[[[[[[[[["
};
