/* XPM */
static char *result[] = {
/* columns rows colors chars-per-pixel */
"64 64 100 2 ",
"   c #020202",
".  c #080807",
"X  c #060708",
"o  c #07080A",
"O  c #0A0B0C",
"+  c #0F1215",
"@  c #151515",
"#  c #111519",
"$  c #16191D",
"%  c gray10",
"&  c #1B1E23",
"*  c #1C2126",
"=  c #1E2329",
"-  c #202020",
";  c #21252B",
":  c #262A2D",
">  c #2B2B2A",
",  c #222931",
"<  c #282F37",
"1  c #2A313A",
"2  c #30353C",
"3  c #4F0604",
"4  c #4F1210",
"5  c #660501",
"6  c #2F3741",
"7  c #2F3842",
"8  c #323A45",
"9  c #37414D",
"0  c #38414E",
"q  c #3B4552",
"w  c #3E4956",
"e  c #3F4A58",
"r  c #4E424E",
"t  c #494C50",
"y  c #414D5B",
"u  c #44505F",
"i  c #455261",
"p  c #495666",
"a  c #4D5967",
"s  c #4E5C6D",
"d  c #515C6C",
"f  c #515F71",
"g  c #546172",
"h  c #566679",
"j  c #58677B",
"k  c #5A697D",
"l  c #9E0A06",
"z  c #9D1C1C",
"x  c #A10C09",
"c  c #8C3A42",
"v  c #9D525E",
"b  c #9C5C6B",
"n  c #5E6E83",
"m  c #5F7085",
"M  c #607086",
"N  c #63748B",
"B  c #67788F",
"V  c #677B91",
"C  c #6B7D95",
"Z  c #8B6F83",
"A  c #877185",
"S  c #6E819A",
"D  c #71859E",
"F  c #7386A0",
"G  c #768AA5",
"H  c #788CA7",
"J  c #7B8FAB",
"K  c #7B90AC",
"L  c #7F94B1",
"P  c #7E98B4",
"I  c #9B859C",
"U  c #8399B6",
"Y  c #859BB9",
"T  c #889FBE",
"R  c #999CB9",
"E  c #88A1BF",
"W  c #B9B9B8",
"Q  c #8CA4C4",
"!  c #8FA7C8",
"~  c #8FA9C9",
"^  c #98A5C5",
"/  c #93ABCC",
"(  c #96AFD1",
")  c #96B2D3",
"_  c #9AB3D6",
"`  c #9BB6D9",
"'  c #9DBADD",
"]  c #B3BAC3",
"[  c #A3C1E5",
"{  c #A5C4E9",
"}  c #A8C7ED",
"|  c #A9C8EE",
" . c #B2CEEF",
".. c #AECEF5",
"X. c #B0D0F7",
"o. c #B4D5FC",
"O. c #BBDAFD",
"+. c #D7E0EB",
"@. c #EEF1F5",
"#. c None",
/* pixels */
"#.#.#.#.#.#.#.#.#.#.#.#.#.#.#.#.#.#.#.#.#.#.#.#.#.#.#.#.#.#.#.#.#.#.#.#.#.#.#.#.#.#.#.#.#.#.#.#.#.#.#.#.#.#.#.#.#.#.#.#.#.#.#.#.",
"#.#.#.#.#.#.#.#.#.#.#.#.#.#.#.#.#.#.#.#.#.#.#.#.#.#.#.#.#.#.#.#.#.#.#.#.#.#.#.#.#.#.#.#.#.#.#.#.#.#.#.#.#.#.#.#.#.#.#.#.#.#.#.#.",
"#.#.#.#.#.#.#.#.#.#.#.#.#.#.#.#.#.#.#.#.#.#.#.#.#.#.#.#.#.#.#.#.#.#.#.#.#.#.#.#.#.#.#.#.#.#.#.#.#.#.#.#.#.#.#.#.#.#.#.#.#.#.#.#.",
"#.#.#.#.#.#.#.#.#.#.#.#.#.#.#.#.#.#.#.#.#.#.#.#.#.#.#.#.#.#.#.#.#.#.#.#.#.#.#.#.#.#.#.#.#.#.#.#.#.#.#.#.#.#.#.#.#.#.#.#.#.#.#.#.",
"#.#.#.#.#.#.#.#.#.#.#.#.#.#.#.#.#.#.#.#.#.#.#.#.#.#.#.#.#.#.#.#.#.#.#.#.#.#.#.#.#.#.#.#.#.#.#.#.#.#.#.#.#.#.#.#.#.#.#.#.#.#.#.#.",
"#.#.#.#.#.#.#.#.#.#.#.#.#.#.#.#.#.#.#.#.#.#.#.#.#.#.#.#.#.#.#.#.#.#.#.#.#.#.#.#.#.#.#.#.#.#.#.#.#.#.#.#.#.#.#.#.#.#.#.#.#.#.#.#.",
"#.#.#.#.#.#.#.#.#.#.#.#.#.#.#.#.#.#.#.#.#.#.#.#.#.#.#.#.#.#.#.#.#.#.#.#.#.#.#.#.#.#.#.#.#.#.#.#.#.#.#.#.#.#.#.#.#.#.#.#.#.#.#.#.",
"#.#.#.#.#.#.#.#.#.#.#.#.#.#.#.#.#.#.#.#.#.#.#.#.#.#.#.#.#.#.#.#.#.#.#.#.#.#.#.#.#.#.#.#.#.#.#.#.#.#.#.#.#.#.#.#.#.#.#.#.#.#.#.#.",
"#.#.#.#.#.#.#.#.#.#.#.#.#.#.#.#.#.#.#.#.#.#.#.#.#.#.#.#.#.#.#.#.#.#.#.#.#.#.#.#.#.#.#.#.#.#.#.#.#.#.#.#.#.#.#.#.#.#.#.#.#.#.#.#.",
"#.#.#.#.#.#.#.#.#.#.#.#.#.#.#.#.#.#.#.#.#.#.#.#.#.#.#.#.#.#.#.#.#.#.#.#.#.#.#.#.#.#.#.#.#.#.#.#.#.#.#.#.#.#.#.#.#.#.#.#.#.#.#.#.",
"#.#.#.#.#.#.#.#.#.#.#.#.#.#.#.#.#.#.#.#.#.#.#.#.#.#.#.#.#.#.#.#.#.#.#.#.#.#.#.#.#.#.#.#.#.#.#.#.#.#.#.#.#.#.#.#.#.#.#.#.#.#.#.#.",
"#.#.#.#.#.#.#.#.#.#.#.#.#.#.#.#.#.#.#.#.#.#.#.#.#.#.#.#.#.#.#.#.#.#.#.#.#.#.#.#.#.#.#.#.#.#.#.#.#.#.#.#.#.#.#.#.#.#.#.#.#.#.#.#.",
"#.#.#.#.#.#.#.#.#.#.#.#.#.#.#.#.#.#.#.#.#.#.#.#.#.#.#.#.#.#.#.#.#.#.#.#.#.#.#.#.#.#.#.#.#.#.#.#.#.#.#.#.#.#.#.#.#.#.#.#.#.#.#.#.",
"#.#.#.#.#.#.#.#.#.#.#.#.#.#.#.#.#.#.#.#.#.#.#.#.#.#.#.#.#.#.#.#.#.#.#.#.#.#.#.#.#.#.#.#.#.#.#.#.#.#.#.#.#.#.#.#.#.#.#.#.#.#.#.#.",
"#.#.#.#.#.#.#.#.#.#.#.#.#.#.#.#.#.#.#.#.#.#.#.#.#.#.#.#.#.#.#.#.#.#.#.#.#.#.#.#.#.#.#.#.#.#.#.#.#.#.#.#.#.#.#.#.#.#.#.#.#.#.#.#.",
"#.#.#.#.#.#.#.#.#.#.#.#.#.#.#.#.#.#.#.#.#.#.#.#.#.#.#.#.#.#.#.#.#.#.#.#.#.#.#.#.#.#.#.#.#.#.#.#.#.#.#.#.#.#.#.#.#.#.#.#.#.#.#.#.",
"#.#.#.#.#.#.#.#.#.#.#.#.#.#.#.#.#.#.#.#.#.#.#.#.#.#.#.#.#.#.#.#.#.#.#.#.#.#.#.#.#.#.#.#.#.#.#.#.#.#.#.#.#.#.#.#.#.#.#.#.#.#.#.#.",
"#.#.#.#.#.#.#.#.#.#.#.#.#.#.#.#.#.#.#.#.#.#.#.#.#.#.#.#.#.#.#.#.#.#.#.#.#.#.#.#.#.#.#.#.#.#.#.#.#.#.#.#.#.#.#.#.#.#.#.#.#.#.#.#.",
"#.#.#.#.#.#.#.#.#.#.#.#.#.#.#.#.#.#.#.#.#.#.#.#.#.#.#.#.#.#.#.#.#.#.#.#.#.#.#.#.#.#.#.#.#.#.#.#.#.#.#.#.#.#.#.#.#.#.#.#.#.#.#.#.",
"#.#.#.#.#.#.#.#.#.#.#.#.#.#.#.#.#.#.#.#.#.#.#.#.#.#.#.#.#.#.#.#.#.#.#.#.. .   .     . #.#.#.#.#.#.#.#.#.#.#.#.#.#.#.#.#.#.#.#.#.",
"#.#.#.#.#.#.#.#.#.#.#.#.#.#.#.#.#.#.#.#.#.#.#.#.#.#.#.#.#.#.#.#.#.#.#.#.6 6 8 8 8 8 8 #.#.#.#.#.#.#.#.#.#.#.#.#.#.#.#.#.#.#.#.#.",
"#.#.#.#.#.#.#.#.#.#.#.#.#.#.#.#.#.#.#.#.#.#.#.#.#.#.#.#.#.#.          1 U Q ( ( ) ) _ 8               #.#.#.#.#.#.#.#.#.#.#.#.#.",
"#.#.#.#.#.#.#.#.#.#.#.#.#.#.#.#.#.#.#.#.#.#.#.#.#.#.#.#.#.#.< 6 y y e k ! / _ _ ( ( _ i * 0 u p s s y #.#.#.#.#.#.#.#.#.#.#.#.#.",
"#.#.#.#.#.#.          #.#.#.#.#.#.#.#.#.#.#.#.#.#.#.#.#.@ o s V / _ ) ) _ _ _ ( / ( _ M p P ` X.o.o.Q O @ #.#.#.#.#.#.#.#.#.#.#.",
"#.#.#.#.#.#.  & 8 8 8 = #.#.#.#.#.#.#.#.#.#.#.#.#.#.#.#.8 8 F U ( _ _ _ _ _ _ Y S E _ n i Y ` [ { } ( j p #.#.#.#.#.#.#.#.#.#.#.",
"#.#.#.#.#.#.  8 n n n ,     o #.#.#.#.#.#.#.#.#.-     o p B / _ _ _ _ _ _ _ _ G s K _ m i Y ) ) ) ` ` ' S o   X #.#.#.#.#.#.#.#.",
"#.#.#.#.#.#.#.2 1 p n p q q q ; #.#.#.#.#.% % @ d N B N J U ( _ / / _ ! C U _ H s K _ P S V V ~ ( E ~ } ` G G G g @ #.#.#.#.#.#.",
"#.#.#.#.#.#.#.#.  8 n n n M j &   #.#.#.#.X     j ' ` ` _ _ _ _ Q Q _ U f C _ H s K _ ~ Q h p Q / P E ..o.o.o.O.k   #.#.#.#.#.#.",
"#.#.#.#.#.#.#.#.#.* = a m D G N g o     = i j S Y _ _ _ _ _ _ / C F _ Y f C _ G s K ) S k F P {  .+.] q M o.o.o.j   #.#.#.#.#.#.",
"#.#.#.#.#.#.#.#.#.#.  y n H U U D & O O < N J ) _ _ _ _ ( ( _ / N B ( Y f C _ H s K ` m e E ' ..O.@.W   w o.o.o.M # #.#.#.#.#.#.",
"#.#.#.#.#.#.#.#.#.#.#.: & V U U L C C C S K F C U _ _ _ G C / / n M ( Y f C _ H s K ) m p P ` ..[ t >   e o.o.o.[ ( a O #.#.#.#.",
"#.#.#.#.#.#.#.#.#.#.#.@ X B U U U U U U U U G m U _ _ ( C M ! ^ j n ( T f C _ H s K ` m i E ` ..` : # $ s X.o.X.o.o.p   #.#.#.#.",
"#.#.#.#.#.#.#.#.#.#.#.@ X V U U U U U U U Y U C T _ ) _ S n ! / j n ( Y f C _ U s J _ m i Y ` ` ) Q Q ' { o.| ' | o.p   #.#.#.#.",
"#.#.#.#.#.#.#.#.#.#.#.: & C U U P C C C D H H H E _ _ _ H C ! ^ j M ( Y f C _ F s L _ n i P ) ) ) ) ` ..X.X.{ ` ) ) a O #.#.#.#.",
"#.#.#.#.#.#.#.#.#.O X y n H U U D & O O 1 N J _ _ _ _ _ ( ( _ / M B ( Y f C _ G s J ` m i P ` ) ( U Y ' ' ' ' ' j + #.#.#.#.#.#.",
"#.#.#.#.#.#.#.#.#.= = p n D F N f X     ; y h D T _ _ ) ` ) _ ( F G _ Y f C _ G s J ` C n G P ( ^ B A I I I I I r   #.#.#.#.#.#.",
"#.#.#.#.#.#.#.#.  0 k n n n k $   #.#.#.#.o .   h ' _ _ _ _ _ _ _ _ _ Y f B _ H s K ` / Q h p Q R z l l l x x x 3   #.#.#.#.#.#.",
"#.#.#.#.#.#.#.2 1 p m i q q q : #.#.#.#.#.% @ @ d N N N J Y ( _ _ _ _ ^ C U _ H s J ` L D V V ~ ^ b v v c 5 5 5 4 % #.#.#.#.#.#.",
"#.#.#.#.#.#.  6 n n m :     O #.#.#.#.#.#.#.#.#.-   . X p B ! _ _ _ _ _ _ _ _ H s J ` m i P ) ) ) _ ` ' S       #.#.#.#.#.#.#.#.",
"#.#.#.#.#.#.  & 8 8 8 ; #.#.#.#.#.#.#.#.#.#.#.#.#.#.#.#.8 0 H T ( _ _ _ _ _ _ T F Q ) m i Y ` { { } ) h s #.#.#.#.#.#.#.#.#.#.#.",
"#.#.#.#.#.#.          #.#.#.#.#.#.#.#.#.#.#.#.#.#.#.#.#.@ o n G / _ _ _ _ _ _ ) ` _ _ M i U ` X.o.o.Q O @ #.#.#.#.#.#.#.#.#.#.#.",
"#.#.#.#.#.#.#.#.#.#.#.#.#.#.#.#.#.#.#.#.#.#.#.#.#.#.#.#.#.#.6 8 y y y k Q / / ( ( / / y & 9 u p s s p #.#.#.#.#.#.#.#.#.#.#.#.#.",
"#.#.#.#.#.#.#.#.#.#.#.#.#.#.#.#.#.#.#.#.#.#.#.#.#.#.#.#.#.#.          1 U Q Q Q Q Q Q 8               #.#.#.#.#.#.#.#.#.#.#.#.#.",
"#.#.#.#.#.#.#.#.#.#.#.#.#.#.#.#.#.#.#.#.#.#.#.#.#.#.#.#.#.#.#.#.#.#.#.#.8 6 8 8 8 8 8 2 #.#.#.#.#.#.#.#.#.#.#.#.#.#.#.#.#.#.#.#.",
"#.#.#.#.#.#.#.#.#.#.#.#.#.#.#.#.#.#.#.#.#.#.#.#.#.#.#.#.#.#.#.#.#.#.#.#..     .     O #.#.#.#.#.#.#.#.#.#.#.#.#.#.#.#.#.#.#.#.#.",
"#.#.#.#.#.#.#.#.#.#.#.#.#.#.#.#.#.#.#.#.#.#.#.#.#.#.#.#.#.#.#.#.#.#.#.#.#.#.#.#.#.#.#.#.#.#.#.#.#.#.#.#.#.#.#.#.#.#.#.#.#.#.#.#.",
"#.#.#.#.#.#.#.#.#.#.#.#.#.#.#.#.#.#.#.#.#.#.#.#.#.#.#.#.#.#.#.#.#.#.#.#.#.#.#.#.#.#.#.#.#.#.#.#.#.#.#.#.#.#.#.#.#.#.#.#.#.#.#.#.",
"#.#.#.#.#.#.#.#.#.#.#.#.#.#.#.#.#.#.#.#.#.#.#.#.#.#.#.#.#.#.#.#.#.#.#.#.#.#.#.#.#.#.#.#.#.#.#.#.#.#.#.#.#.#.#.#.#.#.#.#.#.#.#.#.",
"#.#.#.#.#.#.#.#.#.#.#.#.#.#.#.#.#.#.#.#.#.#.#.#.#.#.#.#.#.#.#.#.#.#.#.#.#.#.#.#.#.#.#.#.#.#.#.#.#.#.#.#.#.#.#.#.#.#.#.#.#.#.#.#.",
"#.#.#.#.#.#.#.#.#.#.#.#.#.#.#.#.#.#.#.#.#.#.#.#.#.#.#.#.#.#.#.#.#.#.#.#.#.#.#.#.#.#.#.#.#.#.#.#.#.#.#.#.#.#.#.#.#.#.#.#.#.#.#.#.",
"#.#.#.#.#.#.#.#.#.#.#.#.#.#.#.#.#.#.#.#.#.#.#.#.#.#.#.#.#.#.#.#.#.#.#.#.#.#.#.#.#.#.#.#.#.#.#.#.#.#.#.#.#.#.#.#.#.#.#.#.#.#.#.#.",
"#.#.#.#.#.#.#.#.#.#.#.#.#.#.#.#.#.#.#.#.#.#.#.#.#.#.#.#.#.#.#.#.#.#.#.#.#.#.#.#.#.#.#.#.#.#.#.#.#.#.#.#.#.#.#.#.#.#.#.#.#.#.#.#.",
"#.#.#.#.#.#.#.#.#.#.#.#.#.#.#.#.#.#.#.#.#.#.#.#.#.#.#.#.#.#.#.#.#.#.#.#.#.#.#.#.#.#.#.#.#.#.#.#.#.#.#.#.#.#.#.#.#.#.#.#.#.#.#.#.",
"#.#.#.#.#.#.#.#.#.#.#.#.#.#.#.#.#.#.#.#.#.#.#.#.#.#.#.#.#.#.#.#.#.#.#.#.#.#.#.#.#.#.#.#.#.#.#.#.#.#.#.#.#.#.#.#.#.#.#.#.#.#.#.#.",
"#.#.#.#.#.#.#.#.#.#.#.#.#.#.#.#.#.#.#.#.#.#.#.#.#.#.#.#.#.#.#.#.#.#.#.#.#.#.#.#.#.#.#.#.#.#.#.#.#.#.#.#.#.#.#.#.#.#.#.#.#.#.#.#.",
"#.#.#.#.#.#.#.#.#.#.#.#.#.#.#.#.#.#.#.#.#.#.#.#.#.#.#.#.#.#.#.#.#.#.#.#.#.#.#.#.#.#.#.#.#.#.#.#.#.#.#.#.#.#.#.#.#.#.#.#.#.#.#.#.",
"#.#.#.#.#.#.#.#.#.#.#.#.#.#.#.#.#.#.#.#.#.#.#.#.#.#.#.#.#.#.#.#.#.#.#.#.#.#.#.#.#.#.#.#.#.#.#.#.#.#.#.#.#.#.#.#.#.#.#.#.#.#.#.#.",
"#.#.#.#.#.#.#.#.#.#.#.#.#.#.#.#.#.#.#.#.#.#.#.#.#.#.#.#.#.#.#.#.#.#.#.#.#.#.#.#.#.#.#.#.#.#.#.#.#.#.#.#.#.#.#.#.#.#.#.#.#.#.#.#.",
"#.#.#.#.#.#.#.#.#.#.#.#.#.#.#.#.#.#.#.#.#.#.#.#.#.#.#.#.#.#.#.#.#.#.#.#.#.#.#.#.#.#.#.#.#.#.#.#.#.#.#.#.#.#.#.#.#.#.#.#.#.#.#.#.",
"#.#.#.#.#.#.#.#.#.#.#.#.#.#.#.#.#.#.#.#.#.#.#.#.#.#.#.#.#.#.#.#.#.#.#.#.#.#.#.#.#.#.#.#.#.#.#.#.#.#.#.#.#.#.#.#.#.#.#.#.#.#.#.#.",
"#.#.#.#.#.#.#.#.#.#.#.#.#.#.#.#.#.#.#.#.#.#.#.#.#.#.#.#.#.#.#.#.#.#.#.#.#.#.#.#.#.#.#.#.#.#.#.#.#.#.#.#.#.#.#.#.#.#.#.#.#.#.#.#.",
"#.#.#.#.#.#.#.#.#.#.#.#.#.#.#.#.#.#.#.#.#.#.#.#.#.#.#.#.#.#.#.#.#.#.#.#.#.#.#.#.#.#.#.#.#.#.#.#.#.#.#.#.#.#.#.#.#.#.#.#.#.#.#.#.",
"#.#.#.#.#.#.#.#.#.#.#.#.#.#.#.#.#.#.#.#.#.#.#.#.#.#.#.#.#.#.#.#.#.#.#.#.#.#.#.#.#.#.#.#.#.#.#.#.#.#.#.#.#.#.#.#.#.#.#.#.#.#.#.#.",
"#.#.#.#.#.#.#.#.#.#.#.#.#.#.#.#.#.#.#.#.#.#.#.#.#.#.#.#.#.#.#.#.#.#.#.#.#.#.#.#.#.#.#.#.#.#.#.#.#.#.#.#.#.#.#.#.#.#.#.#.#.#.#.#."
};
