/* XPM */
static char *result[] = {
/* columns rows colors chars-per-pixel */
"64 64 47 1 ",
"  c #75C9D4",
". c #7ACAD5",
"X c #7CCED8",
"o c #82CCD6",
"O c #84CED8",
"+ c #8CD0D7",
"@ c #84D2DD",
"# c #8AD3DD",
"$ c #95D3DB",
"% c #9CD5DD",
"& c #A2D7DF",
"* c #A7D8DF",
"= c #8AD7E0",
"- c #8FD9E3",
"; c #95DDE5",
": c #9BDFE7",
"> c #9ADFE8",
", c #A3D7E0",
"< c #A6D9E0",
"1 c #ACDAE1",
"2 c #B4DDE4",
"3 c #B9DEE5",
"4 c #9CE2EA",
"5 c #A3E1E7",
"6 c #A2E5ED",
"7 c #ABE6EC",
"8 c #BDE0E6",
"9 c #B3E7EC",
"0 c #BFE0E8",
"q c #B5E9EE",
"w c #C1E1E7",
"e c #C5E3E9",
"r c #CCE5EA",
"t c #C5E8ED",
"y c #CBE8EE",
"u c #D2E7EC",
"i c #D5E9ED",
"p c #DAE9EE",
"a c #D4EDF1",
"s c #DEEFF1",
"d c #E2EEEF",
"f c #E2EEF0",
"g c #E6F0F1",
"h c #ECF1F3",
"j c #F4F4F4",
"k c #F8F5F5",
"l c None",
/* pixels */
"llllllllllllllllllllllllllllllllllllllllllllllllllllllllllllllll",
"llllllllllllllllllllllllllllllllllllllllllllllllllllllllllllllll",
"llllllllllllllllllllllllllllllllllllllllllllllllllllllllllllllll",
"llllllllllllllllllllllllllllllllllllllllllllllllllllllllllllllll",
"llllllllllllllllllllllllllllllllllllllllllllllllllllllllllllllll",
"llllllllllllllllllllllllllllllllllllllllllllllllllllllllllllllll",
"llllllllllllllllllllllllllllllllllllllllllllllllllllllllllllllll",
"llllllllllllllllllllllllllllllllllllllllllllllllllllllllllllllll",
"llllllllllllllllllllllllllllllllllllllllllllllllllllllllllllllll",
"llllllllllllllllllllllllllllllllllllllllllllllllllllllllllllllll",
"llllllllllllllllllllllllllllllllllllllllllllllllllllllllllllllll",
"llllllllllllllllllllllllllllllllllllllllllllllllllllllllllllllll",
"llllllllllllllllllllllllllllllllllllllllllllllllllllllllllllllll",
"llllllllllllllllllllllllllllllllllllllllllllllllllllllllllllllll",
"llllllllllllllllllllllllllllllllllllllllllllllllllllllllllllllll",
"llllllllllllllllllllllllllllllllllllllllllllllllllllllllllllllll",
"llllllllllllllllllllllllllllllllllllllllllllllllllllllllllllllll",
"llllllllllllllllllllllllllllllllllllllllllllllllllllllllllllllll",
"llllllllllllllllllllllllllllllllllllllllllllllllllllllllllllllll",
"llllllllllllllllllllllllllllllllllllllllllllllllllllllllllllllll",
"llllllllllllllllllllllllllllllllllllllllllllllllllllllllllllllll",
"lllllllllllllllllllllllll1$$wryew3%<llllllllllllllllllllllllllll",
"llllllllllllllllllllll23eir<uspppiuur,+lllllllllllllllllllllllll",
"llllllllllllllllllll*3upppr3ippppppppw18&lllllllllllllllllllllll",
"lllllllllllllllllll*%0eeepe0ppupipire3&*,<llllllllllllllllllllll",
"llllllllllllllllllwuiu3&11&&11111128222uiiw<llllllllllllllllllll",
"llllllllllllllllleppppi1rrrrrrrrrr33pppppppe1lllllllllllllllllll",
"llllllllllllllll2ippppe3ppdpppppppe2ppppppppwlllllllllllllllllll",
"lllllllllllllll122eeup20ppppppppppu2ippprre<11llllllllllllllllll",
"llllllllllllll%eie%222&3uruuruuuruu2122w213<ri8lllllllllllllllll",
"llllllllllllll3ppw2pueer311*1*$1*12rreeuppp2wpr2llllllllllllllll",
"llllllllllllllupp2rppppppppppu1uppippppppppr2ppwllllllllllllllll",
"llllllllllllleppp1rppppppppppp3ippppppppippi1iprllllllllllllllll",
"lllllllllllll12rr0ppppppppppppeeppppppppdiir1w33*lllllllllllllll",
"llllllllllller<1&*000wuppipppp02ppppew3we81**wwe8lllllllllllllll",
"llllllllllll3e1pupw2330111,111,%111e33211weweiiiulllllllllllllll",
"lllllllllllliewpppppppiruu11urrururir33w8838311285llllllllllllll",
"lllllllllllle2upppppppppppwepppppppe3pdhjjjhrrddi*llllllllllllll",
"lllllllllllli1uppppppppppp0eppppppi2fjjjjjjarjieii*lllllllllllll",
"llllllllllllp<uppppppppppp3rpppppprrjjjjjjgwhw$%2relllllllllllll",
"lllllllllllwi1rpppppppppppeepppppp3gjjjjjjfpg+ o*3dwllllllllllll",
"lllllllllll$<,3eww0wupppps33pppue32hjjjjjjrgr   $9i8llllllllllll",
"llllllllllleiiw122221222221*223r22ujjjjjjjwgr   O*udllllllllllll",
"lllllllllllppppspppp1rrrrrruurupppgjjjjjjjhjr   O2yjllllllllllll",
"lllllllllllppppppppp1upppppppppppphjjjjjjjjjr   O*ijllllllllllll",
"llllllll777apppppppp1upppppppppppphjjjjjjjjjr   O*is9lllllllllll",
"lllllll6667upppppppp1updppppppsppphjjjjjjkkkr   +5ia66qlllllllll",
"llllll56666yre332333%2323333332833rrrrruuiii9.  O*ia6667llllllll",
"llllll+=446676;;;;;;;;;;;4;;;;;;;;;;;;::<>>>>;;;459q66667lllllll",
"lllllll..@#-446666666666666666666666666666666666566666464lllllll",
"llllllll..  XX=;466666666666666666666666666666666666464;@Ollllll",
"llllllllllO..  .=4666666666466666664666666664;;444#@@X. .lllllll",
"llllllllllllllO. @;44444444444>;>;===#=@===XX .        .llllllll",
"llllllllllllllll+O.XX.X.XXX. X...X           ..   O#..$lllllllll",
"llllllllllllllllll..  .. . ... ... ....... Ollllllllllllllllllll",
"llllllllllllllllllllllllllllllllllllllllllllllllllllllllllllllll",
"llllllllllllllllllllllllllllllllllllllllllllllllllllllllllllllll",
"llllllllllllllllllllllllllllllllllllllllllllllllllllllllllllllll",
"llllllllllllllllllllllllllllllllllllllllllllllllllllllllllllllll",
"llllllllllllllllllllllllllllllllllllllllllllllllllllllllllllllll",
"llllllllllllllllllllllllllllllllllllllllllllllllllllllllllllllll",
"llllllllllllllllllllllllllllllllllllllllllllllllllllllllllllllll",
"llllllllllllllllllllllllllllllllllllllllllllllllllllllllllllllll",
"llllllllllllllllllllllllllllllllllllllllllllllllllllllllllllllll"
};
