/* XPM */
static char *result[] = {
/* columns rows colors chars-per-pixel */
"64 64 158 2 ",
"   c #010101",
".  c #090706",
"X  c #070807",
"o  c #05060A",
"O  c #0B0A0B",
"+  c #04090C",
"@  c #0F120F",
"#  c #0C0F13",
"$  c #070C10",
"%  c #100F10",
"&  c #091016",
"*  c #0B131A",
"=  c #131313",
"-  c #171817",
";  c #181817",
":  c #131A1F",
">  c #1B1B1B",
",  c #141518",
"<  c #25201E",
"1  c #0F1B26",
"2  c #131E25",
"3  c #131E2A",
"4  c #1B2327",
"5  c #162935",
"6  c #212122",
"7  c #2A2A2B",
"8  c #292626",
"9  c #2F302F",
"0  c #283238",
"q  c #343333",
"w  c #383634",
"e  c #373836",
"r  c #4F3A26",
"t  c #4D3C2B",
"y  c #594129",
"u  c #5B4A38",
"i  c #614C34",
"p  c #624D3B",
"a  c #193241",
"s  c #263A46",
"d  c #2B434E",
"f  c #344347",
"g  c #30434E",
"h  c #2E4951",
"j  c #324C59",
"k  c #304B53",
"l  c #244C61",
"z  c #2C4F65",
"x  c #2C556D",
"c  c #2A5066",
"v  c #2D5773",
"b  c #365C73",
"n  c #2F607B",
"m  c #346079",
"M  c #5F5E5B",
"N  c #605E5E",
"B  c #73624E",
"V  c #5F6160",
"C  c #55717C",
"Z  c #606060",
"A  c #896E4A",
"S  c #9F794A",
"D  c #91704A",
"F  c #A0794A",
"G  c #A0774A",
"H  c #BE9A6A",
"J  c #C2925A",
"K  c #CF9D61",
"L  c #D3AC79",
"P  c #FFBF6D",
"I  c #FBBD70",
"U  c #FFC06F",
"Y  c #FEC272",
"T  c #F2C07A",
"R  c #336987",
"E  c #3B7C9E",
"W  c #3D7CA1",
"Q  c #4D7A8D",
"!  c #44708A",
"~  c #427D9C",
"^  c #3C85A8",
"/  c #538295",
"(  c #5A8B9C",
")  c #428AAF",
"_  c #4282A4",
"`  c #438CB3",
"'  c #4696BC",
"]  c #4C95BA",
"[  c #4B95B9",
"{  c #688DA0",
"}  c #6796A7",
"|  c #65A5B8",
" . c #499DC6",
".. c #4BA1CD",
"X. c #4CA7D3",
"o. c #4CAAD5",
"O. c #51ADDD",
"+. c #52ACD7",
"@. c #71B7CD",
"#. c #54BAEB",
"$. c #55B6E6",
"%. c #56BFF2",
"&. c #56C1F5",
"*. c #56C7FE",
"=. c #58C7FE",
"-. c #56C9FE",
";. c #5ACAFE",
":. c #64CEFC",
">. c #6CCFFD",
",. c #6AD1FC",
"<. c #67D1FC",
"1. c #72D6FD",
"2. c #7AD9FE",
"3. c #73D8FC",
"4. c #869184",
"5. c #BFBDB6",
"6. c #F4C480",
"7. c #FCCB8A",
"8. c #FCCB87",
"9. c #FCCE90",
"0. c #FBD49B",
"q. c #C1C0BE",
"w. c #FBDCAC",
"e. c #FAE4BF",
"r. c #9FD4DD",
"t. c #BFC0C0",
"y. c #A4CAD6",
"u. c #AED6D3",
"i. c #86DFFE",
"p. c #89DEFD",
"a. c #A2D8E1",
"s. c #A6D7E7",
"d. c #85E1FE",
"f. c #89E2FE",
"g. c #9CE4FB",
"h. c #A4E5FB",
"j. c #A7E7FA",
"k. c #B4E5F6",
"l. c #BAEBFA",
"z. c #C1C1C1",
"x. c #CFCECE",
"c. c #FBECD3",
"v. c #CDEAF5",
"b. c #CDF2FB",
"n. c #D6F3FC",
"m. c #DBF4FB",
"M. c #EBEBEB",
"N. c #E2E4E2",
"B. c #F0EFED",
"V. c #ECF0ED",
"C. c #FDFAEF",
"Z. c #F9F7EF",
"A. c #E0F1F3",
"S. c #F5F3F3",
"D. c #FDFBF3",
"F. c #F3FCFD",
"G. c #FFFFFF",
"H. c None",
/* pixels */
"H.H.H.H.H.H.H.H.H.H.H.H.H.H.H.H.H.H.H.H.H.H.H.H.H.H.H.H.H.H.H.H.H.H.H.H.H.H.H.H.H.H.H.H.H.H.H.H.H.H.H.H.H.H.H.H.H.H.H.H.H.H.H.H.",
"H.H.H.H.H.H.H.H.H.H.H.H.H.H.H.H.H.H.H.H.H.H.H.H.H.H.H.H.H.H.H.H.H.H.H.H.H.H.H.H.H.H.H.H.H.H.H.H.H.H.H.H.H.H.H.H.H.H.H.H.H.H.H.H.",
"H.H.H.H.H.H.H.H.H.H.H.H.H.H.H.H.H.H.H.H.H.H.H.H.H.H.H.H.H.H.H.H.H.H.H.H.H.H.H.H.H.H.H.H.H.H.H.H.H.H.H.H.H.H.H.H.H.H.H.H.H.H.H.H.",
"H.H.H.H.H.H.H.H.H.H.H.H.H.H.H.H.H.H.H.H.H.H.H.H.H.H.H.H.H.H.H.H.H.H.H.H.H.H.H.H.H.H.H.H.H.H.H.H.H.H.H.H.H.H.H.H.H.H.H.H.H.H.H.H.",
"H.H.H.H.H.H.H.H.H.H.H.H.H.H.H.H.H.H.H.H.H.H.H.H.H.H.H.H.H.H.H.H.H.H.H.H.H.H.H.H.H.H.H.H.H.H.H.H.H.H.H.H.H.H.H.H.H.H.H.H.H.H.H.H.",
"H.H.H.H.H.H.H.H.H.H.H.H.H.H.H.H.H.H.H.H.H.H.H.H.H.H.H.H.H.H.H.H.H.H.H.H.H.H.H.H.H.H.H.H.H.H.H.H.H.H.H.H.H.H.H.H.H.H.H.H.H.H.H.H.",
"H.H.H.H.H.H.H.H.H.H.H.H.H.H.H.H.H.H.H.H.H.H.H.H.H.H.H.H.H.H.H.H.H.H.H.H.H.H.H.H.H.H.H.H.H.H.H.H.H.H.H.H.H.H.H.H.H.H.H.H.H.H.H.H.",
"H.H.H.H.H.H.H.H.H.H.H.H.H.H.H.H.H.H.H.H.H.H.H.H.H.H.H.H.H.H.H.H.H.H.H.H.H.H.H.H.H.H.H.H.H.H.H.H.H.H.H.H.H.H.H.H.H.H.H.H.H.H.H.H.",
"H.H.H.H.H.H.H.H.H.H.H.H.H.H.H.H.H.H.H.H.H.H.H.H.H.H.H.H.H.H.H.H.H.H.H.H.H.H.H.H.H.H.H.H.H.H.H.H.H.H.H.H.H.H.H.H.H.H.H.H.H.H.H.H.",
"H.H.H.H.H.H.H.H.H.H.H.H.H.H.H.H.H.H.H.H.H.H.H.H.H.H.H.H.H.H.H.H.H.H.H.H.H.H.H.H.H.H.H.H.H.H.H.H.H.H.H.H.H.H.H.H.H.H.H.H.H.H.H.H.",
"H.H.H.H.H.H.H.H.H.H.H.H.H.H.H.H.H.H.H.H.H.H.H.H.H.H.H., = O # = = O = % O = = H.H.H.H.H.H.H.H.H.H.H.H.H.H.H.H.H.H.H.H.H.H.H.H.H.",
"H.H.H.H.H.H.H.H.H.H.H.H.H.H.H.H.H.H.H.H.H.H.H.H.H.H.H.                        , H.H.H.H.H.H.H.H.H.H.H.H.H.H.H.H.H.H.H.H.H.H.H.H.",
"H.H.H.H.H.H.H.H.H.H.H.H.H.H.H.H.H.H.H.H.H.H.H.H.H.H.H.s a a a a a 5 a a a a a s H.H.H.H.H.H.H.H.H.H.H.H.H.H.H.H.H.H.H.H.H.H.H.H.",
"H.H.H.H.H.H.H.H.H.H.H.H.H.H.H.H.H.H.H.H.H.H.O   X   5 $.%.%.%.%.&.&.&.%.%.%.&._ o X X   = H.H.H.H.H.H.H.H.H.H.H.H.H.H.H.H.H.H.H.",
"H.H.H.H.H.H.H.H.H.H.H.H.H.H.H.H.H.H.H.H.H.H.        5 #.;.-.*.=.;.-.*.=.*.*.;.^         = H.H.H.H.H.H.H.H.H.H.H.H.H.H.H.H.H.H.H.",
"H.H.H.H.H.H.H.H.H.H.H.H.H.H.H.H.H.H.H.H.= g ~ E E E ) &.*.*.-.*.-.-.-.-.-.=.;.O.E E W W ! 6 ; H.H.H.H.H.H.H.H.H.H.H.H.H.H.H.H.H.",
"H.H.H.H.H.H.H.H.H.H.H.H.H.H.H.H.H.H.H.O   a =.;.=.;.;.-.=.*.=.*.=.=.*.*.*.=.*.*.;.;.-.-. .+   H.H.H.H.H.H.H.H.H.H.H.H.H.H.H.H.H.",
"H.H.H.H.H.H.H.H.H.H.H.H.H.H.H.H.H.H.H.0 3 c &.;.;.;.;.:.:.;.;.;.;.;.;.=.;.;.;.;.;.;.;.-. .5 4 H.H.H.H.H.H.H.H.H.H.H.H.H.H.H.H.H.",
"H.H.H.H.H.H.H.H.H.H.H.H.H.H.H.H.H.. # [ #.#.-.;.1.i.i.i.i.i.2.i.i.i.i.i.i.i.i.i.d.i.:.*.&.#.$.z . = H.H.H.H.H.H.H.H.H.H.H.H.H.H.",
"H.H.H.H.H.H.H.H.H.H.H.H.H.H.H.H.H.  + ' -.*.*.*.1.i.i.i.i.i.i.i.i.i.i.i.i.i.i.i.i.i.:.*.*.*.=.l   O H.H.H.H.H.H.H.H.H.H.H.H.H.H.",
"H.H.H.H.H.H.H.H.H.H.H.H.H.H.H.H.H.  o ' -.;.1.1.2.f.i.i.i.i.i.i.i.i.i.i.i.i.i.i.i.i.1.,.,.;.*.l   O H.H.H.H.H.H.H.H.H.H.H.H.H.H.",
"H.H.H.H.H.H.H.H.H.H.H.H.H.H.H.H.H.  o ' -.:.i.i.i.i.i.i.i.i.d.i.i.i.i.i.i.i.i.f.i.i.d.f.2.=.=.l   O H.H.H.H.H.H.H.H.H.H.H.H.H.H.",
"H.H.H.H.H.H.H.H.H.H.H.H.H.H.H.H.H.* 1  .-.:.d.i.f.i.i.i.f.i.i.i.f.i.i.i.i.i.i.i.i.i.i.i.2.-.-.v & 3 H.H.H.H.H.H.H.H.H.H.H.H.H.H.",
"H.H.H.H.H.H.H.H.H.H.H.H.H.H., X z +.O.&.-.:.i.i.i.i.i.i.i.i.i.i.i.i.i.i.i.f.i.i.i.i.f.i.2.-.-.$.o.] : O H.H.H.H.H.H.H.H.H.H.H.H.",
"H.H.H.H.H.H.H.H.H.H.H.H.H.H.O   l ;.-.-.*.:.i.i.i.d.d.d.f.f.d.i.i.i.i.i.i.d.f.f.i.i.i.i.3.=.&.;.;.X.#   H.H.H.H.H.H.H.H.H.H.H.H.",
"H.H.H.H.H.H.H.H.H.H.H.H.H.H.O   l ;.;.:.<.1.i.p.j.k.a.( / @.f.i.i.i.g.l.k.} / | i.i.p.i.2.,.,.;.*.X.&   H.H.H.H.H.H.H.H.H.H.H.H.",
"H.H.H.H.H.H.H.H.H.H.H.H.H.H.O   j =.=.2.d.d.p.p.n.G.x.@   Q f.i.i.i.l.G.V.q   j p.i.i.i.f.d.p.<.-.X.#   H.H.H.H.H.H.H.H.H.H.H.H.",
"H.H.H.H.H.H.H.H.H.H.H.H.H.H.O   l -.-.2.i.i.i.d.v.D.z.@   Q f.i.i.i.k.S.N.7   j i.d.d.d.p.p.i.<.-.X.&   H.H.H.H.H.H.H.H.H.H.H.H.",
"H.H.H.H.H.H.H.H.H.H.H.H.H.H.O   l *.-.2.d.i.p.i.C e 7 o   Q f.d.d.d.} e e O   j i.i.p.i.i.i.i.,.-.X.&   H.H.H.H.H.H.H.H.H.H.H.H.",
"H.H.H.H.H.H.H.H.H.H.H.H.H.H.O   l *.-.2.i.i.i.p.h         Q d.i.i.d.Q         h p.p.i.i.i.i.i.,.-.X.&   H.H.H.H.H.H.H.H.H.H.H.H.",
"H.H.H.H.H.H.H.H.H.H.H.H.H.H.O   l *.&.2.i.i.f.p.Q d f t r 4.u.u.u.u.4.r r f d Q i.f.i.i.i.i.i.,.-.X.&   H.H.H.H.H.H.H.H.H.H.H.H.",
"H.H.H.H.H.H.H.H.H.H.H.H.H.H.O   l *.-.2.i.i.i.i.p.i.r.I I Y Y T T Y T I I r.i.p.i.i.i.i.d.i.d.:.-.X.&   H.H.H.H.H.H.H.H.H.H.H.H.",
"H.H.H.H.H.H.H.H.H.H.H.H.H.H.&   l *.*.2.i.i.i.i.i.i.a.6.Y I Y U U U U Y 6.y.f.d.p.p.i.i.i.i.i.,.-.X.*   H.H.H.H.H.H.H.H.H.H.H.H.",
"H.H.H.H.H.H.H.H.H.H.H.H.= 4 _ ) ..*.;.2.i.i.i.p.l.m.m.c.c.0.P Y U U 9.c.c.m.n.m.n.n.g.d.i.i.i.<.*.#.` ` b = ; H.H.H.H.H.H.H.H.H.",
"H.H.H.H.H.H.H.H.H.H.H.H.  & o.;.-.;.*.2.p.d.i.i.n.G.G.G.G.w.P I P U w.G.G.G.G.G.G.G.h.i.i.i.i.<.-.;.;.;.n   X H.H.H.H.H.H.H.H.H.",
"H.H.H.H.H.H.H.H.H.H.H.H.  & X.-.-.*.;.3.p.f.h.h.m.G.D.G.G.e.7.9.9.7.c.D.G.G.G.G.G.G.l.h.g.d.d.,.-.-.-.-.n   X H.H.H.H.H.H.H.H.H.",
"H.H.H.H.H.H.H.H.H.H.H.H.  & X.;.*.*.-.2.i.j.F.F.D.G.G.G.G.G.D.D.D.D.D.G.G.G.G.G.G.G.G.F.m.f.i.,.-.-.*.-.n   X H.H.H.H.H.H.H.H.H.",
"H.H.H.H.H.H.H.H.H.H.H.H.  * X.-.*.-.=.2.i.j.G.G.G.G.G.G.G.G.G.G.G.G.G.G.G.G.G.G.G.G.D.G.m.p.i.<.-.*.*.;.n   X H.H.H.H.H.H.H.H.H.",
"H.H.H.H.H.H.H.H.H.H.H.H.  & X.-. .x x y.b.m.G.G.G.G.G.G.G.G.G.G.G.G.G.G.G.G.G.G.G.G.G.G.F.v.b.{ l R %.-.v   X H.H.H.H.H.H.H.H.H.",
"H.H.H.H.H.H.H.H.H.H.H.H.  & X.;.E   . q.G.G.G.G.G.G.G.G.G.G.G.G.G.G.G.G.G.G.G.G.G.G.G.G.G.G.G.M   3 #.;.n   X H.H.H.H.H.H.H.H.H.",
"H.H.H.H.H.H.H.H.H.H.H.H.O : ] O.R   O t.G.G.G.G.G.G.G.G.G.G.G.G.G.G.G.G.G.G.G.G.G.G.G.G.G.G.G.V   2 ..O.m . = H.H.H.H.H.H.H.H.H.",
"H.H.H.H.H.H.H.H.H.H.H.H.H.H.4 * $   O t.G.G.G.G.G.G.G.G.G.G.G.G.G.G.G.G.G.G.G.G.G.G.G.G.G.G.G.V   X & * 0 H.H.H.H.H.H.H.H.H.H.H.",
"H.H.H.H.H.H.H.H.H.H.H.H.H.H.O       O t.G.G.G.G.G.G.G.G.G.G.G.G.G.G.G.G.G.G.G.G.G.G.G.G.G.G.G.Z         H.H.H.H.H.H.H.H.H.H.H.H.",
"H.H.H.H.H.H.H.H.H.H.H.H.H.H.H.> -   O 5.G.G.G.G.G.G.G.G.G.G.G.G.G.G.G.G.G.G.G.G.G.G.G.G.G.G.G.Z   X 6 > H.H.H.H.H.H.H.H.H.H.H.H.",
"H.H.H.H.H.H.H.H.H.H.H.H.H.H.H.H.H.  + t.G.G.G.G.G.G.G.G.G.G.G.G.G.G.G.G.G.G.G.G.G.G.G.G.G.G.G.Z   O H.H.H.H.H.H.H.H.H.H.H.H.H.H.",
"H.H.H.H.H.H.H.H.H.H.H.H.H.H.H.H.H.  $ 5.D.C.D.D.D.D.Z.M.M.M.M.M.M.M.M.M.M.M.M.M.C.C.D.D.C.D.D.M   O H.H.H.H.H.H.H.H.H.H.H.H.H.H.",
"H.H.H.H.H.H.H.H.H.H.H.H.H.H.H.H.H.  O K 7.8.8.7.7.7.L w 7 7 7 7 7 7 7 7 7 7 8 B 7.7.7.8.7.7.7.i   O H.H.H.H.H.H.H.H.H.H.H.H.H.H.",
"H.H.H.H.H.H.H.H.H.H.H.H.H.H.H.H.H.  O J Y U Y Y Y Y J O                       y Y Y Y Y Y U Y i   O H.H.H.H.H.H.H.H.H.H.H.H.H.H.",
"H.H.H.H.H.H.H.H.H.H.H.H.H.H.H.H.H.; < A F F S S S S D 8 , - - ; ; , ; ; ; , , u S S S S S S F p , 4 H.H.H.H.H.H.H.H.H.H.H.H.H.H.",
"H.H.H.H.H.H.H.H.H.H.H.H.H.H.H.H.H.H.H.%             O H.H.H.H.H.H.H.H.H.H.H.H.H.              H.H.H.H.H.H.H.H.H.H.H.H.H.H.H.H.H.",
"H.H.H.H.H.H.H.H.H.H.H.H.H.H.H.H.H.H.H.=     X     . % H.H.H.H.H.H.H.H.H.H.H.H.H.X   X       X H.H.H.H.H.H.H.H.H.H.H.H.H.H.H.H.H.",
"H.H.H.H.H.H.H.H.H.H.H.H.H.H.H.H.H.H.H.H.H.H.H.H.H.H.H.H.H.H.H.H.H.H.H.H.H.H.H.H.H.H.H.H.H.H.H.H.H.H.H.H.H.H.H.H.H.H.H.H.H.H.H.H.",
"H.H.H.H.H.H.H.H.H.H.H.H.H.H.H.H.H.H.H.H.H.H.H.H.H.H.H.H.H.H.H.H.H.H.H.H.H.H.H.H.H.H.H.H.H.H.H.H.H.H.H.H.H.H.H.H.H.H.H.H.H.H.H.H.",
"H.H.H.H.H.H.H.H.H.H.H.H.H.H.H.H.H.H.H.H.H.H.H.H.H.H.H.H.H.H.H.H.H.H.H.H.H.H.H.H.H.H.H.H.H.H.H.H.H.H.H.H.H.H.H.H.H.H.H.H.H.H.H.H.",
"H.H.H.H.H.H.H.H.H.H.H.H.H.H.H.H.H.H.H.H.H.H.H.H.H.H.H.H.H.H.H.H.H.H.H.H.H.H.H.H.H.H.H.H.H.H.H.H.H.H.H.H.H.H.H.H.H.H.H.H.H.H.H.H.",
"H.H.H.H.H.H.H.H.H.H.H.H.H.H.H.H.H.H.H.H.H.H.H.H.H.H.H.H.H.H.H.H.H.H.H.H.H.H.H.H.H.H.H.H.H.H.H.H.H.H.H.H.H.H.H.H.H.H.H.H.H.H.H.H.",
"H.H.H.H.H.H.H.H.H.H.H.H.H.H.H.H.H.H.H.H.H.H.H.H.H.H.H.H.H.H.H.H.H.H.H.H.H.H.H.H.H.H.H.H.H.H.H.H.H.H.H.H.H.H.H.H.H.H.H.H.H.H.H.H.",
"H.H.H.H.H.H.H.H.H.H.H.H.H.H.H.H.H.H.H.H.H.H.H.H.H.H.H.H.H.H.H.H.H.H.H.H.H.H.H.H.H.H.H.H.H.H.H.H.H.H.H.H.H.H.H.H.H.H.H.H.H.H.H.H.",
"H.H.H.H.H.H.H.H.H.H.H.H.H.H.H.H.H.H.H.H.H.H.H.H.H.H.H.H.H.H.H.H.H.H.H.H.H.H.H.H.H.H.H.H.H.H.H.H.H.H.H.H.H.H.H.H.H.H.H.H.H.H.H.H.",
"H.H.H.H.H.H.H.H.H.H.H.H.H.H.H.H.H.H.H.H.H.H.H.H.H.H.H.H.H.H.H.H.H.H.H.H.H.H.H.H.H.H.H.H.H.H.H.H.H.H.H.H.H.H.H.H.H.H.H.H.H.H.H.H.",
"H.H.H.H.H.H.H.H.H.H.H.H.H.H.H.H.H.H.H.H.H.H.H.H.H.H.H.H.H.H.H.H.H.H.H.H.H.H.H.H.H.H.H.H.H.H.H.H.H.H.H.H.H.H.H.H.H.H.H.H.H.H.H.H.",
"H.H.H.H.H.H.H.H.H.H.H.H.H.H.H.H.H.H.H.H.H.H.H.H.H.H.H.H.H.H.H.H.H.H.H.H.H.H.H.H.H.H.H.H.H.H.H.H.H.H.H.H.H.H.H.H.H.H.H.H.H.H.H.H.",
"H.H.H.H.H.H.H.H.H.H.H.H.H.H.H.H.H.H.H.H.H.H.H.H.H.H.H.H.H.H.H.H.H.H.H.H.H.H.H.H.H.H.H.H.H.H.H.H.H.H.H.H.H.H.H.H.H.H.H.H.H.H.H.H.",
"H.H.H.H.H.H.H.H.H.H.H.H.H.H.H.H.H.H.H.H.H.H.H.H.H.H.H.H.H.H.H.H.H.H.H.H.H.H.H.H.H.H.H.H.H.H.H.H.H.H.H.H.H.H.H.H.H.H.H.H.H.H.H.H."
};
