/* XPM */
static char *result[] = {
/* columns rows colors chars-per-pixel */
"64 64 44 1 ",
"  c #74C9D4",
". c #7ACBD6",
"X c #7CCED9",
"o c #7FD0DA",
"O c #81CDD7",
"+ c #83CED8",
"@ c #88CFD9",
"# c #82D1DB",
"$ c #8BD2DB",
"% c #93D4DD",
"& c #9CD6DE",
"* c #A1D7DF",
"= c #A2D8DF",
"- c #8BD7E0",
"; c #8DD8E2",
": c #98D7E0",
"> c #92DBE4",
", c #9AD9E1",
"< c #99DFE8",
"1 c #A5D9E0",
"2 c #AADAE2",
"3 c #B3DDE4",
"4 c #BADFE5",
"5 c #9DE2EB",
"6 c #A2E5ED",
"7 c #ACE5EC",
"8 c #B5E1E6",
"9 c #BDE1E6",
"0 c #B5E7ED",
"q c #C1E1E7",
"w c #C5E3E8",
"e c #CCE5E9",
"r c #CDEAEE",
"t c #D3E7EB",
"y c #D6E8EC",
"u c #DAE9ED",
"i c #C7EBF0",
"p c #DCEEF0",
"a c #E0EDEF",
"s c #E4EFF0",
"d c #E8EFF0",
"f c #EDF1F2",
"g c #F4F4F4",
"h c None",
/* pixels */
"hhhhhhhhhhhhhhhhhhhhhhhhhhhhhhhhhhhhhhhhhhhhhhhhhhhhhhhhhhhhhhhh",
"hhhhhhhhhhhhhhhhhhhhhhhhhhhhhhhhhhhhhhhhhhhhhhhhhhhhhhhhhhhhhhhh",
"hhhhhhhhhhhhhhhhhhhhhhhhhhhhhhhhhhhhhhhhhhhhhhhhhhhhhhhhhhhhhhhh",
"hhhhhhhhhhhhhhhhhhhhhhhhhhhhhhhhhhhhhhhhhhhhhhhhhhhhhhhhhhhhhhhh",
"hhhhhhhhhhhhhhhhhhhhhhhhhhhhhhhhhhhhhhhhhhhhhhhhhhhhhhhhhhhhhhhh",
"hhhhhhhhhhhhhhhhhhhhhhhhhhhhhhhhhhhhhhhhhhhhhhhhhhhhhhhhhhhhhhhh",
"hhhhhhhhhhhhhhhhhhhhhhhhhhhhhhhhhhhhhhhhhhhhhhhhhhhhhhhhhhhhhhhh",
"hhhhhhhhhhhhhhhhhhhhhhhhhhhhhhhhhhhhhhhhhhhhhhhhhhhhhhhhhhhhhhhh",
"hhhhhhhhhhhhhhhhhhhhhhhhhhhhhhhhhhhhhhhhhhhhhhhhhhhhhhhhhhhhhhhh",
"hhhhhhhhhhhhhhhhhhhhhhhhhhhhhhhhhhhhhhhhhhhhhhhhhhhhhhhhhhhhhhhh",
"hhhhhhhhhhhhhhhhhhhhhhhhhhhhhhhhhhhhhhhhhhhhhhhhhhhhhhhhhhhhhhhh",
"hhhhhhhhhhhhhhhhhhhhhhhhhhh&=32211hhhhhhhhhhhhhhhhhhhhhhhhhhhhhh",
"hhhhhhhhhhhhhhhhhhhhhh$q43&3uuuuteq344@.hhhhhhhhhhhhhhhhhhhhhhhh",
"hhhhhhhhhhhhhhhhhhh%=eeuuu2wuuuuuuuuuyw&@%hhhhhhhhhhhhhhhhhhhhhh",
"hhhhhhhhhhhhhhhhhh*wuuuuue3yuuuuuuuuuuu2qw*hhhhhhhhhhhhhhhhhhhhh",
"hhhhhhhhhhhhhhhh%@&qeeeyaw3yuuuuuuuutee4&2&$%hhhhhhhhhhhhhhhhhhh",
"hhhhhhhhhhhhhhh1ettw2*%342*333433334q***=weye1hhhhhhhhhhhhhhhhhh",
"hhhhhhhhhhhhhh2yuuuuy42w3333333233324uutuuuuut=hhhhhhhhhhhhhhhhh",
"hhhhhhhhhhhhh=yuuuuuu=quuuuuuuuuuuaq*auuuuuuuut=hhhhhhhhhhhhhhhh",
"hhhhhhhhhhhh@wuuuuuue2yuuuuuuuuuuuuw=uuuuuuuuuue1hhhhhhhhhhhhhhh",
"hhhhhhhhhhhh222eeeuaq2auuuuuuuuuuuut3euuuutetq**2&hhhhhhhhhhhhhh",
"hhhhhhhhhhh2ttq%*144==tuutuuuuuuuuuu32q44q2*=2=etehhhhhhhhhhhhhh",
"hhhhhhhhhh%wuut&tt32=493222*22*21223q3222wyuuy3quy3hhhhhhhhhhhhh",
"hhhhhhhhhh4yuu44uuuaauteqqqqq4%4qqqetauuauuyuu43yue*hhhhhhhhhhhh",
"hhhhhhhhh&euuu1wuuuuuuuuuuuuut2uuuuuuuuuuuuuuuu*tuu3hhhhhhhhhhhh",
"hhhhhhhhh9uuyy1euuuuuuuuuuuuuu3euuuuuuuuuuuuyyu=euuthhhhhhhhhhhh",
"hhhhhhhhh2qwyeqyuuuuuuuuuuuuuuequuuuuuuuuuuuuuu=ww9q&hhhhhhhhhhh",
"hhhhhhhh4q&&3*=wututuuuuuuuuuuq2uuuuuutuyuue422%33134hhhhhhhhhhh",
"hhhhhhhh2t2wq4q4*&*2qeeeweeeee3*eewet311&==9q999tuuue%hhhhhhhhhh",
"hhhhhhhhqe&uuuuyeettw*1**&%***&&***14ttww8233999qtewtthhhhhhhhhh",
"hhhhhhhhyw4uuuuuuuuuuuutu42uuuutuuutut3289ww99993=2=2&hhhhhhhhhh",
"hhhhhhh%t3euuuuuuuuuuuuuuq2uuuuuuuuut2wasfgggggy9uafu2+hhhhhhhhh",
"hhhhhhh4t*euuuuuuuuuuuuuuqwuuuuuuuuu3wggggggggu9dguyus=hhhhhhhhh",
"hhhhhhhut*euuuuuuuuuuuuuy3quuuuuuuuw3dgggggggfqpge223ty%hhhhhhhh",
"hhhhhhhyu*euuuuuuuuuuuuuu4wuuuuuuuuqtggggggggp4gtOX%28uqhhhhhhhh",
"hhhhhhhqu*eautauuuuuuuuuuq3uuuuuuut2fggggggggspf=  X=2yahhhhhhhh",
"hhhhhh.&*%2wwwqwqtuuuuuuu42uuuuuewq2fgggggggf0fs@   %=qu=hhhhhhh",
"hhhhhh=wttq111==*=44q444q2*444qe2*1tggggggggf2fs+   @=9urhhhhhhh",
"hhhhhhuuuuuuuuyute&444444444449tuuudgggggggggpgs+   X=9ddhhhhhhh",
"hhhhhhuuuuuuuuuuue*uuuuuuuuuuuuuuuuggggggggggggs+   .=3dshhhhhhh",
"hhhhhhruuuuuyuuuue*auuuuuuuuuuuuuuufgggggggggggsO   .=3dshhhhhhh",
"hhh666quuuuuuuyute*uuuuuuuuuuuuuuuufgggggggggggs+   .=3sr5hhhhhh",
"h66666iyuuuuuyuuue*uuuuuuuuuuuuuuuuggggggggggggs+   .=3dr566hhhh",
"h666660yyyyyyyytte*ttttttttyttttttudfffddgfgfggpO  .O=8dr5666hhh",
"X;66667007,;%;%%;%$%%:;%:;%%%%%%%%::::,,12226221@XXX#78ui566666h",
"h ->5666655565565556155555565565616<5<5556566555555666676666666h",
"h   X#->5566666666666666666666666666666666666666666666666666655-",
"hh     ..X-,66666666666666666666666666666666666666666666666555# ",
"hhhh        ->666666666666666666666665666666656666566655$--$o   ",
"hhhhhhhhh    X>66666666666666666665555555555555;+Xo+ooo.       h",
"hhhhhhhhhhh   .->>>>>>>>>>>>>>;;--#o ...     o.               hh",
"hhhhhhhhhhhhhh                                           hhhhhhh",
"hhhhhhhhhhhhhhh                                hhhhhhhhhhhhhhhhh",
"hhhhhhhhhhhhhhhhhhhhhhhhhhhhhhhhhhhhhhhhhhhhhhhhhhhhhhhhhhhhhhhh",
"hhhhhhhhhhhhhhhhhhhhhhhhhhhhhhhhhhhhhhhhhhhhhhhhhhhhhhhhhhhhhhhh",
"hhhhhhhhhhhhhhhhhhhhhhhhhhhhhhhhhhhhhhhhhhhhhhhhhhhhhhhhhhhhhhhh",
"hhhhhhhhhhhhhhhhhhhhhhhhhhhhhhhhhhhhhhhhhhhhhhhhhhhhhhhhhhhhhhhh",
"hhhhhhhhhhhhhhhhhhhhhhhhhhhhhhhhhhhhhhhhhhhhhhhhhhhhhhhhhhhhhhhh",
"hhhhhhhhhhhhhhhhhhhhhhhhhhhhhhhhhhhhhhhhhhhhhhhhhhhhhhhhhhhhhhhh",
"hhhhhhhhhhhhhhhhhhhhhhhhhhhhhhhhhhhhhhhhhhhhhhhhhhhhhhhhhhhhhhhh",
"hhhhhhhhhhhhhhhhhhhhhhhhhhhhhhhhhhhhhhhhhhhhhhhhhhhhhhhhhhhhhhhh",
"hhhhhhhhhhhhhhhhhhhhhhhhhhhhhhhhhhhhhhhhhhhhhhhhhhhhhhhhhhhhhhhh",
"hhhhhhhhhhhhhhhhhhhhhhhhhhhhhhhhhhhhhhhhhhhhhhhhhhhhhhhhhhhhhhhh",
"hhhhhhhhhhhhhhhhhhhhhhhhhhhhhhhhhhhhhhhhhhhhhhhhhhhhhhhhhhhhhhhh"
};
