/* XPM */
static char *result[] = {
/* columns rows colors chars-per-pixel */
"64 64 85 1 ",
"  c #00647E",
". c #016B7F",
"X c #016682",
"o c #036C85",
"O c #096D87",
"+ c #056E88",
"@ c #096F8A",
"# c #047186",
"$ c #087085",
"% c #05738B",
"& c #0A758D",
"* c #05798D",
"= c #0B798E",
"- c #10768F",
"; c #11798E",
": c #077790",
"> c #0A7790",
", c #067B92",
"< c #0C7B93",
"1 c #0D7F98",
"2 c #117D94",
"3 c #137F98",
"4 c #068195",
"5 c #0C8196",
"6 c #0D8399",
"7 c #0B889C",
"8 c #138196",
"9 c #188297",
"0 c #14849B",
"q c #1A859C",
"w c #14899D",
"e c #1A899E",
"r c #21869D",
"t c #218A9F",
"y c #1687A0",
"u c #1987A0",
"i c #168BA1",
"p c #1C8CA2",
"a c #1D8FA9",
"s c #1591A3",
"d c #1D92A5",
"f c #1E93A9",
"g c #1E98AB",
"h c #228DA4",
"j c #298EA4",
"k c #248FA9",
"l c #2391A6",
"z c #2992A6",
"x c #2494AA",
"c c #2A95AB",
"v c #259AAD",
"b c #2B9AAD",
"n c #3095AC",
"m c #3199AE",
"M c #2D94B0",
"N c #269DB1",
"B c #2D9DB2",
"V c #329DB2",
"C c #399FB4",
"Z c #2AA0AF",
"A c #27A1B1",
"S c #2CA2B4",
"D c #2FA5B9",
"F c #2FA8B8",
"G c #33A2B5",
"H c #3AA3B6",
"J c #30A8B6",
"K c #38A9B6",
"L c #34A5B9",
"P c #3BA5BA",
"I c #36ABBB",
"U c #3CAABC",
"Y c #3AB3BF",
"T c #40A6BB",
"R c #42ABBD",
"E c #49AEBF",
"W c #4AB1BF",
"Q c #3CAEC0",
"! c #39B3C3",
"~ c #43ADC1",
"^ c #49ACC2",
"/ c #44B2C3",
"( c #4AB3C4",
") c #4DBACA",
"_ c #50B7C8",
/* pixels */
"&qlp&>300lNkxMNaaaaMBBMPkaaMvf00NB~~RLs7ss75,5,0FgsgZ88ZIbbGSSKd",
":ubVp9plwBBxxNxaaaiBLPPPa33NxfydxSUU~psiwww,,<<#vISvS05GLZALSJGA",
"=bVVBpvpvVBBMNkaaaMVPP^ViyyNfflvvNBLSsgs7i7y05,*5GdIY<0KGSGGSAAA",
"=vUPCp<kcxNBDaiM3yNPP^^Qay1axy0agdpppsdsgd66655,#w,5vweIJFFASIYI",
"=lulBx8yaxNVMaMy<xQ^PPUMy1:1q1,6dwepdidggdNl<<:<*%5*6w0GJZALGIvv",
"%640lc8pNfxBDDu:hLCClvNaa3:1<<xISNLSSBNggDGpx6*,+=4*4588GIIGKS8e",
"o65wwwexMNvGMu>yMGcpudpyu1>88qpLURLSSLLvIL647f,:%<,558<<pLew0fd8",
"o8ppdpSbBBNMa3:aVVbGBepby:0uallul(GBVG/)K6::<67,+=,5=*,80p<40055",
"#0wpddGUQBq103%MVVBC~PCbq6exclxGddREISRS67,:,441,%,,%:d00w50<45e",
"#,0ppfclkBv81%<BVVMcC~hhp<ubbcxSUlbSdvS765,<,,47,,,,%wNgpe055dgv",
"#8vpdlp518v03>6BCMcc~jyqq8pVNVVHKJbSgMg7555<14157:%:+yAxdww0sAZS",
"#dLvvNpplxfuu<6yVPCHCkpup3vHbbcPTGLVvvs5,14<,,411,%+%5vDSgNedYWY",
"#7GlNNdgdvlwp<80cRVc9hkh3:VGcbx~WKSxdvy71476<461::1:*66wDf0857Sl",
"*5JlxllvxAc0u<5wx2*223ch<=c~HHUCdq0w0gss57,:1<<<113><10wiy6656sw",
"*5ZSldbGbKGeu<0l2===32-3-*0~)Plpw8qd*8id77%<6<0piyy681ysy7066ww7",
".4eUSvlPULBbp=<0=<>&%=q3<=<c~d0ep058<5666:6eydllx1,006gviyw56w6w",
".7ee8=9WB0=20=>1>>&@qch03&&8Plquw5tzNbb0+3flhpxxy,:1wwdgss05<<67",
".58===vZ00<<8&>>>hjV^xu38<&=bb0u8lZZLbvx<9pxbVGy162>dwddls<,::56",
"..55<8vq301<3+>3m(THPmhq82=&8BpujKZZGbbc03hxxp38wyB3evdgZZ4<:<<<",
"..45,yl51323<+3cVcccVPVhq8<=*xppRKKGHHUx90dfy67w6xM-5LSSYZ,,::,:",
"**o<10y<<<<>++qhuyqhkVPcq080=0pxKVKKGvxh8qdppiyybGw%2xxNDy1>10ia",
"5*#*560<:%:33&quuyqpkcHPml80=*8CCZltpuqlpw07wgSURl=%q068vd,>00pf",
"5=*#5<:%%<0eM23upppvxxmTblb82+>HHGvllhcbMvdww8S~0*&<0613ve0y1y10",
",,#%,*+:0phxL03hMVMChlCbqpp<1@<MGGGmbbxddlxvlGG8=<=q001ycufpppy6",
"45#o%+<pfaxcG0hccMVp0cPmel=8h+>uhVcmbcchdpdS!b2%<<&<0widGchkllff",
"7=#Xo<yyfxkCIyhcchh<qCPHzh<lx&=20p&8=&hBllAb;&==<22q0dgvbccxp0p8",
"4,#%50wpvBcPbiyclq22VHbVPl8xk<@<2xhe222SVZlO.O&&0hlhpddx8hc%%=38",
"4*<iNSNGGCH~MaylvxlbUVbcVqqppq+%3keq002l)n&-&o$zchzxdxplxHj qxvx",
"*=aNSbbLG~QlxM1accbLGmbbcqhhuq@>kk3uepuh^C93&&&hchxlpMblcGcOhxll",
".0GILZGIQPapp6qlcCLMGGbblphxl0@<kupupphCnVz32$o$eGbxxBLLGq<@hVpl",
"@lI//(W/(aifadxcB(UGVxxxxVBjx6o3puphphVmhhcj2-X$=dHccbBl<<<o2h<1",
"0uaPLGUKViaidxxfGUGGlxxcxj0ql1X3a3MVmCVkccj32Oo#$=9V~xqq0<&&$0&<",
"pyiy10yCB0aulcpcUBSBbBMlqq2qp:X3xMxpkcVcxj2>2Oo<3<=3Vl0<33>>@&<o",
"p<608u1pl8yvZmG(LBGbbNMy>3-@+o+0aMhuqqjCCcuh3O<>222&eheOO&1@&&:$",
"=:80ii:1q3qGIGPPHbbldvM0>-O@->o3uahu3hhVPc23O-023q92:h0O&&>:>oo<",
"0BDLLN6:3<8pBxpcCGcxxbVp>q33h3o3auuhupkB~r=@&qqhuqq9&222>+>>:@&<",
"NIDIBgQy<>q8GcwpLGGMxVLuqcckh3&3luupuhMvh9&@qpkkpqhq3-2:@o>>>@<<",
"S~QMBINy,:03bdpphwdMVP33qcmmjh-2xkpxxcxq02$&yukjjhu3qq<&@X@>&:10",
"gDUQQxMy<=8yxe0lbG~UQ33>3ncjmc3=alxMNMuup3O3lpukkkjhhp3>@Xo@@>00",
"dsifw,y75::8u8elhplUV>3>hmmnCc9*sxBVBMhph8otjhhjhhcMuq993>XXOy0p",
"fSvNvx751::<<q00pxlvk110lnGmmb9&xMBLmbxpl3&zjkhhhlMhuhhq33o @hpp",
"NQULLd17:%%,1:2epldxp01pcnmccmr=aBVBmmcpp2-VVnmmVUMphhhq3>&oo3qc",
"NNBUN11:%o,ddi<<eppMp3qVxxbmchq2fVVVGPGp2@2CmcmcVThahMkhh@>&X&@2",
"kpiaN<:::6ydpgde<phcp2kUnzHHhq9=uGGGRnhh2ohTmmjqhVMkpcjj3@>2 @2&",
"2qhuq=@<7wpddggvh&&up<qcPRHtrrq<qpV(Pq0h3&cVcmVchcmhlVcc<@-& X>q",
"pvLv*%<<6wgvvxFFxp--3<88lPzqq3u>0apThqeepqPcMmccjcHCVGcc&o$&>&oo",
"vGPp><6yidgZAAbSAbho=2<8rztq0qq>3auc08qeqhTTCBVVmPPchh3-o2hxvu:%",
"cQDy:<lixdpgvldbJb*%2u82rjqq3q0%3uuvq0q32qhC^~RREGl0<22-&jHcmcll",
"GQBy=&vbxclvvvALYe.#w9*9lhr990<=>uuceq02=8w8V)WWzqpp0w<==TRTTHml",
"/Gdi==xPGLVZLI!YKe##w===##qrt3<=>pebeup0&0ldx(Ex0px0800&8THCzh8#",
")Uxi%&eUGVG/YZddd98.qlcj&o;zh-><&qGGpphe*elevKGe0hp5<0-%hc32=.;C",
"UNa7=&eLNNv!vtdxt98*qhtGmzztr-:<::lUxxh02h02eGbell8<5<%<pv92*lHG",
"ANy<*<xUVZGZ9eevZ9;9tjjzztrtj&:>>3<hNvx=0heudBGcbq<<$%@<pBu<lLBx",
"NNy1<<bGHZIvwwesl*.e99zj929mj&%%>:1uUMp;ppupubUZe=&@:==3lq<5LVbb",
"Ngfau<0pZIZe79wew.$t;;tt98zz9>%++>1ukq<6lplppxeq<&@-hq<<e=,wVHNb",
"fBBVv=3q0vZ9w7we8.;989jrrjhrq&=@>><pp<%8xlaplx808:&hhh2=5<<wdUmb",
"BGHSe=o$&=9dww9e4.;989Kt9r93>&%>q>:pq<0088ypxe888&hzhh9$<=<wwURK",
"^(^lw<;l8&8ew8889.;98r9tcr;2->&80::q1lvuyepeq990<hHjhle=5%<76bt;",
"BHRup<wKbl99tdllz9.99$$5t8&-22<0a6+$8gpypbGGYVd<&C(n9tt5*+<67l88",
"ypvu68hGbbbZZzbZzlt.9lze2;;&2@<dvM*opvxxvBBGbcq#;H(ztte0oo5<9s8;",
"hhxp47vmzbzzZbZzzzd=tKKGz8;9&&cBGIeX0xgldlbGbh<@h((ztcd9&$=wl958",
"Bxay8ZZKKKKZKCKZZZd8qmmUl;&-#pVBZLeX0lhgllGSp0$$l)(mxm898#8wd8=9",
"kpq1lbjZKTCmKKbmvtw;8mh9==9tbVbNL!poeNMxxVHe00o&G~GUHHctt$###==5",
"uq299edzzWTCKbjZe9w;8bq;2BBbGVbSS~V*0pxSbGG03=o9PKPPHbce;o$##8#$"
};
