/* XPM */
static char *result[] = {
/* columns rows colors chars-per-pixel */
"64 64 59 1 ",
"  c #49A0B2",
". c #4EA6BB",
"X c #4DAABC",
"o c #50A7B8",
"O c #54ACBD",
"+ c #5AAEBE",
"@ c #5AB1BF",
"# c #4EAEC2",
"$ c #54ACC0",
"% c #58AFC1",
"& c #55B3C4",
"* c #5DB4C4",
"= c #5EB8C7",
"- c #56B6C9",
"; c #5CB7C9",
": c #57BAC9",
"> c #5DBBCB",
", c #5FBED0",
"< c #61B6C5",
"1 c #63BAC6",
"2 c #60B7C8",
"3 c #64BCCB",
"4 c #69BECC",
"5 c #64BFD0",
"6 c #5DC0CF",
"7 c #5FC2D1",
"8 c #65C0CE",
"9 c #6AC2CE",
"0 c #65C3D3",
"q c #6BC5D3",
"w c #65C9D6",
"e c #6DC9D5",
"r c #67C7D8",
"t c #6BC7D8",
"y c #66CAD9",
"u c #6CCCDB",
"i c #72CBD5",
"p c #71CEDA",
"a c #78CED8",
"s c #6DD1DE",
"d c #76D0D6",
"f c #79D1D7",
"g c #73D2DD",
"h c #7AD4DB",
"j c #75D9DF",
"k c #79D9DE",
"l c #6ECFE0",
"z c #73CFE0",
"x c #6ED2E1",
"c c #73D4E1",
"v c #79D5E1",
"b c #75DAE2",
"n c #7ADCE3",
"m c #77DBE9",
"M c #79DCE9",
"N c #7CE1E6",
"B c #7DE3E9",
"V c #81E3E6",
"C c #82E5EA",
/* pixels */
"<<<<44<4444<4<<411449faa4f<+<4444q491<<12222519944439iii9944<9@<",
"<<11444444++<4<49ifi9Vf4f4<4qq54414ii12<%<234q4ii9444iiii9i999<@",
"<<<1144444+<<<44ffffVVVV4444q4qq*+i4i9222;;<4q4qiiq94i4iaiiii9<@",
"41+<144<11<<4<<V9dffV44++4444q44*4i191<22**444qq9i3<4iiii9aiii9@",
"44<<+1<<<<<<44449iidfi449444444<@9i9998<23<2449qii%39qqiqqiiif1+",
"i444<<<<<+1<<44499i944i4V9441114@9i9i98144553qqqe9*44qqiipddfi@@",
"4411<<<<<<<444a414414iii4444<11+999ii9984q4t3<q4qq<4qtqeiiddh988",
"4441+<<+<<<449944444iiii4ff4494<8999i988q5q4q<3eq<<44qqeqqihii99",
"i9i9<<*%<<<4949ii499qiiiiiiei92%899998138qqqqi3.%2i454qqqiii444t",
"1994%*<*+<3999qidq4qq9qaiiiiiq2*8999q989999iiq++4apppqqqqqq55555",
"411<<<<*<<44999i9@4qiiii9ddiii;213688883989ie19eptzppqeqqeqq54i5",
"99332<22<<4499qi<<q99ii9idddf9%58=11339qidi88ipit444ittq9qq44554",
"999111333<499qq9O34qqqqiddddq$34383300ehdpe8eepppttqrqqqt3<qt45t",
"99413344q*3499i1=qqqiiiiddhd344t03833qegd88qeeepattq33qt3<qptitp",
"9941899893+qqq4%q4q9qiiifhhet4qpq3803>0pgieeppepq5qtq033o5p5tttt",
"94111344493*4*+4q49qqqeehieq5q50rqq30533rattprqqr0qqrq0;qtq5ttz4",
"111199999i4 o1ie4qt5qqiit3qq5qq53q0q5;558rre08qttqqiupereqqtqeet",
"9419199iq3+*iiiieq4tqqi44qq5q5q0050rt5qzp=<30ptpppppddr35qtqttth",
"111111ii414i99qeet4tittq33eq5qqqq00q52o;q*=tqqttutedpuu=55treegn",
"119ii9114iaq9qqqqqt454p432q4tppt033>33q0tqpeq03reesdipg9550ttiVk",
"9iiid989ieiq94qqqtq545<5qqqq8=8;;30weppp55cgdp30rqppueur00eeedjg",
"9d911199qeiqqq934t4t32tperqte0;33erqqrtt;ughgggrr0ye0wwe00wetsdh",
"9fi939ee9ipq0q3=55t%2pqtppueeeppdpeeetpq=ngvgggpr0000we000yyessu",
"9iei99ieqqq34q9q4*%opqqqteuteepkvggdpup;tbbhjvpzpte00ww03queeess",
"<9i9qp45445589qqt24tqrqqqeqtesgkbghbgv=-ppccgpsutpwrrrrr0y0yrtsg",
"<14q4344qqqqieei4tt50qqrertpdhjknnbgneX50tuzgcgustr070r0r00uureg",
"q3=<<4qqqeeqepei<54tqreeqahvhkVkNVVV03pczpttzvuubguwr07,yrryuubg",
"4Oo8q54qqqqiieeu*5<trtttgnnnnkVVnnnh8cpzcusuwt>jcdMlrrr,000rudju",
"43qq33q5qqeieeei;t55qtedVnnVVVCCVnbqcuuccgucg&:cjvNcw000,00wtcuu",
"34i9432544eieeee355qqrinkkkVVVVVVV85cpzpuzcpg06beujsr0w000wrsxsv",
"3iiii4344qptqqqe50qtrthghvnnVVVNMp-qcuulllllu,eCjeueyr0ww07ycusc",
"eiiiiiq355q488085>0qqtpddhjnkVnnd0vutzuuuuuuu>0Nssssuyr7w000ulup",
"aiaiepq453303q053qrtteeiddjkgjndsvsguputtyuyr>wNjjsssyywwyw7wsss",
"aapipetq03>3000>=rqqesdusuggkjusjdjgguuutyyyr7ujjbjNsyyyysssysss",
"pipieqqqt8300353rqrqeudsesujdutbcjdjjssutrryrwusjsbsbsyyssssu0uc",
"qeeip49q33908030>3tweedsteeuyygjbbbcvcdgw,wy07sysbjjxsssssssxt7u",
"iqiiqeiq033353505qre0edeywtytubjvkbvjjgjuwcu77xxsjjbxxsssssssbu7",
"qepqqdiq03683;r300tegjsjjtuutugbbbbnccjjjsxu77syssxbjsyssssssssw",
"3q43duehi083>-5580etjqggbvuuuzgggbbbbbcvbbuu7yyssxjsssyyysxxxxxc",
"e$oqdipku>3,5,350qrgeegggbgupcgchbbbbjjbjbxy-0sxsxsssyyyysbxcmcc",
"p*%eqegdq8>>53>550ppudsggbgupccgvcbbbjbNjjjw7yxxssxxxsyssxsxbbbx",
"5*qv89qq838355550tutppdsjgcqugpcvjbbjNNjjbjs77yyssssbxsyssssxbBs",
"2*vhe98q0885,,350ttpupsggb0=zcggvbnbjbbNNjNs67yywwyssysssssybBN7",
"%3heweeq003335,>qttupugggp&tuccccmvdbbNbjNNy6wyywwwywyyyysbsyyww",
"@ejeeeee953355555tuuuppcgr*cuugpbcgjbbbNNNB67syywywwyysbbbBBbsyb",
"6edshiieq000q0qq5tpppppcc>-tuugccggbbnnNNNsXwyyyywwyssxbNBBBbyxm",
"9eiddiie050qqttt5tttpuzzz;0uucgccvcvnnNBNj67yxyyyywyssxbbbybxyxx",
"99eyidee00qqtttt53ztupppu&uuzpzcvcbbnMNNNw6yyxxyyyyyysxxBBxsysxb",
"9wiiesie9weetttuw;ttupuzr=uuuccccjgbnNNBMwxylmmxyyxyyyxxmBBxxxxm",
"9w9iiiee9weeettuz33ctupz=rcugspccvvbnNBCbxxllmxxxyxyxyyxmmmmxxmx",
"99wiiiiwwqqeeeeuu0>qzzz&&xutuupcgcccbBBbxcxllxxxxxyyyyyyxxmmBxxx",
"9w9iew9888qweeueed8Xpt%-pueutuzclzccbBcjcxylxlxxxxxyyyyyy7xxmxxm",
"ww9i988880weuiupugpXoX=uuuutuuucgzccvxwuxluxxlyyyxxxyyyyyyyxxxxm",
"9ieew98w8weeeuudgdqO$0vjggsuguulucszcuwuluulllxyxyxxxx7yyyxyyxmy",
"9ee9w9w9qqqeesdgue&Xtvsjbgvguuuplppxswllllluyxxyyxxyxx7yxmmx7xy:",
"9weei9w9qqqeeedst;$udsddgvcugucuclpcuuuuuyyllxxuyyyxxxyxymxm:::x",
"880qqq89eqewennq=8dsespsucczguuguczuuuxxxxyyxxxuxyxxxxsw#6x7:#xm",
">388888wqwq0qde>pnsuueuspcpcpguulpcpct>rmmyscxxlyyyxy7:##:7mmymx",
"3>>68089qisqr03egghpsuuuucculuuutuuns00>w7sBccsuxxy766yyxxxxywxx",
">388qesdkkkdq0udagggseuetuuuguseyrcr>ysxswwycMcuy7:7yxxmxxxyysBx",
"3800eigjjght8tgghggpdutuuuuguuuuuu>>ssucwss7:wy6:7yxxxxxxmxx7xmB",
"880qeidgqdeqqeeuggggseupuuuusuuug7:bcjct6bxxw:::7xxyxyyxxxmy:mbx",
"888eeidd3qq5uttepchgpuuttwwtuuut>&jcccxgbxxxmyyysyyxsysxxxx77bbB",
">80qeshNe800pdpuppgcpttt0>>tutuw&sstsscxxbxsssxxsxmxssxxxxx:wBBb"
};
