/* XPM */
static char *result[] = {
/* columns rows colors chars-per-pixel */
"64 64 83 1 ",
"  c #CBE3EF",
". c #CAE2EF",
"X c #C8E1EF",
"o c #C6E0EF",
"O c #C4DFEF",
"+ c #C2DDEF",
"@ c #C9E1EF",
"# c #C7E0EF",
"$ c #C5DFEF",
"% c #C3DEEF",
"& c #C1DDEF",
"* c #C7E1F0",
"= c #C6E0F0",
"- c #C5DFF0",
"; c #C8E1F0",
": c #C4DFF0",
"> c #C9E2F0",
", c #CAE3EF",
"< c #CAE2F0",
"1 c #CBE3F0",
"2 c #CBE3F1",
"3 c #CAE3F0",
"4 c #CAE3F1",
"5 c #CCE4F0",
"6 c #CDE4F1",
"7 c #CCE3F0",
"8 c #CDE4EF",
"9 c #D0E6F1",
"0 c #CDE5F0",
"q c #CCE3EF",
"w c #CFE5F1",
"e c #D5E8F2",
"r c #D2E6F1",
"t c #C9E2EF",
"y c #CDE4F0",
"u c #CCE4EF",
"i c #C0DCEF",
"p c #C4DEEF",
"a c #CFE4F0",
"s c #CEE5F0",
"d c #BFDCEF",
"f c #BEDBEF",
"g c #C1DCEF",
"h c #C8E2EF",
"j c #D0E5F1",
"k c #D4E7F2",
"l c #C4DEF0",
"z c #C7E0F0",
"x c #C9E1F0",
"c c #C0DDEF",
"v c #CAE2F1",
"b c #CBE2F0",
"n c #C3DFF0",
"m c #CCE3F1",
"M c #CBE2F1",
"N c #CEE4F1",
"B c #D1E6F2",
"V c #D1E6F1",
"C c #CEE5F2",
"Z c #D2E7F2",
"A c #CFE5F0",
"S c #D3E7F2",
"D c #D0E5F0",
"F c #D6E9F3",
"G c #D7E9F3",
"H c #CEE4F0",
"J c #C7E1EF",
"K c #C9E2F1",
"L c #C8E1F1",
"P c #D2E6F2",
"I c #D4E8F2",
"U c #CCE4F1",
"Y c #C5E0EF",
"T c #C2DEEF",
"R c #CEE5F1",
"E c #C3DEF0",
"W c #C1DEEF",
"Q c #C5E0F0",
"! c #C2DEF0",
"~ c #C2DFF0",
"^ c #C4E0F0",
"/ c #C8E0F0",
"( c white",
/* pixels */
"           .XoO++++++++++++++++OoX.                      .@#$%+&",
"         *=------------------------*.                 .;=:::::::",
"         >;;;;;;;;;;;;;;;;;;;;;;;;;;;>,               <;********",
"          1222222222222222222222222221                 344444444",
"            5666666666666666666666667                    5666666",
"             7666666666666666666667                       766666",
"               766666666666666657                           5666",
"                 7566666666667                                76",
"                    7556557                                     ",
"                                                                ",
"                                                                ",
"                                                                ",
"                                                                ",
"                                                                ",
"                                  890                           ",
"                                 qwer                           ",
"               .tttttt..,         qyq          quq              ",
"             .XO+iiiii%pot.                    ars              ",
"           ,tOdffffffffffg$h,                 qjkw              ",
"         ,.#+&&&&&&&&&&&&&&+ot,                                 ",
"      ..t#-llllllllllllllllll:z@..,                        ..ttt",
"    .t;z=========================;htt...                .tXoO%++",
"   <;;;;;;;;;;;;;;;;;;;;;;;;;;;;;;;;;;;x<            ..t#O&ccccc",
"  <vvvvvvvvvvvvvvvvvvvvvvvvvvvvvvvvvvvvvvb       ,,..Xz-nnnnnnnn",
"  11mmmmmmmmmmmmmmmmmmmmmmmmmmmmmmmmmmmmmm7    ,3>>;************",
"    756666666666666666666666666666666666557    <<MM222222222mm22",
"      7556666666666666666666666666666557         7755666666NBVN6",
"         5566666666666666666666666555                556666CZZw6",
"           75556666666666666666557                     775555666",
"               7555566665555557                              775",
"                    7777                                        ",
"                                                                ",
"  yyq                                                           ",
" AZSD                                                           ",
" VFGSu                                                          ",
" H9Vsq                                                          ",
"                          ,.                                    ",
"                        t#OpoX.                                 ",
"                     ,tX$+gg&poJ@.                              ",
"             .<<<<>>;*=---------=z;;;><.                        ",
"             <vvvvKKLLLLLLLLLLLLLLLLLKv<<<1            qysHu    ",
"              12mmmmmmmmmmmmmmmmmmmmmmmmm1             HPIk95   ",
"               17566666666666666666666677              HkGFrq   ",
"JX.               775666666666666666777                qDV9H    ",
":-=*>                775666666655777                     q      ",
"====*>.                 7777777                                 ",
"KKKKKK3                                                         ",
"UUUUU1                                                        .t",
"66667                            qHsy                       .YT&",
"6677          ASH                yIIV                     .X$&ii",
"57            DSH                q9VR                   .>z-nEEE",
"              uyq                 qu                 <<>;*======",
"                                                     3vvvvvvvvvv",
"                                                      15UUUUUUUU",
"                                                        75666666",
"                                                          775666",
"                                                             775",
"                                                         55q    ",
"                                                         Vejq   ",
"                   tXo%%%%$X,                            yw8    ",
"             tXJY$TTW&cccc&WT$J@t                               ",
"         .@;Q::lEE!!!~~~~~~~~n::^Q;t                            ",
"         /zz======================zzx<                          ",
"         .>KKKKKKKKKKKKKKKKKKKKKKKKKv<                          "
};
