/* XPM */
static char *result[] = {
/* columns rows colors chars-per-pixel */
"64 64 188 2 ",
"   c black",
".  c #010101",
"X  c #020202",
"o  c #020203",
"O  c gray1",
"+  c #030306",
"@  c #040404",
"#  c #040405",
"$  c gray2",
"%  c #050506",
"&  c #060606",
"*  c #090909",
"=  c gray4",
"-  c #0B0B0B",
";  c #0C0C0B",
":  c #0C0C0C",
">  c gray5",
",  c #0E0E0E",
"<  c gray6",
"1  c #101010",
"2  c #111110",
"3  c #111111",
"4  c gray7",
"5  c #131313",
"6  c gray8",
"7  c gray9",
"8  c gray11",
"9  c #1E1E1E",
"0  c gray12",
"q  c #272805",
"w  c #2C2D0D",
"e  c #313305",
"r  c #37380D",
"t  c #222222",
"y  c gray14",
"u  c #252527",
"i  c #252627",
"p  c gray15",
"a  c #262627",
"s  c #272627",
"d  c #282828",
"f  c #2A2A2A",
"g  c gray17",
"h  c #2C2C2D",
"j  c #353535",
"k  c gray21",
"l  c gray22",
"z  c gray23",
"x  c #3C3C3C",
"c  c gray24",
"v  c #5D6007",
"b  c #5E6007",
"n  c #5F6208",
"m  c #616208",
"M  c #61640F",
"N  c #61650F",
"B  c #65660F",
"V  c #636610",
"C  c #494A2C",
"Z  c #52532E",
"A  c #77792F",
"S  c #777A2E",
"D  c #787B30",
"F  c #7A7B30",
"G  c #646464",
"H  c #656565",
"J  c gray40",
"K  c #686868",
"L  c #767677",
"P  c #777777",
"I  c gray47",
"U  c #797979",
"Y  c #7C7C7C",
"T  c gray49",
"R  c #7E7E7E",
"E  c #81760A",
"W  c #8A7C0A",
"Q  c #847A12",
"!  c #8D8012",
"~  c #B39408",
"^  c #B39509",
"/  c #B4960C",
"(  c #B4970C",
")  c #B6970D",
"_  c #B5960E",
"`  c #B5970E",
"'  c #B79914",
"]  c #B69915",
"[  c #B79916",
"{  c #B89A16",
"}  c #B89D1B",
"|  c #B99D1F",
" . c #B99E1F",
".. c #958C30",
"X. c #9C9132",
"o. c #BA9F21",
"O. c #BA9E22",
"+. c #BA9F22",
"@. c #B89F25",
"#. c #BFA735",
"$. c #BFA736",
"%. c #BFA833",
"&. c #B4A13D",
"*. c #C0A634",
"=. c #C0A735",
"-. c #C1A735",
";. c #C0A837",
":. c #C1A837",
">. c #AE9B40",
",. c #89877B",
"<. c #CEC077",
"1. c #D3C373",
"2. c #818181",
"3. c gray51",
"4. c #838383",
"5. c #878680",
"6. c #838384",
"7. c #848484",
"8. c #898989",
"9. c gray54",
"0. c #8E8E8E",
"q. c #9E9C8E",
"w. c #929292",
"e. c #939393",
"r. c #939394",
"t. c #979797",
"y. c #989898",
"u. c gray60",
"i. c #9B9B9B",
"p. c gray62",
"a. c #9F9F9F",
"s. c #A1A098",
"d. c #A5A5A5",
"f. c gray65",
"g. c gray67",
"h. c #AFAFAF",
"j. c #D3C88D",
"k. c #D9CD8B",
"l. c #DBCE8D",
"z. c #DFD5A1",
"x. c gray78",
"c. c #C8C8C8",
"v. c #CACACA",
"b. c #CBCBCB",
"n. c #F1ECD3",
"m. c #F3EFD5",
"M. c #F4EFD6",
"N. c gray88",
"B. c #E1E1E1",
"V. c #E2E2E2",
"C. c #E4E4E4",
"Z. c gray90",
"A. c #E7E7E6",
"S. c #E7E7E7",
"D. c #E7E8E7",
"F. c #E8E8E7",
"G. c #EBEBE7",
"H. c #E8E7E8",
"J. c gray91",
"K. c #EAEAEA",
"L. c #ECECE8",
"P. c gray93",
"I. c #EDEDEE",
"U. c #EEEEEE",
"Y. c #EFF0E7",
"T. c #F0F0E7",
"R. c #F3F2E7",
"E. c #F3F3E7",
"W. c #F7F5E7",
"Q. c #F8F5E7",
"!. c #F8F6E9",
"~. c #FAF9EB",
"^. c #FBF9EB",
"/. c #EDEEF0",
"(. c gray94",
"). c #F3F3F3",
"_. c #F4F4F4",
"`. c gray96",
"'. c #F6F6F6",
"]. c gray97",
"[. c #FAF9F1",
"{. c #FBFAF4",
"}. c #F8F8F8",
"|. c #F9F9F9",
" X c #FEFEFE",
".X c #FFFFFE",
"XX c white",
"oX c None",
/* pixels */
"oXoXoXoXoXoXoXoXoXoXoXoXoXoXoXoXoXoXoXoXoXoXoXoXoXoXoXoXoXoXoXoXoXoXoXoXoXoXoXoXoXoXoXoXoXoXoXoXoXoXoXoXoXoXoXoXoXoXoXoXoXoXoXoX",
"oXoXoXoXoXoXoXoXoXoXoXoXoXoXoXoXoXoXoXoXoXoXoXoXoXoXoXoXoXoXoXoXoXoXoXoXoXoXoXoXoXoXoXoXoXoXoXoXoXoXoXoXoXoXoXoXoXoXoXoXoXoXoXoX",
"oXoXoXoXoXoXoXoXoXoXoXoXoXoXoXoXoXoXoXoXoXoXoXoXoXoXoXoXoXoXoXoXoXoXoXoXoXoXoXoXoXoXoXoXoXoXoXoXoXoXoXoXoXoXoXoXoXoXoXoXoXoXoXoX",
"oXoXoXoXoXoXoXoXoXoXoXoXoXoXoXoXoXoXoXoXoXoXoXoXoXoXoXoXoXoXoXoXoXoXoXoXoXoXoXoXoXoXoXoXoXoXoXoXoXoXoXoXoXoXoXoXoXoXoXoXoXoXoXoX",
"oXoXoXoXoXoXoXoXoXoXoXoXoXoXoXoXoXoXoXoXoXoXoXoXoXoXoXoXoXoXoXoXoXoXoXoXoXoXoXoXoXoXoXoXoXoXoXoXoXoXoXoXoXoXoXoXoXoXoXoXoXoXoXoX",
"oXoXoXoXoXoXoXoXoXoXoXoXoXoXoXoXoXoXoXoXoXoXoXoXoXoXoXoXoXoXoXoXoXoXoXoXoXoXoXoXoXoXoXoXoXoXoXoXoXoXoXoXoXoXoXoXoXoXoXoXoXoXoXoX",
"oXoXoXoXoXoXoXoXoXoXoXoXoXoXoXoXoXoXoXoXoXoXoXoXoXoXoXoXoXoXoXoXoXoXoXoXoXoXoXoXoXoXoXoXoXoXoXoXoXoXoXoXoXoXoXoXoXoXoXoXoXoXoXoX",
"oXoXoXoXoXoXoXoXoXoXoXoXoXoXoXoXoXoXoXoXoXoXoXoXoXoXoXoXoXoXoXoXoXoXoXoXoXoXoXoXoXoXoXoXoXoXoXoXoXoXoXoXoXoXoXoXoXoXoXoXoXoXoXoX",
"oXoXoXoXoXoXoXoXoXoXoXoXoXoXoXoXoXoXoXoXoXoXoXoXoXoXoXoXoXoXoXoXoXoXoXoXoXoXoXoXoXoXoXoXoXoXoXoXoXoXoXoXoXoXoXoXoXoXoXoXoXoXoXoX",
"oXoXoXoXoXoXoXoXoXoXoXoXoXoXoXoXoXoXoXoXoXoXoXoXoXoXoXoXoXoXoXoXoXoXoXoXoXoXoXoXoXoXoXoXoXoXoXoXoXoXoXoXoXoXoXoXoXoXoXoXoXoXoXoX",
"oXoXoXoXoXoXoXoXoXoXoXoXoXoXoXoXoXoXoXoXoXoXoXoXoXoXoXoXoXoXoXoXoXoXoXoXoXoXoXoXoXoXoXoXoXoXoXoXoXoXoXoXoXoXoXoXoXoXoXoXoXoXoXoX",
"oXoXoXoXoXoXoXoXoXoXoXoXoXoXoXoXoXoXoXoXoXoXoXoXoXoXoXoXoXoXoXoXoXoXoXoXoXoXoXoXoXoXoXoXoXoXoXoXoXoXoXoXoXoXoXoXoXoXoXoXoXoXoXoX",
"oXoXoXoXoXoXoXoXoXoXoXoXoXoXoXoXoXoXoXoXoXoXoXoXoXoXoXoXoXoXoXoXoXoXoXoXoXoXoXoXoXoXoXoXoXoXoXoXoXoXoXoXoXoXoXoXoXoXoXoXoXoXoXoX",
"oXoXoXoXoXoXoXoXoXoXoXoXoXoXoXoXoXoXoXoXoXoXoXoXoXoXoXoXoXoXoXoXoXoXoXoXoXoXoXoXoXoXoXoXoXoXoXoXoXoXoXoXoXoXoXoXoXoXoXoXoXoXoXoX",
"oXoXoXoXoXoXoXoXoXoXoXoXoXoXoXoXoXoXoXoXoXoXoXoXoXO X X X X X X X X X X 3 oXoXoXoXoXoXoXoXoXoXoXoXoXoXoXoXoXoXoXoXoXoXoXoXoXoXoX",
"oXoXoXoXoXoXoXoXoXoXoXoXoXoXoXoXoXoXoXoXoXoXoXoXoX                      < oXoXoXoXoXoXoXoXoXoXoXoXoXoXoXoXoXoXoXoXoXoXoXoXoXoXoX",
"oXoXoXoXoXoXoXoXoXoXoXoXoXoXoXoXoXoXoXoXoXoXoXoX4                       , oXoXoXoXoXoXoXoXoXoXoXoXoXoXoXoXoXoXoXoXoXoXoXoXoXoXoX",
"oXoXoXoXoXoXoXoXoXoXoXoXoXoXoXoXoXoXoXoXoXoXO O .                       . X X 1 oXoXoXoXoXoXoXoXoXoXoXoXoXoXoXoXoXoXoXoXoXoXoXoX",
"oXoXoXoXoXoXoXoXoXoXoXoXoXoXoXoXoXoXoXoXoX4                                   , oXoXoXoXoXoXoXoXoXoXoXoXoXoXoXoXoXoXoXoXoXoXoXoX",
"oXoXoXoXoXoXoXoXoXoXoXoXoXoXoXoXoXoXoXoXoX4     9 x z z z z z z z z z c y     , oXoXoXoXoXoXoXoXoXoXoXoXoXoXoXoXoXoXoXoXoXoXoXoX",
"oXoXoXoXoXoXoXoXoXoXoXoXoXoXoXoXoXoX6 O O X     I }._._._._._._._._._.|.e.    X O O 1 oXoXoXoXoXoXoXoXoXoXoXoXoXoXoXoXoXoXoXoXoX",
"oXoXoXoXoXoXoXoXoXoXoXoXoXoXoXoXoXoX3           T XXXXXXXXXXXXXXXXXXXXXXi.          > oXoXoXoXoXoXoXoXoXoXoXoXoXoXoXoXoXoXoXoXoX",
"oXoXoXoXoXoXoXoXoXoXoXoXoXoXoXoXoXoX3     8 l j R v.x.V.XXXXXXXXXXJ.c.b.0.k l t     > oXoXoXoXoXoXoXoXoXoXoXoXoXoXoXoXoXoXoXoXoX",
"oXoXoXoXoXoXoXoXoXoXoXoXoXoXoXoXoXoX3     Y '.`.3.= * R XXXXXXXXXXu.- * K ).'.t.    > oXoXoXoXoXoXoXoXoXoXoXoXoXoXoXoXoXoXoXoXoX",
"oXoXoXoXoXoXoXoXoXoXoXoXoXoXoXoXoXoX3     7.XXXX3.    P XXXXXXXXXXe.    H XXXXa.    > oXoXoXoXoXoXoXoXoXoXoXoXoXoXoXoXoXoXoXoXoX",
"oXoXoXoXoXoXoXoXoXoXoXoXoXoXoXoXoXoX3     4.XXXX3.    P XXXXXXXXXXe.    J XXXXa.    > oXoXoXoXoXoXoXoXoXoXoXoXoXoXoXoXoXoXoXoXoX",
"oXoXoXoXoXoXoXoXoXoXoXoXoXoXoXoXoXoX3     4.XXXX3.    P XXXXXXXXXXe.    J XXXXa.    > oXoXoXoXoXoXoXoXoXoXoXoXoXoXoXoXoXoXoXoXoX",
"oXoXoXoXoXoXoXoXoXoXoXoXoXoXoXoXoXoX3     4.XXXX2.    L XXXXXXXXXXr.    G XXXXa.    > oXoXoXoXoXoXoXoXoXoXoXoXoXoXoXoXoXoXoXoXoX",
"oXoXoXoXoXoXoXoXoXoXoXoXoXoXoXoXoXoX3     4.XXXXu.g g ,.m.n.n.n.M.q.h f 2.XXXXa.    > oXoXoXoXoXoXoXoXoXoXoXoXoXoXoXoXoXoXoXoXoX",
"oXoXoXoXoXoXoXoXoXoXoXoXoXoXoX5 @ @ O .   7.XXXX'.P./.j. .o.+.+.| <.I.P._.XXXXa.. . X @ @ 1 oXoXoXoXoXoXoXoXoXoXoXoXoXoXoXoXoXoX",
"oXoXoXoXoXoXoXoXoXoXoXoXoXoXoX1           3.XXXXXXXXXXl.^ / / / ~ 1.XXXXXXXXXXp.          : oXoXoXoXoXoXoXoXoXoXoXoXoXoXoXoXoXoX",
"oXoXoXoXoXoXoXoXoXoXoXoXoXoXoX3     7 g d y.XXXXXXXXXXz.$.:.:.;.*.k.XXXXXXXXXXh.f g 8     > oXoXoXoXoXoXoXoXoXoXoXoXoXoXoXoXoXoX",
"oXoXoXoXoXoXoXoXoXoXoXoX5 @ $ O     R U.K._.XXXXXXXXXX{.!.!.!.!.!.[.XXXXXXXXXX].K.U.t..   X @ @ 1 oXoXoXoXoXoXoXoXoXoXoXoXoXoXoX",
"oXoXoXoXoXoXoXoXoXoXoXoX<           9.XXXXXXXXXXXXXX.X.XXXXXXXXX.X.XXXXXXXXXXXXXXXXXf..         - oXoXoXoXoXoXoXoXoXoXoXoXoXoXoX",
"oXoXoXoXoXoXoXoXoXoXoXoX<           8.XXXXXXXXXXXXXXXXXXXXXXXXXXXXXXXXXXXXXXXXXXXXXXd..         - oXoXoXoXoXoXoXoXoXoXoXoXoXoXoX",
"oXoXoXoXoXoXoXoXoXoXoXoX<           8.XXXXXXXXXXXX X XXXXXXXXXXXXXXX X X XXXXXXXXXXXd..         - oXoXoXoXoXoXoXoXoXoXoXoXoXoXoX",
"oXoXoXoXoXoXoXoXoXoXoXoX<           8.XXXXXXXXXXXX X X XXXXXXXXXXXXX X X XXXXXXXXXXXd..         - oXoXoXoXoXoXoXoXoXoXoXoXoXoXoX",
"oXoXoXoXoXoXoXoXoXoXoXoX<           8.XXXXXXXXXXXX X XXXXXXXXXXXXXXX X X XXXXXXXXXXXd..         - oXoXoXoXoXoXoXoXoXoXoXoXoXoXoX",
"oXoXoXoXoXoXoXoXoXoXoXoX<     . .   8.XXXXXXXXXXXXXXXXXXXXXXXXXXXXXXXXXXXXXXXXXXXXXXd.X . .     ; oXoXoXoXoXoXoXoXoXoXoXoXoXoXoX",
"oXoXoXoXoXoXoXoXoXoXoXoX<       .   9.XXXXXXXXXXXXXXXXXXXXXXXXXXXXXXXXXXXXXXXXXXXXXXf.X . .     - oXoXoXoXoXoXoXoXoXoXoXoXoXoXoX",
"oXoXoXoXoXoXoXoXoXoXoXoX6 $ & @ .   U C.N.(.XXXXXXXXXXXXXXXXXXXXXXXXXXXXXXXXXX_.B.Z.w.X . O & $ 2 oXoXoXoXoXoXoXoXoXoXoXoXoXoXoX",
"oXoXoXoXoXoXoXoXoXoXoXoXoXoXoX3     3 0 8 w.XXXXXXXXXXXXXXXXXXXXXXXXXXXXXXXXXXg.0 0 6     > oXoXoXoXoXoXoXoXoXoXoXoXoXoXoXoXoXoX",
"oXoXoXoXoXoXoXoXoXoXoXoXoXoXoX1           3.XXXXXXXXXXXXXXXXXXXXXXXXXXXXXXXXXXp.          : oXoXoXoXoXoXoXoXoXoXoXoXoXoXoXoXoXoX",
"oXoXoXoXoXoXoXoXoXoXoXoXoXoXoXoX$ $ O     4.XXXXXXXXXXXXXXXXXXXXXXXXXXXXXXXXXXa.    O $ $ 3 oXoXoXoXoXoXoXoXoXoXoXoXoXoXoXoXoXoX",
"oXoXoXoXoXoXoXoXoXoXoXoXoXoXoXoXoXoX5     4.XXXXXXXXXXXXXXXXXXXXXXXXXXXXXXXXXXa.    , oXoXoXoXoXoXoXoXoXoXoXoXoXoXoXoXoXoXoXoXoX",
"oXoXoXoXoXoXoXoXoXoXoXoXoXoXoXoXoXoX3     6.XXXXXXXXXXXXXXXXXXXXXXXXXXXXXXXXXXa.    > oXoXoXoXoXoXoXoXoXoXoXoXoXoXoXoXoXoXoXoXoX",
"oXoXoXoXoXoXoXoXoXoXoXoXoXoXoXoXoXoXoX% o 5.^.Q.E.Y.T.L.A.D.H.F.S.G.T.T.R.W.~.s.% @ 3 oXoXoXoXoXoXoXoXoXoXoXoXoXoXoXoXoXoXoXoXoX",
"oXoXoXoXoXoXoXoXoXoXoXoXoXoXoXoXoXoXoXoXoX>.=.-.X.S F Z i a p s u C D A ..#.%.&.oXoXoXoXoXoXoXoXoXoXoXoXoXoXoXoXoXoXoXoXoXoXoXoX",
"oXoXoXoXoXoXoXoXoXoXoXoXoXoXoXoXoXoXoXoXoXO._ ) W b m e           q n v E ` ( } oXoXoXoXoXoXoXoXoXoXoXoXoXoXoXoXoXoXoXoXoXoXoXoX",
"oXoXoXoXoXoXoXoXoXoXoXoXoXoXoXoXoXoXoXoXoXoX[ { ! N B r + # @ # + w V M Q ' ] @.oXoXoXoXoXoXoXoXoXoXoXoXoXoXoXoXoXoXoXoXoXoXoXoX",
"oXoXoXoXoXoXoXoXoXoXoXoXoXoXoXoXoXoXoXoXoXoXoXoXoXoXoXoXoXoXoXoXoXoXoXoXoXoXoXoXoXoXoXoXoXoXoXoXoXoXoXoXoXoXoXoXoXoXoXoXoXoXoXoX",
"oXoXoXoXoXoXoXoXoXoXoXoXoXoXoXoXoXoXoXoXoXoXoXoXoXoXoXoXoXoXoXoXoXoXoXoXoXoXoXoXoXoXoXoXoXoXoXoXoXoXoXoXoXoXoXoXoXoXoXoXoXoXoXoX",
"oXoXoXoXoXoXoXoXoXoXoXoXoXoXoXoXoXoXoXoXoXoXoXoXoXoXoXoXoXoXoXoXoXoXoXoXoXoXoXoXoXoXoXoXoXoXoXoXoXoXoXoXoXoXoXoXoXoXoXoXoXoXoXoX",
"oXoXoXoXoXoXoXoXoXoXoXoXoXoXoXoXoXoXoXoXoXoXoXoXoXoXoXoXoXoXoXoXoXoXoXoXoXoXoXoXoXoXoXoXoXoXoXoXoXoXoXoXoXoXoXoXoXoXoXoXoXoXoXoX",
"oXoXoXoXoXoXoXoXoXoXoXoXoXoXoXoXoXoXoXoXoXoXoXoXoXoXoXoXoXoXoXoXoXoXoXoXoXoXoXoXoXoXoXoXoXoXoXoXoXoXoXoXoXoXoXoXoXoXoXoXoXoXoXoX",
"oXoXoXoXoXoXoXoXoXoXoXoXoXoXoXoXoXoXoXoXoXoXoXoXoXoXoXoXoXoXoXoXoXoXoXoXoXoXoXoXoXoXoXoXoXoXoXoXoXoXoXoXoXoXoXoXoXoXoXoXoXoXoXoX",
"oXoXoXoXoXoXoXoXoXoXoXoXoXoXoXoXoXoXoXoXoXoXoXoXoXoXoXoXoXoXoXoXoXoXoXoXoXoXoXoXoXoXoXoXoXoXoXoXoXoXoXoXoXoXoXoXoXoXoXoXoXoXoXoX",
"oXoXoXoXoXoXoXoXoXoXoXoXoXoXoXoXoXoXoXoXoXoXoXoXoXoXoXoXoXoXoXoXoXoXoXoXoXoXoXoXoXoXoXoXoXoXoXoXoXoXoXoXoXoXoXoXoXoXoXoXoXoXoXoX",
"oXoXoXoXoXoXoXoXoXoXoXoXoXoXoXoXoXoXoXoXoXoXoXoXoXoXoXoXoXoXoXoXoXoXoXoXoXoXoXoXoXoXoXoXoXoXoXoXoXoXoXoXoXoXoXoXoXoXoXoXoXoXoXoX",
"oXoXoXoXoXoXoXoXoXoXoXoXoXoXoXoXoXoXoXoXoXoXoXoXoXoXoXoXoXoXoXoXoXoXoXoXoXoXoXoXoXoXoXoXoXoXoXoXoXoXoXoXoXoXoXoXoXoXoXoXoXoXoXoX",
"oXoXoXoXoXoXoXoXoXoXoXoXoXoXoXoXoXoXoXoXoXoXoXoXoXoXoXoXoXoXoXoXoXoXoXoXoXoXoXoXoXoXoXoXoXoXoXoXoXoXoXoXoXoXoXoXoXoXoXoXoXoXoXoX",
"oXoXoXoXoXoXoXoXoXoXoXoXoXoXoXoXoXoXoXoXoXoXoXoXoXoXoXoXoXoXoXoXoXoXoXoXoXoXoXoXoXoXoXoXoXoXoXoXoXoXoXoXoXoXoXoXoXoXoXoXoXoXoXoX",
"oXoXoXoXoXoXoXoXoXoXoXoXoXoXoXoXoXoXoXoXoXoXoXoXoXoXoXoXoXoXoXoXoXoXoXoXoXoXoXoXoXoXoXoXoXoXoXoXoXoXoXoXoXoXoXoXoXoXoXoXoXoXoXoX",
"oXoXoXoXoXoXoXoXoXoXoXoXoXoXoXoXoXoXoXoXoXoXoXoXoXoXoXoXoXoXoXoXoXoXoXoXoXoXoXoXoXoXoXoXoXoXoXoXoXoXoXoXoXoXoXoXoXoXoXoXoXoXoXoX"
};
