/* XPM */
static char *result[] = {
/* columns rows colors chars-per-pixel */
"64 64 91 1 ",
"  c #597FB2",
". c #5B81B3",
"X c #6186B6",
"o c #6488B7",
"O c #6589B8",
"+ c #6B8DBB",
"@ c #6E91BD",
"# c #7293BE",
"$ c #7696C0",
"% c #779AC2",
"& c #7B9AC3",
"* c #7AA1C7",
"= c #7BA4C9",
"- c #7DA9CC",
"; c #819FC5",
": c #84A1C7",
"> c #86A2C8",
", c #8AA6CA",
"< c #81AECF",
"1 c #8DA9CC",
"2 c #92ACCE",
"3 c #82AFD0",
"4 c #96AFD0",
"5 c #83B5D4",
"6 c #85B9D6",
"7 c #89BAD7",
"8 c #8BBDD9",
"9 c #95B1D1",
"0 c #9CB3D2",
"q c #93BED9",
"w c #A1B7D4",
"e c #A5BAD6",
"r c #A8BCD7",
"t c #A7BCD8",
"y c #A9BDD8",
"u c #8CC3DC",
"i c #A4C2DC",
"p c #AEC1DA",
"a c #B4C5DD",
"s c #B7C8DF",
"d c #B8C8DE",
"f c #8FC9E0",
"g c #91CBE1",
"h c #9CCDE2",
"j c #94D2E6",
"k c #97D5E8",
"l c #9CD7E9",
"z c #97D8EA",
"x c #9AD9EA",
"c c #A6CFE3",
"v c #AECBE1",
"b c #B6C8E0",
"n c #BCCCE1",
"m c #A4D5E7",
"M c #A0D6E8",
"N c #A4DDED",
"B c #A9DFED",
"V c #B5DFED",
"C c #A7E0EE",
"Z c #ABE1EE",
"A c #B1E2EF",
"S c #B5E5F1",
"D c #BAE6F2",
"F c #BCE9F3",
"G c #C0CFE3",
"H c #C4D2E5",
"J c #C9D6E7",
"K c #C5D5E8",
"L c #C9D7E9",
"P c #C6DFED",
"I c #CCD9EA",
"U c #D3DEEC",
"Y c #CBE1EE",
"T c #D6E0ED",
"R c #D9E2EE",
"E c #C0E4F0",
"W c #C3E9F3",
"Q c #CBEDF5",
"! c #DDE6F1",
"~ c #D2EEF6",
"^ c #D8EFF6",
"/ c #D4F0F7",
"( c #D7F1F8",
") c #DBF2F9",
"_ c #E3EAF4",
"` c #E9EFF6",
"' c #EBF1F7",
"] c #E1F4FA",
"[ c #EDF2F8",
"{ c #F0F4F9",
"} c None",
/* pixels */
"}}}}}}}}}}}}}}}}}}}}}}}}}}}}}}}}}}}}}}}}}}}}}}}}}}}}}}}}}}}}}}}}",
"}}}}}}}}}}}}}}}}}}}}}}}}}}}}}}}}}}}}}}}}}}}}}}}}}}}}}}}}}}}}}}}}",
"}}}}}}}}}}}}}}}}}}}}}}}}}}}}}}}}}}}}}}}}}}}}}}}}}}}}}}}}}}}}}}}}",
"}}}}}}}}}}}}}}}}}}}}}}}}}}}}}}}}}}}}}}}}}}}}}}}}}}}}}}}}}}}}}}}}",
"}}}}}}}}}}}}}}}}}}}}}}}}}}}}}}}}}}}}}}}}}}}}}}}}}}}}}}}}}}}}}}}}",
"}}}}}}}}}}}}}}}}}}}}}}}}}}}}}}}}}}}}}}}}}}}}}}}}}}}}}}}}}}}}}}}}",
"}}}}}}}}}}}}}}}}}}}}}}}}}}}}}}}}}}}}}}}}}}}}}}}}}}}}}}}}}}}}}}}}",
"}}}}}}}}}}}}}}}}}}}}}}}}}}}}}}}}}}}}}}}}}}}}}}}}}}}}}}}}}}}}}}}}",
"}}}}}}}}}}}}}}}}}}}}}}}}}}}}}}}}}}}}}}}}}}}}}}}}}}}}}}}}}}}}}}}}",
"}}}}}}}}}}}}}}}}}}}}}}}}}}}}}}}}}}}}}}}}}}}}}}}}}}}}}}}}}}}}}}}}",
"}}}}}}}}}}}}}}}}}}}}}}&&&&&&&&&&$$}}}}}}}}}}}}}}}}}}}}}}}}}}}}}}",
"}}}}}}}}}}}}}}}}@####%H!TRTRRRRUt0,###}}}}}}}}}}}}}}}}}}}}}}}}}}",
"}}}}}}}}}}@@@@+&nHHHHH`[[[[[[{{'Rs0442&#@@@@@@}}}}}}}}}}}}}}}}}}",
"}}}}}}}}}%,wyyya`{[[[[[[[[[[{''[[UJnyy42222221>}}}}}}}}}}}}}}}}}",
"}}}}}}}@$,p_[[[['[[{[[[[[[[['{{''[[!nnHdsddddaw::&&:&:;&}}}}}}}}",
"}}}}}}##,tp!``_``_!!!!!_``'['{'[[[[['''Hpssdddaayyyreww:#}}}}}}}",
"}}}}}}#1rryaaaaap1;;;;;pJJI_'`''['[[[[[Gydddddddssyyw&&$#}}}}}}}",
"}}}}}}@2yyaaaaaaarww0441>>,22aUT`[{{[`Jayayyyayy>::&:940,@}}}}}}",
"}}}}}$,0rrddadddadddaaaw22111240tydJJJyyyyr1,,,,11112tyy01$}}}}}",
"}}}}}$0yaGJJJJHadddddddddsprr2:;;;4trtyyyyt,;;;>tyyyyyyyy0$}}}}}",
"}}}}}#0yH[[[[[!adddddGGGGGnspyyyyyyyryyyyyyyyyyyaaaaaayyy0$}}}}}",
"}}}}}$0yG'[[[['_ddddG_````'`Gpyyyyyyyyyyyyyyyyys!````_syy0#}}}}}",
"}}}}}#0ypH'[[[[`GpaddH_'[[''_!_UatyyyyyryyyytG!_'[[[''sey0#}}}}}",
"}}}}}}:0raJJIIIJdpaddd_'[['!`[{'Uartyyr42yytG_'{['[[`HpHH0#}}}}}",
"}}}}}}@2yyssddddappadG_''''I_''''UHntyy;>yyG_''[[[[[_ayU_a$}}}}}",
"}}}}}}#2ypsddddprrrpddT`'{`U_''{[`{Ryyy>>yn`{'{'['[`UytU'U$}}}}}",
"}}}}}}@2ypssddarrprpdddU'[`U_''{['{Uyyy>>d`['{'[[[[RprpU{U#}}}}}",
"}}}}}}@2yyaddayyrrrpdddaJ[`I_'{''{{Uyyy>;d`[['{''[[RyyU`{U&}}}}}",
"}}}}}}#2aadddpyyrrrpdddadU'U_'{'[{{Uyyy;;d`{['[[[[Udyyn!!p$}}}}}",
"}}}}}}}>0ddddpyyrprpdddddnJJ_''{[{{Uyr424b`{[[[[[{JtyytnH0#}}}}}",
"}}}}}}}@,ddddprrrrrpdadddarpR[''[[[Ure&2yd`'[[[[`_Gyryytw2#}}}}}",
"}}}}}}}@>yddpryaaprrraaddar;H{[[[[{Ure;2yd`[[[[['nyyyytt1$}}}}}}",
"}}}}}}}@;yynyyn__dtrdUnyddy&G{['[[{Uyr&2rd[[[[[[`Grryyy1$}}}}}}}",
"}}}}}}}@,yyyyyyG`_GeyGUGydd&wU{{[[{Uyy&2rd`[[[[`Gyrryyy;#}}}}}}}",
"}}}}}}}@;yyyyytyG`_GyyGUJda;2bU'`[[_Jy&2rd`[[[_Jyyyyyyy,#}}}}}}}",
"}}}}}}}&4yGyyytrtJ__GyrHJdy&4yG`[[[[_y,4rd`[[[Rryyyyyyy;+}}}}}}}",
"}}}}}}#2yn_dryyayyJ`_byyrye&4rn`[[[{_yyyyd[[[`Uyyyyyyyy1$}}}}}}}",
"}}}}}}#2yG`yryn!ayyG``nyrye&4yn`[[[[_yyyyn`[[UyyyRHeyyyy2#}}}}}}",
"}}}}}}$1G_`dtyyGUdtyG'_nryrwryn`[[[[`yddyyn_Jyry!JyGUyUG2#}}}}}}",
"}}}}}$,wH{'yyyyyGUGyyG__UJyryyyJ`[[[_yddnyyGaydUJyGUJU[J2@}}}}}}",
"}}}}}#0nU''IyyyyyJGrtyJU__yyryra_[[[_ybdddyyyydIynIHa`{H2@}}}}}}",
"}}}}}$0U{['{JatyyyyytyytGUyyyyra_[[[_abdddnyyyyydUHts`_n1#}}}}}}",
"}}}}}#0U'['{'Jryyyyyyyyyyyyyyyya_`[[_yadddddyyyd!nyra_nr2#}}}}}}",
"}}}}}#0U{{''{Uttyytytyyyrryyryryy_[[_yabdddddnyysytts_d,$}}}}}}}",
"}}}}}$0bU{''[_Iyrrrryy,;;1ryyt0,nUTInpbbdddddddyyrtdR`b>@}}}}}}}",
"}}}}}#,0G{{{{{U2112211;##;2244,&wGKGp4ypdyddddddaytG[`d>@}}}}}}}",
"}}}}}}#2nRRULUI>,##@+@########$$$bLLb&4440eeyndddaaI'!e:}}}}}}}}",
"}}}}}}%1etw&$0LJG0;&+    X  X .. yLLn&$$###$wyynaaU_!p&}}}}}}}}}",
"}}}}}}j3&:;&&wJHKHnnvo.X  ... ...eLLb+$+O&$&&$>rraaape&}}}}}}}}}",
"}}}}}}xgu8$##>222nLLKpyy1   . ...$eLbo@OXooXXXo#>ey4;=8j}}}}}}}}",
"}}}}B(QZZV76*####2w014nIb499$ ... 4Lbo+o ...  .@&:,166zSS}}}}}}}",
"}}}BD)QZZWxZi99--3&+XO0vypLI& ....4Lbo+o. ..oo+$#*-qAZCFQZ}}}}}}",
"}xxA)(CxCxC/))WxBNq;%&$&$$bn& . . 4LboOo...X+&&&>hCA))FSWQBBBN}}",
"}xxA~BxWQSSD/WxNQ)^Dg&$%$$&&+.  . 2Kao....X+$$-l~))~DDDDZZ~^)Fxx",
"xxxxBxZDDSD/DxxxBBBBNPYYt$$$$$$+..O$#..+#+@8ggm/]]/FSDSCxxBBBDWx",
"xzASzzSSSSCABzx}}}}xxASDm87vb9$$OO$++@++=8ukSW~]QQFDDDCDSBWWBBS}",
"xzSSxSSSDSCxZSS}}}}}xxzzxxxFQm-3-=%$$%$*uxxSFWWWDSAZZZxSANWWZx}}",
"}xkxC)QDFFSxF)/Cx}}}}}}}}}xxxxxxz5%==&*uxxC)SxxxSSCxzxxxxzxx}}}}",
"}}}}B()QWQxxxD)/Bx}}}}}}}}}}}}}}xkkkkzkxCSD(Sx}}}}}}}}xxx}}}}}}}",
"}}}}xB^]WCxxxxNZQB}}}}}}}}}}}}}}}}}}zxWSCSSFQFxxxxxx}}}}}}}}}}}}",
"}}}}}}ZABzxWQQDxZN}}}}}}}}}}}}}}}}}}}xZWWDSSFQQQQBzxx}}}}}}}}}}}",
"}}}}}}}xzkNFWWSxxx}}}}}}}}}}}}}}}}}}}xkSSBZZBSFW)Zzx}}}}}}}}}}}}",
"}}}}}}}}}}}xxxxx}}}}}}}}}}}}}}}}}}}}}xxzxxxxxzxx}}}}}}}}}}}}}}}}",
"}}}}}}}}}}}}}}}}}}}}}}}}}}}}}}}}}}}}}}}}}}}}}}}}}}}}}}}}}}}}}}}}"
};
