/* XPM */
static char *result[] = {
/* columns rows colors chars-per-pixel */
"64 64 226 2 ",
"   c #3F5EAE",
".  c #3A5EB1",
"X  c #3D66BA",
"o  c #4964A4",
"O  c #4C6BAD",
"+  c #4664AB",
"@  c #5C6EA8",
"#  c #5071AF",
"$  c #4466B4",
"%  c #456AB4",
"&  c #4B6BB4",
"*  c #4567B8",
"=  c #4669BA",
"-  c #496CBD",
";  c #4671B2",
":  c #4B73BD",
">  c #4C7BBD",
",  c #4F76B3",
"<  c #5B7BB5",
"1  c #5A7EBB",
"2  c #5477B8",
"3  c #647EBC",
"4  c #6577B4",
"5  c #476FC1",
"6  c #4674C5",
"7  c #4B7DCD",
"8  c #4777C8",
"9  c #507BC8",
"0  c #5D84BD",
"q  c #5682BD",
"w  c #6C83B7",
"e  c #6683BB",
"r  c #6A86BB",
"t  c #6589BF",
"y  c #6E8BBD",
"u  c #7588BC",
"i  c #7E90BE",
"p  c #5D86C3",
"a  c #5A8CC7",
"s  c #5987C7",
"d  c #5E93CD",
"f  c #4983D5",
"g  c #5689D3",
"h  c #5C91D8",
"j  c #5898DA",
"k  c #648CC3",
"l  c #6C8CC3",
"z  c #628FCA",
"x  c #6888C6",
"c  c #708BC3",
"v  c #6690C6",
"b  c #6591CC",
"n  c #6B94CA",
"m  c #7594C6",
"M  c #7C93C2",
"N  c #7B9CC6",
"B  c #7D9DCD",
"V  c #7498CA",
"C  c #6A96D6",
"Z  c #649ADB",
"A  c #6A9BDB",
"S  c #6B98D6",
"D  c #5DA0DD",
"F  c #6CA1DF",
"G  c #63A4DE",
"H  c #75A2D5",
"J  c #7CA3D2",
"K  c #73A2DC",
"L  c #7BA6D9",
"P  c #7CAADB",
"I  c #79A9D9",
"U  c #7AA4CF",
"Y  c #4F90E1",
"T  c #5396E3",
"R  c #5B9DE2",
"E  c #679EE0",
"W  c #6DA9E5",
"Q  c #73A5E2",
"!  c #77AAE3",
"~  c #7AACE4",
"^  c #75AAEA",
"/  c #7DB9F3",
"(  c #76B6ED",
")  c #839BC6",
"_  c #8A99C5",
"`  c #909CC8",
"'  c #84A1CC",
"]  c #8DA3CB",
"[  c #94A4CC",
"{  c #96A8CF",
"}  c #83A5D3",
"|  c #84ACD4",
" . c #8CABD4",
".. c #84ADDA",
"X. c #88AEDA",
"o. c #8AA7D2",
"O. c #94ACD3",
"+. c #9AAED3",
"@. c #93AFD8",
"#. c #8CB2DB",
"$. c #89B3D9",
"%. c #94B1D5",
"&. c #9BB1D5",
"*. c #91B5DE",
"=. c #9BB5DB",
"-. c #94BBDE",
";. c #9CBBDD",
":. c #A3B5D7",
">. c #A6BBD7",
",. c #A4B5DA",
"<. c #A3BCDC",
"1. c #AABBDB",
"2. c #81ADE3",
"3. c #85B3E5",
"4. c #8BB5E6",
"5. c #8CB9E5",
"6. c #83B5EB",
"7. c #8BBAEC",
"8. c #8BB7EA",
"9. c #91B7E2",
"0. c #93BCE4",
"q. c #9BBDE3",
"w. c #93BCEA",
"e. c #8DBEF1",
"r. c #84B7F6",
"t. c #A1BDE1",
"y. c #9FC3DD",
"u. c #AEC2DD",
"i. c #A3C6DF",
"p. c #B6C4DD",
"a. c #8CC3ED",
"s. c #8AC1EB",
"d. c #97C0E4",
"f. c #9BC3E4",
"g. c #9FC9E4",
"h. c #93C4EC",
"j. c #9AC4EC",
"k. c #9DCBED",
"l. c #96C8EC",
"z. c #8CC3F1",
"x. c #8EC8F8",
"c. c #93C4F3",
"v. c #99C6F3",
"b. c #9DCBF4",
"n. c #9FCAF8",
"m. c #92C8F8",
"M. c #9DD2F9",
"N. c #A4C5E5",
"B. c #ADC4E1",
"V. c #A4CBE5",
"C. c #AACAE6",
"Z. c #A5C6E8",
"A. c #A3CCEC",
"S. c #A9CCEA",
"D. c #A9C7EA",
"F. c #B4C7E2",
"G. c #B3CBE5",
"H. c #BCCDE5",
"J. c #B2CEEB",
"K. c #A5D1EE",
"L. c #ACD3EC",
"P. c #AFD9ED",
"I. c #ACD6E7",
"U. c #B4D2EB",
"Y. c #BCD3EC",
"T. c #B6DDEF",
"R. c #BCDCEE",
"E. c #B6D0E6",
"W. c #A3CEF5",
"Q. c #A9CEF4",
"!. c #A4CEFC",
"~. c #A5CBF7",
"^. c #ABD5F3",
"/. c #A6D1FB",
"(. c #ABD4FB",
"). c #AEDAFC",
"_. c #A5D1F6",
"`. c #B4D5F4",
"'. c #B3DBF3",
"]. c #BBDBF3",
"[. c #B3DAFB",
"{. c #BADDFB",
"}. c #B9D5F5",
"|. c #BEE3EE",
" X c #BDE1F3",
".X c #BDE1FC",
"XX c #C4CFE1",
"oX c #C2D6EB",
"OX c #C3DBEE",
"+X c #CADBED",
"@X c #C7D2E5",
"#X c #D3DBEA",
"$X c #C4DCF2",
"%X c #CBDEF2",
"&X c #C2DEFB",
"*X c #C1E1EF",
"=X c #D9E2EF",
"-X c #D7E1ED",
";X c #C5E3F4",
":X c #CCE4F4",
">X c #CCE9F5",
",X c #C4E4FB",
"<X c #CBE5FB",
"1X c #C6EAFA",
"2X c #CDEBFA",
"3X c #D4E3F3",
"4X c #D9E5F3",
"5X c #D5EAF6",
"6X c #DAECF7",
"7X c #D2E6FC",
"8X c #D4EBFC",
"9X c #DCEDFA",
"0X c #DAE7F8",
"qX c #DDF1FB",
"wX c #D7F0FA",
"eX c #E3EDF6",
"rX c #E2EFFB",
"tX c #E0E7F0",
"yX c #E4F3FC",
"uX c #EBF4FC",
"iX c #E6F8FE",
"pX c #ECFBFF",
"aX c #F2F6FB",
"sX c #F3FBFE",
"dX c #FEFFFF",
"fX c None",
/* pixels */
"fXfXfXfXfXfXfXfXfXfXfXfXfXfXfXfXfXfXfXfXfXfXfXfXfXfXfXfXfXfXfXfXfXfXfXfXfXfXfXfXfXfXfXfXfXfXfXfXfXfXfXfXfXfXfXfXfXfXfXfXfXfXfXfX",
"fXfXfXfXfXfXfXfXfXfXfXfXfXfXfXfXfXfXfXfXfXfXfXfXfXfXfXfXfXfXfXfXfXfXfXfXfXfXfXfXfXfXfXfXfXfXfXfXfXfXfXfXfXfXfXfXfXfXfXfXfXfXfXfX",
"fXfXfXfXfXfXfXfXfXfXfXfXfXfXfXfXfXfXfXfXfXfXfXfXfXfXfXfXfXfXfXfXfXfXfXfXfXfXfXfXfXfXfXfXfXfXfXfXfXfXfXfXfXfXfXfXfXfXfXfXfXfXfXfX",
"fXfXfXfXfXfXfXfXfXfXfXfXfXfXfXfXfXfXfXfXfXfXfXfXfXfXfXfXfXfXfXfXfXfXfXfXfXfXfXfXfXfXfXfXfXfXfXfXfXfXfXfXfXfXfXfXfXfXfXfXfXfXfXfX",
"fXfXfXfXfXfXfXfXfXfXfXfXfXfXfXfXfXfXfXfXfXfXfXfXfXfXfXfXfXfXfXfXfXfXfXfXfXfXfXfXfXfXfXfXfXfXfXfXfXfXfXfXfXfXfXfXfXfXfXfXfXfXfXfX",
"fXfXfXfXfXfXfXfXfXfXfXfXfXfXfXfXfXfXfXfXfXfXfXfXfXfXfXfXfXfXfXfXfXfXfXfXfXfXfXfXfXfXfXfXfXfXfXfXfXfXfXfXfXfXfXfXfXfXfXfXfXfXfXfX",
"fXfXfXfXfXfXfXfXfXfXfXfXfXfXfXfXfXfXfXfXfXfXfXfXfXfXfXfXfXfXfXfXfXfXfXfXfXfXfXfXfXfXfXfXfXfXfXfXfXfXfXfXfXfXfXfXfXfXfXfXfXfXfXfX",
"fXfXfXfXfXfXfXfXfXfXfXfXfXfXfXfXfXfXfXfXfXfXfXfXfXfXfXfXfXfXfXfXfXfXfXfXfXfXfXfXfXfXfXfXfXfXfXfXfXfXfXfXfXfXfXfXfXfXfXfXfXfXfXfX",
"fXfXfXfXfXfXfXfXfXfXfXfXfXfXfXfXfXfXfXfXfXfXfXfXfXfXfXfXfXfXfXfXfXfXfXfXfXfXfXfXfXfXfXfXfXfXfXfXfXfXfXfXfXfXfXfXfXfXfXfXfXfXfXfX",
"fXfXfXfXfXfXfXfXfXfXfXfXfXfXfXfXfXfXfXfXfXfXfXfXfXfXfXfXfXfXfXfXfXfXfXfXfXfXfXfXfXfXfXfXfXfXfXfXfXfXfXfXfXfXfXfXfXfXfXfXfXfXfXfX",
"fXfXfXfXfXfXfXfXfXfXfXfXfXfXfXfXfXfXfXfXfXfXfXfXfXfXfXfXfXfXfXfXfXfXfXfXfXfXfXfXfXfXfXfXfXfXfXfXfXfXfXfXfXfXfXfXfXfXfXfXfXfXfXfX",
"fXfXfXfXfXfXfXfXfXfXfXfXfXfXfXfXfXfXfXfXfXfXfXfXfXfXfXfXfXfXfXfXfXXXu.fXfXfXfXfXfXfXfXfXfXfXfXfXfXfXfXfXfXfXfXfXfXfXfXfXfXfXfXfX",
"fXfXfXfXfXfXfXfXfXfXfXfXfXfXfXfXfXfXfXfXfXfXfXfXfXfXfXfXfXfXp.-XyX>X*XE.&.fXfXfXfXfXfXfXfXfXfXfXfXfXfXfXfXfXfXfXfXfXfXfXfXfXfXfX",
"fXfXfXfXfXfXfXfXfXfXfXfXfXfXfXfXfXfXfXfXfXfXfXfXfXfXfXfXfX@XuXsXyX*XR.V.-.' fXfXfXfXfXfXfXfXfXfXfXfXfXfXfXfXfXfXfXfXfXfXfXfXfXfX",
"fXfXfXfXfXfXfXfXfXfXfXfXfXfXfXfXfXfXfXfXfXfXfXfXfXfXfXfX@XsXpXpXuX:XP.f.} m fXfXfXfXfXfXfXfXfXfXfXfXfXfXfXfXfXfXfXfXfXfXfXfXfXfX",
"fXfXfXfXfXfXfXfXfXfXfXfXfXfXfXfXfXfXfXfXfXfXfXfXfXfXfXfXaXsXsXpX5X*XE.y.B l m fXfXfXfXfXfXfXfXfXfXfXfXfXfXfXfXfXfXfXfXfXfXfXfXfX",
"fXfXfXfXfXfXfXfXfXfXfXfXfXfXfXfXfXfXfXfXfXfXfXfXfXfXfX4XdXdXdXqX|.R.OXC.V l m fXfXfXfXfXfXfXfXfXfXfXfXfXfXfXfXfXfXfXfXfXfXfXfXfX",
"fXfXfXfXfXfXfXfXfXfXfXfXfXfXfXfXfXfXfXfXfXfXfXfXfXp.eXpXsXdXdX5XR.R.|.N.V l y c r r fXfXfXfXfXfXfXfXfXfXfXfXfXfXfXfXfXfXfXfXfXfX",
"fXfXfXfXfXfXfXfXfXfXfXfXfXfXfXfXfXfXfXfXfXfXfXfXfXeXsXpXpXpXsXwXR.R.OXq.m m w r 4 e fXfXfXfXfXfXfXfXfXfXfXfXfXfXfXfXfXfXfXfXfXfX",
"fXfXfXfXfXfXfXfXfXfXfXfXfXfXfXfXfXfXfXfXfXfXfXfX-XdXdXdXsXsXpXqXR.|.R.;.' ' y w @ 3 c fXfXfXfXfXfXfXfXfXfXfXfXfXfXfXfXfXfXfXfXfX",
"fXfXfXfXfXfXfXfXfXfXfXfXfXfXfXfXfXfXfXfXfXfXfXfXaXdXdXdXdXdXsX6XU.*XR.;.O.O.M w @ 4 x fXfXfXfXfXfXfXfXfXfXfXfXfXfXfXfXfXfXfXfXfX",
"fXfXfXfXfXfXfXfXfXfXfXfXfXfXfXfXfXfXfXfXfXfXfX=XdXdXdXdXdXdXsX:XN.E.R.=.&.[ _ i 4 4 3 c fXfXfXfXfXfXfXfXfXfXfXfXfXfXfXfXfXfXfXfX",
"fXfXfXfXfXfXfXfXfXfXfXfXfXfXfXfXfXfXfXfXfXfXH.sXdXdXdXdXdXdXqX*Xi.G.OX=.+.[ [ ` u 4 3 x fXfXfXfXfXfXfXfXfXfXfXfXfXfXfXfXfXfXfXfX",
"fXfXfXfXfXfXfXfXfXfXfXfXfXfXfXfXfXfXfXfXfX4XaXdXdXdXdXdXdXsX>X:XB.G.*X>.+.[ [ ` _ u 4 p x fXfXfXfXfXfXfXfXfXfXfXfXfXfXfXfXfXfXfX",
"fXfXfXfXfXfXfXfXfXfXfXfXfXfXfXfXfXfXfX#XsXdXdXdXdXdXdXdXdXuX5XuXH.B.:X<.&.{ +.{ ` M e < 0 fXfXfXfXfXfXfXfXfXfXfXfXfXfXfXfXfXfXfX",
"fXfXfXfXfXfXfXfXfXfXfXfXfXfXfXfXfXfXH.dXdXdXdXdXdXdXdXdXdXyXeXsXOXB.Y.G.&.{ :.,.[ ) l < 1 0 fXfXfXfXfXfXfXfXfXfXfXfXfXfXfXfXfXfX",
"fXfXfXfXfXfXfXfXfXfXfXfXfXfXfXfXfXfXeXdXdXdXdXdXdXdXdXdXsX6XeXuX3XB.G.oX,.,.1.,.{ ] i e x &.#X#XXXfXfXfXfXfXfXfXfXfXfXfXfXfXfXfX",
"fXfXfXfXfXfXfXfXfXfXfXfXfXfXfXfXfX+XdXdXdXdXdXdXdXdXsXsXuX5X6XyX4XF.B.H.p.1.,.,.+.] N y +.pXdXsXsXtXfXfXfXfXfXfXfXfXfXfXfXfXfXfX",
"fXfXfXfXfXfXfXfXfXfXfXfXfXfXfXfXfX3XdXdXdXdXdXdXdXpXpXsXyX>X5X6X9XG.B.B.1.:.:.=.%.] N ) 3XiXsXdXdXsX:XfXfXfXfXfXfXfXfXfXfXfXfXfX",
"fXfXfXfXfXfXfXfXfXfXfXfXfXfXfXfXfX%XdXdXdXdXdXdXpXpXpXpX6X>X5X6XeXH.B.B.:.&.=.=.O.) y >.pXiXpXsXpXqX].%.fXfXfXfXfXfXfXfXfXfXfXfX",
"fXfXfXfXfXfXfXfXfXfXfXfXfX%X$XfXfXfXdXdXdXdXdXdXsXpXpXpX5X5X5X5X9X+XF.1.=.&.&.@.' l y 3XpXiXiXpXiX1XI.| fXfXfXfXfXfXfXfXfXfXfXfX",
"fXfXfXfXfXfXfXfXfXfXfXeXqX2X1X1XN.fXdXdXdXdXdXdXsXsXpXsX6X5X5X5X6X5XG.,.+.&.@.o.N y p.iXpXiXpXpXwX Xg.| ' fXfXfXfXfXfXfXfXfXfXfX",
"fXfXfXfXfXfXfXfXfXfXfXsXiX2X>X1X XJ.aXdXdXdXdXdXdXsXsXsXyX5XwX5X5XwXoX&.%.%. .J m <.5XiXpXpXpXqX1X;Xg.| $.fXfXfXfXfXfXfXfXfXfXfX",
"fXfXfXfXfXfXfXfXfXfXfXdXpXqX2X1X'.U.uXdXdXdXdXdXdXsXsXdXaX5X5X5X5X6XE.+.%.O.o.B 1.U.$XyXpXiXiX>X;X>XV.| | N fXfXfXfXfXfXfXfXfXfX",
"fXfXfXfXfXfXfXfXfXfXfXdXsXpXwX,XK.k.5XdXdXdXdXdXdXdXdXdXsX5X5X5X5X>XF.%.@. .' %.4XR.$XqXiXpXwX1X1X>Xg.$.V y fXfXfXfXfXfXfXfXfXfX",
"fXfXfXfXfXfXfXfXfXfXfXsXsXpXwX>XS.h.Y.dXdXdXdXdXdXdXdXdXaXyXqX6X>X*X;.%. .o.} oXeX4X3XqXqXwX,X XwX>Xg.H v fXfXfXfXfXfXfXfXfXfXfX",
"fXfXfXfXfXfXfXfXfXfX%XrXsXpXwX2XK.5.Y.dXdXdXdXdXdXdXdXaXyXqXwX>X|.i.'  .o.' <.S.Y.OXU.].,X X].>XiX;Xd.v t fXfXfXfXfXfXfXfXfXfXfX",
"fXfXfXfXfXfXfXfXfXfX$XyXpXpXqX>X].0.4XdXdXdXdXdXdXdXpXqXwXwX*X|.V.' ' o.' @.Z.d.Z.S.S.A.k.P.>XpXwX|.y.0 v fXfXfXfXfXfXfXfXfXfXfX",
"fXfXfXfXfXfXfXfXfXoXuXsXsXpXqX;X5XY.uXdXdXdXdXdXdXsXeXyXwX>X|.I.| N ' ) B ;.f.d.Z.S.A.h.k.$XuX5X|. X$.0 t fXfXfXfXfXfXfXfXfXfXfX",
"fXfXfXfXfXfXfXfXfX3XdXdXpXpX6X$XrX6XdXdXdXdXdXdXsXqXyXqX>X|.P.$.i '  .%.>.Z.d.d.S.S.j.S.%X5XR.V.|.P.U 0 t fXfXfXu.fXfXfXfXfXfXfX",
"fXfXfXfXfXfXfXfXfX4XdXdXsXpX5X:XeXuXdXdXdXdXdXsXqXqXyX6X;XT.i.u.H.@XOXOXOXoXJ.S.Z.f.f.D.U.C.y.I.|.N.v 0 0 ) oX5X$.fXfXfXfXfXfXfX",
"fXfXfXfXfXfXfXfXfX4XdXdXsXpX>X>XeXuXsXsXsXsXsXyX9XyX6X:XI.R.uXdXsXaX-XOXoXoXG.-.P I P X.#.-.d.].'.| 0 e 0 u.qXS.t fXfXfXfXfXfXfX",
"fXfXfXfXfXfXfXfXfX3XdXdXdXpX>X:X8X0XpXuXuXpXpXqX5X9X3XJ.i.yXuXsXdXdXuX:XG.-.L H K I X.#.#.-.]. XK.v 0 , < N.].V 2 fXfXfXfXfXfXfX",
"fXfXfXfXfXfXfXfXfXfXsXdXdXuX;X:X;X3XrXeXeX9X5X;X].$XU.-.3XdX3X<.R.yXeXE.#.H H K I X.#.#.#.U.7X].I.v 0 # , y.j.k 0 fXfXfXfXfXfXfX",
"fXfXfXfXfXfXfXfXfXfXsXdXdXuX$X;X[.{.%XoXOX$X9X;XV.S.9.G.dXuXq.} } ;.f.*.X.| P L ..#.#.#.N.2X2XT.g.k q O # | H v < fXfXfXfXfXfXfX",
"fXfXfXfXfXfXfXfXfXfXuXdXdXyX6X^.!.Z.Z.q.#.Y.pX>XK.5.-.yXdX%X} } } | #.#.*.#.#.*.f.q.#.#.].8X,X^.k.k q ; , z z < o fXfXfXfXfXfXfX",
"fXfXfXfXfXfXfXfXfXfX=XdXsXyXuX$XW.j.X.q.q.rXpX2XA.3.Y.dX+X=.o.J J } #.#.X.#.N.<X8X].d.0.<X<X XK.g.a > ; 1 z p o o fXfXfXfXfXfXfX",
"fXfXfXfXfXfXfXfXfXfXfXsXsXrXuX9X`.Q.3.} Y.sXiX2Xb.w.9X%XY.4X5Xt.J J X.X.*.J.7X8X2X'.K.`.<X<X^.A.I > ; , a z O o O fXfXfXfXfXfXfX",
"fXfXfXfXfXfXfXfXfXfXfXuXdXeX6XyX].j.5.L oXsXqX2Xb.].yXrXaXsX8X%XX.J #.9.}.2X8X8X,X^.'.,X XP.l.s.a X ; q z 9 o + & fXfXfXfXfXfXfX",
"fXfXfXfXfXfXfXfXfXfXfXuXsX8X%XaX,X9.J 2.%XaX<X<X8XuXaXaXaXyX,X,XU.} #.}.2X1X,X,X^.K.^.K.l.l.l.H d > ; q a & + & fXfXfXfXfXfXfXfX",
"fXfXfXfXfXfXfXfXfXfXfXuXuX5X{.rX7Xf.b } 7XyX7XuXuXuXyXuXyX8X.X X,XZ.j.<X,X.X.X.XA.l.l.k.b.a.s.s.W d ; > : * % - fXfXfXfXfXfXfXfX",
"fXfXfXfXfXfXfXfXfXfXfXyXaX9X}.7XrXS.S C $X8X0XyXuXuXuXyXyX,X'.{.`.A.`.,X.X.X.X(.v.h.^.[.l.z.x.s.D D > + + = * fXfXfXfXfXfXfXfXfX",
"fXfXfXfXfXfXfXfXZ.#.fX0XyXrX}.[.9X}.L s D.<XrXrXrXrXrXrX9X{.^.`.b.v.,X.X[.[.[.W.h.^.[.v.x.x.z.W D D : + $ % = fXfXfXfXfXfXfXfXfX",
"fXfXfXfXfXfXfXfX$XJ.~ q.rXuX&X(.%X`.2.p 9.&X9XrX9XrX8X7X2X{.b.~.e.W.{.[.).(./.m._./.7.c.).M.( D R D : X * * - fXfXfXfXfXfXfXfXfX",
"fXfXfXfXfXfXfXfX$X7Xv.K }.rX{.(.~.$X4.b w.&X8X0X7X9X7X,X.X(.v.~.e.(././././.!.b.(.e.z.).).x.W T T T 6 $ * = 5 fXfXfXfXfXfXfXfXfX",
"fXfXfXfXfXfXfXfXfX7X&X^ Q ~.!.~.~.Q.3.K 6.&X7X7X&X&X[.[.[.!.m.m.e.(.!.!.!.!././.v./ /.).x./ R Y T Y : * = - - fXfXfXfXfXfXfXfXfX",
"fXfXfXfXfXfXfXfXfXJ.`.e.^ Q e.m.w.j.2.Q ! }.{.Q.v.z.e.a.e.e.e.6.e.(.!.!.!.n.b.!.6.^ b.c./ ^ f f 7 6 * = = = 5 fXfXfXfXfXfXfXfXfX",
"fXfXfXfXfXfXfXfXfXfXw.v.e.Q ^ r.fX2.^ K ! 8.3.~ ~ ~ ~ ~ ~ ~ ~ Q 2.v.w.w.8.8.8.8.Q Z ~ ~ E h 7 8 8 2 - = = - - fXfXfXfXfXfXfXfXfX",
"fXfXfXfXfXfXfXfXfXfXfX7.m.fXfXfXfXS ! Q S 2.~ ~ ! ! ! ! ! ! ! A S 0.w.9.4.3.3.~ Q Z Q E g 7 8 X 3 9.- * = $ = fXfXfXfXfXfXfXfXfX",
"fXfXfXfXfXfXfXfXfXfXfXfXe.fXfXfXfXfXK ~ Q 9.3.~ ~ ! ! ~ ! ! ~ C S w.0.w.w.w.3.~ Z Z Q A f 7 5 X 2 x $ $ $ $ $ fXfXfXfXfXfXfXfXfX",
"fXfXfXfXfXfXfXfXfXfXfXfXfXfXfXfXfXfXfXfXfXfXfXfXfXfXfXfXfXfXfXfXfXfXfXZ.w.w.8.~ Z E Q h 7 6 5 . fXfXfXfXfXfXfXfXfXfXfXfXfXfXfXfX",
"fXfXfXfXfXfXfXfXfXfXfXfXfXfXfXfXfXfXfXfXfXfXfXfXfXfXfXfXfXfXfXfXfXfXfXfXfXfXfXfXfXfX3.A g 9 * $ fXfXfXfXfXfXfXfXfXfXfXfXfXfXfXfX",
"fXfXfXfXfXfXfXfXfXfXfXfXfXfXfXfXfXfXfXfXfXfXfXfXfXfXfXfXfXfXfXfXfXfXfXfXfXfXfXfXfXfXfXfXfXfXfXfXfXfXfXfXfXfXfXfXfXfXfXfXfXfXfXfX",
"fXfXfXfXfXfXfXfXfXfXfXfXfXfXfXfXfXfXfXfXfXfXfXfXfXfXfXfXfXfXfXfXfXfXfXfXfXfXfXfXfXfXfXfXfXfXfXfXfXfXfXfXfXfXfXfXfXfXfXfXfXfXfXfX"
};
