/* XPM */
static char *result[] = {
/* columns rows colors chars-per-pixel */
"64 64 176 2 ",
"   c #163F56",
".  c #174057",
"X  c #184157",
"o  c #1B435B",
"O  c #22465B",
"+  c #24485E",
"@  c #1E4B65",
"#  c #1E4760",
"$  c #234B63",
"%  c #214E68",
"&  c #2E5267",
"*  c #25526C",
"=  c #2D566E",
"-  c #335366",
";  c #31576C",
":  c #34596E",
">  c #3B5B6D",
",  c #255672",
"<  c #2E5770",
"1  c #2A5D79",
"2  c #345A71",
"3  c #3A5F74",
"4  c #396076",
"5  c #34617B",
"6  c #3C657D",
"7  c #5E5E5F",
"8  c #605F5F",
"9  c #60605F",
"0  c #555E64",
"q  c #5A5F61",
"w  c #5D6063",
"e  c #58656D",
"r  c #44667A",
"t  c #456A7E",
"y  c #496B7F",
"u  c #5A6C75",
"i  c #626161",
"p  c #646B6F",
"a  c #6B6B6B",
"s  c #706F6F",
"d  c #70706F",
"f  c #696E71",
"g  c #6E767A",
"h  c #647278",
"j  c #717171",
"k  c #7E7D7C",
"l  c #2A6C91",
"z  c #2B7196",
"x  c #2D779E",
"c  c #2E789F",
"v  c #32769A",
"b  c #30799F",
"n  c #3A7B9E",
"m  c #327DA4",
"M  c #3B7DA1",
"N  c #3D82A6",
"B  c #3783AA",
"V  c #3C84AA",
"C  c #4184A6",
"Z  c #4F88A7",
"A  c #4185A9",
"S  c #4589AD",
"D  c #4A8CAE",
"F  c #528FAF",
"G  c #4D8DB0",
"H  c #518FB0",
"J  c #5491B0",
"K  c #5992B0",
"L  c #539ABF",
"P  c #599DBF",
"I  c #539DC3",
"U  c #55A1C7",
"Y  c #56A4CB",
"T  c #59A5CC",
"R  c #59A1C5",
"E  c #5BABD3",
"W  c #5DAFD8",
"Q  c #5FB0D7",
"!  c #5FB0D8",
"~  c #61A9CD",
"^  c #68ABCD",
"/  c #63A2C1",
"(  c #64AFD5",
")  c #68ADD0",
"_  c #6BB2D6",
"`  c #62B2D9",
"'  c #6BB6DB",
"]  c #6EB8DC",
"[  c #66B0D4",
"{  c #74BADD",
"}  c #7ABDDE",
"|  c #70B7DC",
" . c #8F999F",
".. c #959B9E",
"X. c #9E9E9E",
"o. c #9DA2A4",
"O. c #A4A5A5",
"+. c #A2A6A9",
"@. c #A3A9AC",
"#. c #ADADAD",
"$. c #A5ADB1",
"%. c #B3B3B3",
"&. c #B8B7B7",
"*. c #B8B8B8",
"=. c #8FB8CF",
"-. c #90B8CF",
";. c #92BBD2",
":. c #93BFD8",
">. c #83C1DF",
",. c #95C3DC",
"<. c #9DC6DD",
"1. c #9FC8DF",
"2. c #BCC1C5",
"3. c #BFC7CC",
"4. c #A2C9DE",
"5. c #A8CCDF",
"6. c #B2C9D6",
"7. c #B3CEDC",
"8. c #BBCBD3",
"9. c #9ACAE3",
"0. c #9DCFE9",
"q. c #97C8E2",
"w. c #9ED0EA",
"e. c #A1CDE4",
"r. c #AACEE1",
"t. c #A7D1E7",
"y. c #A6D3EC",
"u. c #ADD6ED",
"i. c #AFD8EE",
"p. c #A8D1E6",
"a. c #B4D3E1",
"s. c #BCD6E3",
"d. c #B7D8E7",
"f. c #B0D7EE",
"g. c #B3D9EE",
"h. c #BADCED",
"j. c #B2DAF0",
"k. c #BADDF0",
"l. c #BFE0EF",
"z. c #BFE0F1",
"x. c #C6C6C6",
"c. c #C5CACD",
"v. c #CCCDCD",
"b. c #C9CED1",
"n. c #CED6DA",
"m. c #D4D4D4",
"M. c #D2D9DE",
"N. c #DBDBDB",
"B. c #C4DAE4",
"V. c #C9DDE7",
"C. c #C4DEEB",
"Z. c #C9DFE9",
"A. c #D1DDE3",
"S. c #C0DFF0",
"D. c #C4E0EE",
"F. c #C8E0EB",
"G. c #D5E3EB",
"H. c #DEE6EB",
"J. c #D4E1E7",
"K. c #C4E2F1",
"L. c #CBE5F1",
"P. c #D0E7F2",
"I. c #D5EAF4",
"U. c #DAECF5",
"Y. c gray88",
"T. c #E4E9EC",
"R. c #E1E7EB",
"E. c #E4EEF3",
"W. c #E9EEF1",
"Q. c #E8F0F4",
"!. c #E6F2F8",
"~. c #EDF6FA",
"^. c #E4F1F7",
"/. c #F5FAFD",
"(. c #FAFDFE",
"). c None",
/* pixels */
").).).).).).).).).).).).).).).).).).).).).).).).).).).).).).).).).).).).).).).).).).).).).).).).).).).).).).).).).).).).).).).).",
").).).).).).).).).).).).).).).).).).).).).).).).).).).).).).).).).).).).).).).).).).).).).).).).).).).).).).).).).).).).).).).).",
").).).).).).).).).).).).).).).).).).).).).).).).).).).).).).).).X X ).).).).).).).).).).).).).).).).).).).).).).).).).).).).).).",
").).).).).).).).).).).).).).).).).).).).).).).).).).).).).).).).2 2 ).).).).).).).).).).).).).).).).).).).).).).).).).).).).).).",
").).).).).).).).).).).).).).).).).).).).).).).).).).).).).).X ; 6.6.2 X ).).).).).).).).).).).).).).).).).).).).).).).).).).).).",
").).).).).).).).).).).).).).).).).).).).).).).).).).).).).).= t Z.V.2 o ).).).).).).).).).).).).).).).).).).).).).).).).).).).).",
").).).).).).).).).).).).).).).).).).).).).).).).).).).).. & =.r./.R.2 X ).).).).).).).).).).).).).).).).).).).).).).).).).).).).",
").).).).).).).).).).).).).).).).).).).).).).).).).).).).; t e.z./.T.t = ).).).).).).).).).).).).).).).).).).).).).).).).).).).).",
").).).).).).).).).).).).).).).).).).).).).).).).).).X ; 6.B.I.U.(./.r.;.= X ).).).).).).).).).).).).).).).).).).).).).).).).).).",
").).).).).).).).).).).).).).).).).).).).).).).).).).: t B.U.I.U.(./.k.4.2 o ).).).).).).).).).).).).).).).).).).).).).).).).).).",
").).).).).).).).).).).).).).).).).).).).).).).).X ; 6.B.I.I.I.U././.h.<.= X ).).).).).).).).).).).).).).).).).).).).).).).).).).",
").).).).).).).).).).).).).).).).).).).).).).).).: y B.U.U.I.U.U.(./.k.<.6 ; ).).).).).).).).).).).).).).).).).).).).).).).).).).",
").).).).).).).).).).).).).).).).).).).).).).X : M.T.U.I.U.I.I.U.(./.k.u.e.-.=   ).).).).).).).).).).).).).).).).).).).).).).).).",
").).).).).).).).).).).).).).).).).).).).).).o 2 T.(.U.I.I.I.U.U././.k.k.f.<.< o ).).).).).).).).).).).).).).).).).).).).).).).).",
").).).).).).).).).).).).).).).).).).).).).).o > W.(.U.U.I.U.I.U.U.E./.~.k.<.= o ).).).).).).).).).).).).).).).).).).).).).).).).",
").).).).).).).).).).).).).).).).).).).).).).o : J.~.U.U.I.U.I.I.U.U.(./.k.<.6 = ).).).).).).).).).).).).).).).).).).).).).).).).",
").).).).).).).).).).).).).).).).).).).).).).o = ^ >.~./.U.U.I.I.I.U.(./.g.u.e.;.; o ).).).).).).).).).).).).).).).).).).).).).).",
").).).).).).).).).).).).).).).).).).).).).).o * T | ~.(.U.P.I.I.I.I.(./.h.u.u.,.< o ).).).).).).).).).).).).).).).).).).).).).).",
").).).).).).).).).).).).).).).).).).).).).).o * T | ~.(.h.g.I.I.g.h././.h.y.{ T * o ).).).).).).).).).).).).).).).).).).).).).).",
").).).).).).).).).).).).).).).).).).).).).).o * T | U.!.l.h.I.L.g.h././.i.0.' Y 1 * ).).).).).).).).).).).).).).).).).).).).).).",
").).).).).).).).).).).).).).).).X o ).).).).o * T ` ' >.!.~.k.g.g.g.U.L.{ ' ` Q T I * o ).).).).).).).).).).).).).).).).).).).).",
").).).).).).).).).).).).).).).).2 > ).).).).o * Y ` ! | ~./.u.y.g.g.C.d.{ ' Q ` ] ~ * o ).).).).).).).).).).).).).).).).).).).).",
").).).).).).).).).).).).).).X : M.M.; . ).).o * T ` ! ' L.P.{ { L.C.J F h.D.' ' K.a.; o ).).).).).).).).).).).).).).).).).).).).",
").).).).).).).).).).).).).).; y Q.W.y = ).).o * T ' ` ' l.C.} } h.d.N N a.d.} { h.7.2 o ).).).).).).).).).).).).).).).).).).).).",
").).).).).).).).).).).).. ; 6.F.(./.5.-.= X o < ,.e.' ! ' } C.h.} [ m b N H d.d.J M @ o ).).).).).).).).).).).).).).).).).).).).",
").).).).).).).).).).).).; y B.U.(./.k.4.6 & $ < <.y.] ' ` ' L.L.' E B m x C F.F.A z @ o ).).).).).).).).).).).).).).).).).).).).",
").).).).).).).).).).X ; 6.B.I.U.(./.h.u.e.-.& = 9.j.y.0.` ' L.L.] W E Y m C F.D.A l % o ).).).).).).).).).).).).).).).).).).).).",
").).).).).).).).).).; t B.U.U.U.(./.h.u.f.9.6 6 :.e.u.y.' ' L.L.' ` ` E m V F.C.A z % o ).).).).).).).).).).).).).).).).).).).).",
").).).).).).).).X ; 6.B.I.I.I.U.(./.k.u.u.u.9.:.S D e.y.` ' L.K.' ! Q E m C C.F.A z % o ).).).).).).).).).).).).).).).).).).).).",
").).).).).).).).o 2 B.U.I.I.I.U.(./.k.u.u.u.j.e.A V q.q.' } L.L.' ! ! E B S F.C.A z % o ).).).).).).).).).).).).).).).).).).).).",
").).).).).).).).o 2 B.I.U.I.g.h././.k.u.f.f.f.y.( Y V G 9.u.P.L.] ` ! ! E _ K.C.A l % o ).).X o o o o o o o ).).).).).).).).).).",
").).).).).).).).o 2 s.U.I.I.g.g.(./.h.u.u.f.f.y.' E S S q.t.I.L.' Q ! ! ! ] L.C.C l % o ).).: 2 2 < 2 2 $ # ).).).).).).).).).).",
").).).).).).).).X 2 B.I.I.I.g.k.(./.k.u.u.u.g.y.' ` q.q.S G F.L.' ` W W W ' L.B.2 @ o o o ; 6.s.4.4.H.n.: X ).).).).).).).).).).",
").).).).).).).).o 2 B.U.I.P.h.h.E.E.h.g.y.y.y.w.' ' y.e.N V C.L.{ ' ' ' ` ' d.7.t > 2 2 2 t B.I.k.k.(.T.3 o ).).).).).).).).).).",
").).).).).).).).o 2 B.I.k.g.~.^.K K E.!.} ' ' ` ! ' y.e.B C C.I.u.y.y.0.' E S J A.R.B.B.B.B.I.I.g.k./.T.2 o ).).).).).).).).).).",
").).).).).).).).. = 6.B.h.h.E.J.C N J.H.} ' ` ` ' ' 9.,.n M F.I.g.u.g.y.{ _ m C !.(.U.U.I.I.I.I.g.k./.T.3 @ ).).).).).).).).).).",
").).).).).).).).).).; y R.E.K C x m C J h.C.' ` 0.9.G M * 4 H./.g.g.u.g.D.d.N C Q.(.E.I.U.I.I.I.g.g./.W.C l % X ).).).).).).).).",
").).).).).).).).).).X 2 G.H.S m m m x C a.h.{ } y.e.V l @ > T./.h.u.u.g.I.F.C A Q.(.U.U.I.I.I.L.g.k./.W.D v % o ).).).).).).).).",
").).).).).).).).).).o , ^ | E E E Y m x N H d.L.P.C.A z @ : T.(.h.u.u.g.I.F.C A !.(.U.I.I.I.k.f.u.k./.~._ I * o ).).).).).).).).",
").).).).).).).).).).o * ~ ` ` ! ` E B m x V C.I.C.a.A z @ 2 H.~.K.g.u.g.I.F.C C G.~.U.U.U.P.f.u.g.C.E.I.{ T * o ).).).).).).).).",
").).).).).).).).).).o < ,.0.' W ! ! E Y m N e.y.D N b z % ; 4.K.~.~.k.g.I.C.A m _ >.~./.U.I.g.k.~.E.K G E Y * o ).).).).).).).).",
").).).).).).).).).).o 2 4.y.' W W ` ! E m N e.9.N x b z @ < ,.g././.h.f.C.a.S B E ' ~.(.U.L.g.h./.E.D m E T 3 ; ).).).).).).).).",
").).).).).).).).).).o < 4.y.' W ( ! ! E m B e.e.N x x z @ * T } /./.k.e.D S Y E ` | ~.(.k.g.i.h./.~._ E ` ` ,.;.< X ).).).).).).",
").).).).).).).).).).o < ;.,.' ! ! ! ` E B S e.e.N x x l , 1 T { ^.~.i.q.B m ( ' Q | ~./.h.u.u.h./.~.{ ! E ( y.4.< o ).).).).).).",
").).).).).).).).).).).).= 5 T ! W ` ! ! E ( y.0.N z * , L T W ' u.i.{ ` m N q.e.' | ~./.h.i.u.g.(.~.{ E B A e.9.2 o ).).).).).).",
").).).).).).).).).).).).X * ~ ' ` ! ! ! ` ' y.e.V z @ * T ` ~ ^ <.<.^ R m N e.y.' | ~.(.l.g.g.h.~.!._ Y V S q.:.= o ).).).).).).",
").).).).).).).).).).).).o < ,.0.' W ! ! W ' y.e.N z @ * T ~ h u f f p u v N 0.y.` | ~.(.I.I.I.I.k.p.S V q.,.D M % o ).).).).).).",
").).).).).).).).).).).).X < <.y.' W ! ( W ' u.e.N z $ * P / g d d s s f v N e.y.{ } H.E.F.D.C.h.g.9.N V e.e.M l @ X ).).).).).).",
").).).).).).).).).).).).o < 4.y.' W W ` W ' L.h.C z % + e g x.m.m.v.m.3.N N 9.g.D.h.K A A A N H e.e.B M e.4.2 @ ).).).).).).).).",
").).).).).).).).).).).).o < 4.y.{ ` ` W ` ] F.C.C z % $ p k m.N.N.N.n.8.Z D 9.u.I.F.N x x x x N e.t.G G :.;.< X ).).).).).).).).",
").).).).).).).).).).).).o = 4.f.y.0.' ! W ' L.C.C z $ ; 2.m.Y.N.*.$.Z Z ,.9.] } L.F.A x x x x N e.u.e.:.6 = ).).).).).).).).).).",
").).).).).).).).).).).).O ; -.e.u.y.' ` Q ' L.F.S v @ : c.N.N.m.*.@.v N 9.w.{ { d.a.A x x x x N e.u.e.=.: O ).).).).).).).).).).",
").).).).).).).).).).8 8 q 0 ; l 1.y.' ! Q ] L.K._ I * & O.%.%.%.m.c.4 , T } D.d.F N x x x x x N e.e.r ; 0 q ).).).).).).).).).).",
").).).).).).).).).).s a j a + - <.u.] ` ` ' L.L.] Y * & o.#.#.%.N.b.= * Y ] L.F.S m m x x x B V :.-.3 - f f ).).).).).).).).).).",
").).).).).).).).7 f x.m.m.2.- ; <.g.y.0.` ' L.L.] Y * & o.#.#.%.N.b.; * T ] L.F.` U m x x m Y U 1 3  .@.v.x.s 8 ).).).).).).).).",
").).).).).).).).8 j m.Y.N.c.; ; <.u.g.y.' ] L.L.] Y * & o.#.%.*.N.b.; * ~ } l.l.] E B B m B U I 2 3 O.*.m.v.s i ).).).).).).).).",
").).).).).).).).8 s v.N.*.+.& = <.j.j.y.' ' L.L.' T * & o.%.m.N.Y.b.; ; a.D.} ' ` ! E E E U 1 2 ..@.m.m.&.#.a 7 ).).).).).).).).",
").).).).).).).).a j v.m.%.O.> 3 ;.<.<.,.| { P.L.) L 2 3 o.%.m.N.N.c.r r 6.d.' ! ! ` ! W T L < > o.%.m.m.%.O.j a ).).).).).).).).",
").).).).).).7 a X.#.%.%.#.#.o...3 = = 6 ,.g./.T.6 2 ..o.#.#.%.%.%.*.v.2.r 5 E Q ` ! ` T 1 2  .O.#.#.%.%.#.#.O.X.a 8 ).).).).).).",
").).).).).).9 a X.O.O.O.O.O.O...- + + = ;.5.H.n.> - ..O.O.O.O.O.O.O.v.2.: & L Y Y T Y L = - ..O.O.O.O.O.O.O.O.X.a q ).).).).).).",
").).).).).).i i a a a a a a a a w q q 0 2 2 2 > 0 q a a a a a a a a d d w w * * * * * = 0 w a a a a a a a a a a i 8 ).).).).).).",
").).).).).).7 9 7 7 8 7 q 8 8 8 9 9 i 7 O X X O 7 7 7 q 9 7 7 i 9 9 9 9 9 7 o X o X o + 7 9 7 7 9 7 7 i 8 9 i 7 9 8 ).).).).).).",
").).).).).).).).).).).).).).).).).).).).).).).).).).).).).).).).).).).).).).).).).).).).).).).).).).).).).).).).).).).).).).).).",
").).).).).).).).).).).).).).).).).).).).).).).).).).).).).).).).).).).).).).).).).).).).).).).).).).).).).).).).).).).).).).).)."
};
