/* XPM */
static char *result[] = {
/* columns rows colors chars-per-pixel */
"64 64 243 2 ",
"   c #183E9B",
".  c #2A4998",
"X  c #37559C",
"o  c #2B539E",
"O  c #1C47A7",
"+  c #264EAA",
"@  c #294FAC",
"#  c #264BA5",
"$  c #2A52AD",
"%  c #2956A7",
"&  c #345CA5",
"*  c #2354B4",
"=  c #2A52B2",
"-  c #285CBA",
";  c #2856B1",
":  c #2D63AD",
">  c #3B65AA",
",  c #396DB3",
"<  c #3B73BA",
"1  c #3D71B6",
"2  c #2A61BF",
"3  c #19429F",
"4  c #43589E",
"5  c #475CA4",
"6  c #436AAC",
"7  c #4B6DAC",
"8  c #4764A8",
"9  c #5569AA",
"0  c #4A72AE",
"q  c #5773AF",
"w  c #456DB3",
"e  c #4472B5",
"r  c #4A75B4",
"t  c #4B78B5",
"y  c #4373BB",
"u  c #4C7BBC",
"i  c #4B75BB",
"p  c #5274B1",
"a  c #537AB4",
"s  c #5B7BB5",
"d  c #547BBA",
"f  c #5A7FBB",
"g  c #5A74B4",
"h  c #506BB8",
"j  c #627BB6",
"k  c #2B67C5",
"l  c #326DC7",
"z  c #3B75CA",
"x  c #2B71D2",
"c  c #387AD2",
"v  c #296FD0",
"b  c #4B7EC2",
"n  c #457BC7",
"m  c #4E7BC5",
"M  c #5C82BC",
"N  c #5584BB",
"B  c #6484BC",
"V  c #6584BA",
"C  c #748CBB",
"Z  c #3A86DA",
"A  c #3B80C8",
"S  c #3986E0",
"D  c #5B84C1",
"F  c #5D89C4",
"G  c #5689C9",
"H  c #5E91CD",
"J  c #4888D6",
"K  c #548FD8",
"L  c #558DD6",
"P  c #4793D8",
"I  c #5B94DB",
"U  c #5A95D9",
"Y  c #4B86CC",
"T  c #648AC2",
"R  c #6B8CC3",
"E  c #658BC5",
"W  c #748FC3",
"Q  c #6291C4",
"!  c #6B94CB",
"~  c #6C9BCC",
"^  c #6892C7",
"/  c #7392C5",
"(  c #749CCC",
")  c #7997C9",
"_  c #6196D3",
"`  c #6499D3",
"'  c #6C9CD2",
"]  c #629DDE",
"[  c #6797DC",
"{  c #729ED3",
"}  c #789FD7",
"|  c #6FA1CF",
" . c #72A3CE",
".. c #7CA2CF",
"X. c #6DA3D9",
"o. c #75A3D4",
"O. c #7AA5D4",
"+. c #7DAAD7",
"@. c #73A3DA",
"#. c #7DACDC",
"$. c #77A9DB",
"%. c #7EB2DB",
"&. c #5799E4",
"*. c #4996E5",
"=. c #649DE1",
"-. c #6A9FE0",
";. c #709DE2",
":. c #6AA4E4",
">. c #6BA7EA",
",. c #73A6E2",
"<. c #7CACE3",
"1. c #73ADEC",
"2. c #76ACE2",
"3. c #7DB4E5",
"4. c #7CB3ED",
"5. c #79B9EA",
"6. c #6DB3F4",
"7. c #7EB6F0",
"8. c #7ABCF4",
"9. c #6AAEF2",
"0. c #5CA5E1",
"q. c #7FC2F2",
"w. c #869CCC",
"e. c #8AA2CD",
"r. c #84A7D3",
"t. c #85AAD4",
"y. c #8AAAD3",
"u. c #8BAFDC",
"i. c #84ABD8",
"p. c #83B3DB",
"a. c #8DB4DC",
"s. c #89B6D9",
"d. c #92B3DC",
"f. c #9ABBDD",
"g. c #95B4D8",
"h. c #94A6CB",
"j. c #A4B8D7",
"k. c #B1BED6",
"l. c #83B4E4",
"z. c #8CBAE3",
"x. c #83B6EE",
"c. c #84BCEA",
"v. c #89BCEA",
"b. c #87B7E5",
"n. c #93BCE3",
"m. c #96BCE5",
"M. c #83BBF2",
"N. c #8ABDF4",
"B. c #85B6F0",
"V. c #96BEF0",
"C. c #ADC2DE",
"Z. c #8CC2EB",
"A. c #9CC3E5",
"S. c #93C4EC",
"D. c #9BC5EA",
"F. c #9CCCED",
"G. c #98C6E4",
"H. c #9ED0EC",
"J. c #8BC2F4",
"K. c #86C3F9",
"L. c #93C4F4",
"P. c #95C9F4",
"I. c #9DCDF4",
"U. c #94C6FA",
"Y. c #96C9FA",
"T. c #9BCBFB",
"R. c #9DC7F5",
"E. c #9ED1F9",
"W. c #A3C5E4",
"Q. c #ABC4E4",
"!. c #A6CCE6",
"~. c #AACCE6",
"^. c #ABCCEA",
"/. c #A4C9EA",
"(. c #B3CBE5",
"). c #B5CEE9",
"_. c #BCCBE2",
"`. c #A3D2EC",
"'. c #ABD3EC",
"]. c #ADD9ED",
"[. c #A4D3E6",
"{. c #B3D4EB",
"}. c #BAD3EC",
"|. c #B3D9EC",
" X c #BADBEE",
".X c #A3CCF4",
"XX c #A1CEFD",
"oX c #A9CEF3",
"OX c #A5D2F2",
"+X c #AAD5F3",
"@X c #A4D4FB",
"#X c #ABD6FB",
"$X c #ACD9FB",
"%X c #AED8F6",
"&X c #B3D4F2",
"*X c #B3DCF3",
"=X c #BCDCF2",
"-X c #B3DCFB",
";X c #BBDDFB",
":X c #B8D4F5",
">X c #BBE2EF",
",X c #BDE1F3",
"<X c #BCE2FB",
"1X c #BBE6F8",
"2X c #93C0DF",
"3X c #C4DAED",
"4X c #CADCEE",
"5X c #C6D4E8",
"6X c #D2DDEE",
"7X c #C3DDF2",
"8X c #CBDEF2",
"9X c #C2DEFB",
"0X c #CDD9EB",
"qX c #D6E2EF",
"wX c #C3E2F3",
"eX c #CAE4F4",
"rX c #CCE9F6",
"tX c #C4E3FB",
"yX c #CBE4FC",
"uX c #C5E8F9",
"iX c #CCEBFB",
"pX c #C5E8F7",
"aX c #D3E4F4",
"sX c #DAE6F3",
"dX c #D3EAF6",
"fX c #DBECF6",
"gX c #D3E6FD",
"hX c #D4ECFA",
"jX c #DCEDFB",
"kX c #DBF1FC",
"lX c #D6F0FB",
"zX c #E1ECF6",
"xX c #E2EEFC",
"cX c #EBEFF7",
"vX c #E4F3FC",
"bX c #ECF5FD",
"nX c #E5F9FF",
"mX c #EBFBFF",
"MX c #E5F0F7",
"NX c #F2F6FB",
"BX c #F4FCFE",
"VX c #FEFFFF",
"CX c None",
/* pixels */
"CXCXCXCXCXCXCXCXCXCXCXCXCXCXCXCXCXCXCXCXCXCXCXCXCXCXCXCXCXCXCXCXCXh.C CXCXCXCXCXCXCXCXCXCXCXCXCXCXCXCXCXCXCXCXCXCXCXCXCXCXCXCXCX",
"CXCXCXCXCXCXCXCXCXCXCXCXCXCXCXCXCXCXCXCXCXCXCXCXCXCXCXCXCXCXh._.qXaX Xj.C CXCXCXCXCXCXCXCXCXCXCXCXCXCXCXCXCXCXCXCXCXCXCXCXCXCXCX",
"CXCXCXCXCXCXCXCXCXCXCXCXCXCXCXCXCXCXCXCXCXCXCXCXCXCXCXCXCX5XvXmXrX|.|.[.f.y.CXCXCXCXCXCXCXCXCXCXCXCXCXCXCXCXCXCXCXCXCXCXCXCXCXCX",
"CXCXCXCXCXCXCXCXCXCXCXCXCXCXCXCXCXCXCXCXCXCXCXCXCXCXCXh.sXmXmXmXwX|.'.g.i./ B CXCXCXCXCXCXCXCXCXCXCXCXCXCXCXCXCXCXCXCXCXCXCXCXCX",
"CXCXCXCXCXCXCXCXCXCXCXCXCXCXCXCXCXCXCXCXCXCXCXCXCXCXe.zXmXmXmXmXhX|.[.a.+.f M CXCXCXCXCXCXCXCXCXCXCXCXCXCXCXCXCXCXCXCXCXCXCXCXCX",
"CXCXCXCXCXCXCXCXCXCXCXCXCXCXCXCXCXCXCXCXCXCXCXCXCXCX0XVXBXmXmXMXwX3XW.s.( d M CXCXCXCXCXCXCXCXCXCXCXCXCXCXCXCXCXCXCXCXCXCXCXCXCX",
"CXCXCXCXCXCXCXCXCXCXCXCXCXCXCXCXCXCXCXCXCXCXCXCXCXj.BXVXVXBXnXwX|.|.}.m.( d f B CXCXCXCXCXCXCXCXCXCXCXCXCXCXCXCXCXCXCXCXCXCXCXCX",
"CXCXCXCXCXCXCXCXCXCXCXCXCXCXCXCXCXCXCXCXCXCXCXCXC.MXVXVXVXVXfX|.|.|.|.!.^ a d M g CXCXCXCXCXCXCXCXCXCXCXCXCXCXCXCXCXCXCXCXCXCXCX",
"CXCXCXCXCXCXCXCXCXCXCXCXCXCXCXCXCXCXCXCXCXCXCX_.mXmXmXBXVXVXfX].|.{.|.f.E d d 7 s p r CXCXCXCXCXCXCXCXCXCXCXCXCXCXCXCXCXCXCXCXCX",
"CXCXCXCXCXCXCXCXCXCXCXCXCXCXCXCXCXCXCXCXCXCX_.BXmXmXmXmXmXBXhX|.|.|.|.s.B N d 7 p 8 8 p CXCXCXCXCXCXCXCXCXCXCXCXCXCXCXCXCXCXCXCX",
"CXCXCXCXCXCXCXCXCXCXCXCXCXCXCXCXCXCXCXCXCXCXcXVXVXVXBXmXmXmXfX|.|.|.|.t.B M M 8 9 X 5 h CXCXCXCXCXCXCXCXCXCXCXCXCXCXCXCXCXCXCXCX",
"CXCXCXCXCXCXCXCXCXCXCXCXCXCXCXCXCXCXCXCXCX0XVXVXVXVXVXVXBXmXkX|.|.|.~.r.V V j 8 9 X 5 h d CXCXCXCXCXCXCXCXCXCXCXCXCXCXCXCXCXCXCX",
"CXCXCXCXCXCXCXCXCXCXCXCXCXCXCXCXCXCXCXCXCXNXVXVXVXVXVXVXVXBXdX!.A.|.[.O.B R j 9 8 4 4 9 g CXCXCXCXCXCXCXCXCXCXCXCXCXCXCXCXCXCXCX",
"CXCXCXCXCXCXCXCXCXCXCXCXCXCXCXCXCXCXCXCX0XVXVXVXVXVXVXVXVXMX,X2Xr.{.!.( R V q q q 4 5 5 h d CXCXCXCXCXCXCXCXCXCXCXCXCXCXCXCXCXCX",
"CXCXCXCXCXCXCXCXCXCXCXCXCXCXCXCXCXCXCXj.NXVXVXVXVXVXVXVXVXrX>Xg...~.~.( R j g q q 9 5 5 5 n h CXCXCXCXCXCXCXCXCXCXCXCXCXCXCXCXCX",
"CXCXCXCXCXCXCXCXCXCXCXCXCXCXCXCXCXCX5XNXVXVXVXVXVXVXVXVXBX,X*Xf...~.'./ W j s j q 9 9 5 6 y i CXCXCXCXCXCXCXCXCXCXCXCXCXCXCXCXCX",
"CXCXCXCXCXCXCXCXCXCXCXCXCXCXCXCX6XNXVXVXVXVXVXVXVXVXVXVXfX XdX(.r.W.{.) R B j j j 9 9 8 w > e e CXCXCXCXCXCXCXCXCXCXCXCXCXCXCXCX",
"CXCXCXCXCXCXCXCXCXCXCXCXCXCXCX6XVXVXVXVXVXVXVXVXVXVXVXVXdXfXBX4Xr.y.{...R j j R w.j g 7 6 > 6 e CXCXCXCXCXCXCXCXCXCXCXCXCXCXCXCX",
"CXCXCXCXCXCXCXCXCXCXCXCXCXCX(.VXVXVXVXVXVXVXVXVXVXVXVXmXfXMXmXsXy.r.W.f.! B V e.w.g g 0 r > 6 e CXCXCXCXCXCXCXCXCXCXCXCXCXCXCXCX",
"CXCXCXCXCXCXCXCXCXCXCXCXCXCXcXVXVXVXVXVXVXVXVXVXVXVXBXMXdXfXMXzXg.r.g.^.) W w.w.w.j s p 7 8 , C k._.5Xk.CXCXCXCXCXCXCXCXCXCXCXCX",
"CXCXCXCXCXCXCXCXCXCXCXCXCX6XVXVXVXVXVXVXVXVXVXVXBXmXmXsXeXrXfXzXj.r.y.f.y.e.w.w.w.j j g 0 6 M qXVXVXVXBXqXj.CXCXCXCXCXCXCXCXCXCX",
"CXCXCXCXCXCXCXCXCXCXCXCXCXsXVXVXVXVXVXVXVXVXBXBXmXmXmXwXwXeXdXfXQ.t.y.y.h.w.w./ W E s d p 6 h.mXnXVXVXVXVXNXC.CXCXCXCXCXCXCXCXCX",
"CXCXCXCXCXCXCXCXCXCXCXCXCXaXVXVXVXVXVXVXVXBXmXmXnXmXMX X XwXrXfX}.t.r.y.w.) / / ! E s g 7 V dXnXvXmXVXBXmXkX].CXCXCXCXCXCXCXCXCX",
"CXCXCXCXCXCXCXCXCXCXCXCXCX6XVXVXVXVXVXVXVXBXnXnXnXmXfX X=X XwXdX4Xy.e.y.w./ R R R T a 6 6 j.mXnXnXvXBXnXvX,XH.) CXCXCXCXCXCXCXCX",
"CXCXCXCXCXCXCX}.{.}.m.CXCX8XVXVXVXVXVXVXVXBXnXmXnXnXdX=X=XwXwXrXeXf.y.e./ R R E E D r 8 s aXnXkXnXnXmXnXuX>X2X .CXCXCXCXCXCXCXCX",
"CXCXCXCXCX4XvXhXuX1XpXm.CX4XVXVXVXVXVXVXVXVXmXnXmXBXMX=X=XwXwXeXdX(.y...C T T E F f 6 p C.vXnXnXnXmXnXkX1X|.%. .^ CXCXCXCXCXCXCX",
"CXCXCXCXCXMXmXiXuX1XpX,Xd.Q.VXVXVXVXVXVXVXVXmXnXnXBXbX>X>XwXwXwXeX4Xg./ R T E F D i r j.fXnXnXnXnXnXkXuX>X].%. . .CXCXCXCXCXCXCX",
"CXCXCXCXCXVXBXkXiX1X1X-X*X^.NXVXVXVXVXVXVXVXBXmXmXVXBXeXwX>XwX>XwXrXf.V B E F D N f g.).rXvXnXnXnXnXiX>X,X1X%.|  .C CXCXCXCXCXCX",
"CXCXCXCXCXBXBXnXlXuXpXOXOXF.cXVXVXVXVXVXVXVXVXBXVXVXVXdX,XwXwXwXwX>Xg.V F T F D f g.(./.7XkXnXnXnXkXpX>XrX,Xp. . .Q CXCXCXCXCXCX",
"CXCXCXCXCXNXVXmXnXiXpXF.Z.b.aXVXVXVXVXVXVXVXVXVXVXVXVXfXwXwXwX>X X|.p.Q F F D b / aX8X).=XlXkXnXkXiX>X1XlX|.p. .F N CXCXCXCXCXCX",
"CXCXCXCXCXNXVXmXnXrXpX'.b.3.{.VXVXVXVXVXVXVXVXVXVXVXVXvXfXhXdXwX>X[.( M F F D D _.zXfX6XeXfXnXkXiX>X%XuXlX[.%.~ t N CXCXCXCXCXCX",
"CXCXCXCXCXxXbXmXnXrXpX|.3.2.^.VXVXVXVXVXVXVXVXVXVXBXvXkXkXhXeX>X|.t.M B D D M g.~.3X8X3X}.7XuXpX*X+X>XlXlX[.%.N r s CXCXCXCXCXCX",
"CXCXCXCX}.jXmXmXmXdXpX=Xb.$.8XVXVXVXVXVXVXVXVXVXNXMXkXlXlX>X>X].s.N t M M d ) A.%.z.^.W.D.F.`.'.OX|.hXmXpX`. .t t t CXCXCXCXCXCX",
"CXCXCXCX}.kXmXmXmXhXpX7X/.b.cXVXVXVXVXVXVXVXVXBXkXfXlXrX>X>X].2XV t s N M f g.p.%.z.A.A.D.v.c.S.=XnXBXrX].].| r t a CXCXCXCXCXCX",
"CXCXCX4XBXBXBXmXmXlX7X7XrX~.BXVXVXVXVXVXVXVXVXMXkXkXrXpX>X>X[. .N 0 N a d R z.p.%.n.A.S.z.3.b./.fXmXrX].*X`.Q e t a CXCXCXCXCXCX",
"CXCXCXsXVXVXmXmXmXdX=XeXMXaXVXVXVXVXVXVXVXVXvXlXkXlXrX>X|.[.%.N 1 N N V / u.l.%.p.m.G.n.b.Z.&XeXaX{.G.[.>XG.N e t 0 CXCXCXCXCXCX",
"CXCXCXsXVXVXBXnXmXrX=XdXzXNXVXVXVXVXVXVXVXMXlXlXlXdXwX>XH.s.| C e.g.C.(.).).Q.a.z.A.W.A.D.^.=X3XW.p.G.[.].p.t e 0 8 CXj.aXW.a CX",
"CXCXCXzXVXVXVXmXnXpX,XsXsXBXVXBXVXBXBXVXnXdXdXlXdXwX|.[.W._.qXMXfX4X).).).).).{.W.a.$.X.@.o.i.p.p.p.'.].[.F e w e M 5XvXeXQ 6 CX",
"CXCXCXsXVXVXVXBXnXwX,XfXaXbXBXmXmXmXmXmXvXrXdXdXeX>XG.2XzXVXVXBXBXMX3X}.{.).Q.s.X._ ` ` { o.O.+.%.A.,X].p.e e 6 > ^ uXeXi.w 8 CX",
"CXCXCXaXVXVXBXBXbXwX7XrX8XvXnXMXbXnXbXmXkXrXrX4X XG.+.4XBXnXbXVXBXVXcX4X^.d.' Q H _ ` ' o.O.+.%.a.pX*X`.~ e e > > C 1XG.u & > CX",
"CXCXCX3XVXVXVXVXjX=XwX9X=XsXxXfXfXfXjXaX=X'.&X X/.O.Q.BXBX7Xa.).MXBXvX).+.^ H H U ` ' o.O.O.+.p.=XuX].H.B 1 1 o : V ].O.e 6 X CX",
"CXCXCX(.BXVXBXVXaX{.wX+X-X:XaX8X8XwX8XdX=XD.n./.i.i.xXVXbXy.! ( t.!.f.i.O.{ ` ` ` ' o.o.O.O.+.'.iXpX`.H.Q 0 1 o X N Z.G Y e CXCX",
"CXCXCXCXNXVXVXBXxXeX&XI.@X.X).m.f.z.}.nXwXF.b.l.{ 3XVXBX}.! / ~ ! O.+.O.O.O.o.o.' ' o.o.O.o.m.gXtX<XH.H.H < , o o r H y u X CXCX",
"CXCXCXCXzXVXVXBXxXkX^.J.I.<.d.u.O.u.jXbXrX`.l.X.n.NXVXcXa.^ ! ! ! o.O.O.O.O.o.O.n./.~.z.O.O.}.yXtX*XH.H.Q < , o : r N u & . CXCX",
"CXCXCXCX5XVXVXnXzXbXeXV.I.l.{ d.u.{.BXnXhX`.c.X.8XBXsXd.} ( ! ^ ! ~ o.O.o.O.+./.yXhXuXH.%.p.tXtXtX`.S.S.G < : o > u b > . . CXCX",
"CXCXCXCXC.bXVXBXsXBXjX&XI.N.} ! a.xXBXkXiXE.5.z.bX8XQ.}.zXaXd.^ ^ ' o.@.} u.&XgXgXiX*XOXS.D.yX<X;XF.Z.$.< : % : y Y y . . . CXCX",
"CXCXCXCXCXzXBXBXeXxXbX9XA.Z.<.` O.bXBXkXiXE.3.7XxXaXbXNXNXhX7Xo.^ ! o.} n.7XgXiXyXtXOXH.OX9X9X&XH.Z.Z.G : o % , Y b & . . & CXCX",
"CXCXCXCXCXzXVXBX7X8XBXuXF.@.,.{ z.NXnXiX<XOX&XbXNXNXbXNXxX;XtXQ.! ` o.W.9XtX<XtXtX<XF.I.*X%XI.Z.Z.Z.X.< % % % 1 b < . . @ CXCXCX",
"CXCXCXCXCXbXmXnX7X:XbXjXoX' G @./.NXxX;XeXxXbXbXbXbXbXxXgX*X*X9Xm.' a.tX<X<X<X<X<XOXZ.F.S.Z.Z.Z.q.5.H P Y : : < < & . # $ CXCXCX",
"CXCXCXCXQ.vXbXbX7X&XjXxX&X$.b G ^.bXgX8XbXbXbXbXxXxXvXxX1X-X*X-X;Xi.m.iX<X-X<X$X-XS.v.c.c.Z.Z.5.5.5.5.0.P , % : ; = @ $ $ CXCXCX",
"CXCXCXCXCXxXNXNX8XoX9XxX=Xb.D b m.xX8XgXvXxXxXvXxXxXxXjX%XOX%X%XI.n.:X<X$X$X$X$X@Xc.5.v.I.$XZ.5.5.q.5.P P A % % # $ $ $ CXCXCXCX",
"CXr.O.CXCXgXbXbXgX.X.XgXyXR.H 1 } gX;XxXxXxXxXxXxXjXjXiXOXI.+X.Xv.S.tX$X@X$X$X$XI.5.c.+X$XP.5.q.q.q.0.P P Z % O # $ @ $ CXCXCXCX",
"CXQ.'.#.G d.xXxXxX#XXX:XgXL.' y G ;X9XxXjXxXxXjXjXgXyXtXE.P.XXN.4..X;X$X#X@XT.T.J.x.@X@X5.5.J.P.q.0.Z P P Z + + @ @ = = CXCXCXCX",
"CXCXtXOX,.L }.xXgX:XXXR.8XD.@.y G XX7XgXgXgXgXgXyXtX<X<XP.J.U.7.x.#X@XT.T.T.T.Y.x.P.@X1.6.P.@X@Xq.0.S S S A % + @ $ = = CXCXCXCX",
"CXCX9XyXL.I ,.gXgX#XXXN.&XoX<.G _ R.9XgXgXgXyX9X9X;X-X-XP.K.J.1.L.XXT.Y.Y.Y.Y.U.J.E.N.1.U.@X@XK.6.S S S S Z * % @ $ = CXCXCXCXCX",
"CXCXQ.gX%X>.J B.XXV.Y.N.R.S.;.[ [ L.9XyX9X9X9X-X$X#X@X@XJ.M.N.1.Y.Y.Y.Y.Y.U.U.Y.Y.U.>.7.E.E.K.6.9.S S S S A O ; @ = = CXCXCXCXCX",
"CXCXCX9XXXN.-.J 1.N.N.N.N.B.;.I K x.9X;X%X.XL.M.8.7.7.7.x.7.B.>.T.T.U.U.U.U.U.L.Y.N.&.4.U.J.9.9.*.x x x x * @ $ @ = = CXCXCXCXCX",
"CXCXCX} V.N.7.&.J 9.M.9.;.<.=.I [ <.V.x.1.>.:.:.:.:.>.:.:.:.-.=.L.L.N.B.x.x.B.x.x.1.J :.3.>.:.&.c k k k - @ = = = = = CXCXCXCXCX",
"CXCXCXCX[ N.M.9.CXCXCXCXCX=.=.K I ' X.] =.] ] ] ] ] ] ] =.=.I L i.l.l.<.,.,.,.,.:.=.J K I I J c l k - * + = @ * = @ = = CXCXCXCX",
"CXCXCXCXCX;.B.M.CXCXCXCXCXm =.=.K _ <.] ] ] ] ] X.] ] =.I =.L n ,.l.l.<.l.<.<.,.X.U J K I I c l k - * 3 CX2 + @ @ @ # @ CXCXCXCX",
"CXCXCXCXCXCX;.B.CXCXCXCXCXCX_ =.I U <.:.X.] =.] I X.0.=.=.I J n @.l.l.l.<.l.<.,.] K J K I K z l - * O   * $ # + + + # @ CXCXCXCX",
"CXCXCXCXCXCXCXCXCXCXCXCXCXCXCXCXCXCXCXCXCXCXCXCXCXCXCXCXCXCXCXCXCXCXb.v.x.l.<.-.I K c U I J l l - * O   CXCXCXCXCXCXCXCXCXCXCXCX",
"CXCXCXCXCXCXCXCXCXCXCXCXCXCXCXCXCXCXCXCXCXCXCXCXCXCXCXCXCXCXCXCXCXCXCXCXCXCXCXCXCXK J &.&.n l k * O   CXCXCXCXCXCXCXCXCXCXCXCXCX",
"CXCXCXCXCXCXCXCXCXCXCXCXCXCXCXCXCXCXCXCXCXCXCXCXCXCXCXCXCXCXCXCXCXCXCXCXCXCXCXCXCXCXCXCXCXCXCXCX* O CXCXCXCXCXCXCXCXCXCXCXCXCXCX"
};
